<svg xmlns="http://www.w3.org/2000/svg" width="24" height="24" viewBox="0 0 24 24">
  <g id="alert" transform="translate(-146 -733)" opacity="0.4">
    <path id="notifications-24px_2_" data-name="notifications-24px (2)" d="M12,22.5a2.006,2.006,0,0,0,2-2H10A2,2,0,0,0,12,22.5Zm6-6v-5c0-3.07-1.14-6.32-4-7h0a2.492,2.492,0,0,0-2-2c-.83,0-1,1.17-1,2h0c-2.87.68-5,3.92-5,7v5l-2,2v1H20v-1Z" transform="translate(146 732.5)"/>
    <rect id="Rectangle_1340" data-name="Rectangle 1340" width="24" height="24" transform="translate(146 733)" fill="none"/>
  </g>
</svg>
