<svg id="attach_file" xmlns="http://www.w3.org/2000/svg" width="20" height="20" viewBox="0 0 20 20">
  <path id="Path_13438" data-name="Path 13438" d="M0,0H20V20H0Z" fill="none"/>
  <path id="Path_13439" data-name="Path 13439" d="M14.886,5.168v9.587a3.32,3.32,0,1,1-6.641,0V4.335a2.075,2.075,0,1,1,4.15,0v8.753a.83.83,0,1,1-1.66,0V5.168H9.49v7.919a2.075,2.075,0,1,0,4.15,0V4.335A3.32,3.32,0,1,0,7,4.335v10.42a4.565,4.565,0,1,0,9.131,0V5.168Z" transform="translate(-1.147 -0.17)" fill="#707070"/>
</svg>
