<svg id="contact_us" xmlns="http://www.w3.org/2000/svg" width="24" height="24" viewBox="0 0 24 24">
  <path id="Path_10252" data-name="Path 10252" d="M0,0H24V24H0Z" fill="none"/>
  <path id="Path_10253" data-name="Path 10253" d="M20,15.5a11.36,11.36,0,0,1-3.57-.57,1.115,1.115,0,0,0-.31-.05,1.024,1.024,0,0,0-.71.29l-2.2,2.2a15.074,15.074,0,0,1-6.59-6.58l2.2-2.21a.982.982,0,0,0,.25-1.01A11.36,11.36,0,0,1,8.5,4a1,1,0,0,0-1-1H4A1,1,0,0,0,3,4,17,17,0,0,0,20,21a1,1,0,0,0,1-1V16.5A1,1,0,0,0,20,15.5ZM5.03,5h1.5a13.26,13.26,0,0,0,.46,2.59L5.79,8.8A14.989,14.989,0,0,1,5.03,5ZM19,18.97a14.9,14.9,0,0,1-3.8-.76l1.2-1.2a12.753,12.753,0,0,0,2.6.45ZM12,3V13l3-3h6V3Zm7,5H14V5h5Z" fill="#14ac63"/>
</svg>
