<svg xmlns="http://www.w3.org/2000/svg" width="29.199" height="24.385" viewBox="0 0 29.199 24.385">
  <g id="inverted_comma" transform="translate(0 -7.858)">
    <g id="Group_1050" data-name="Group 1050" transform="translate(0 7.858)">
      <path id="Path_10265" data-name="Path 10265" d="M9.346,18.909A7.737,7.737,0,0,0,7.208,18.6a6.718,6.718,0,0,0-2.681.549c.674-2.467,2.293-6.723,5.517-7.2a.766.766,0,0,0,.625-.551l.7-2.521a.766.766,0,0,0-.633-.965,5.353,5.353,0,0,0-.721-.049c-3.871,0-7.7,4.04-9.321,9.824-.949,3.394-1.228,8.5,1.111,11.707a6.983,6.983,0,0,0,5.675,2.852h.03A6.793,6.793,0,0,0,9.346,18.909Z" transform="translate(0 -7.858)" fill="#e5e5e5"/>
      <path id="Path_10266" data-name="Path 10266" d="M62.055,22.117a6.809,6.809,0,0,0-4.084-3.208,7.736,7.736,0,0,0-2.138-.312,6.72,6.72,0,0,0-2.681.549c.674-2.467,2.293-6.723,5.517-7.2a.767.767,0,0,0,.625-.551L60,8.872a.766.766,0,0,0-.633-.965,5.346,5.346,0,0,0-.721-.049c-3.871,0-7.7,4.04-9.322,9.824-.949,3.394-1.228,8.5,1.112,11.708a6.982,6.982,0,0,0,5.675,2.852h.03a6.793,6.793,0,0,0,5.915-10.126Z" transform="translate(-33.733 -7.858)" fill="#e5e5e5"/>
    </g>
  </g>
</svg>
