<svg id="phone_iphone_color" xmlns="http://www.w3.org/2000/svg" width="20" height="20" viewBox="0 0 20 20">
  <path id="Path_1968" data-name="Path 1968" d="M0,0H20V20H0Z" fill="none"/>
  <path id="Path_1969" data-name="Path 1969" d="M13.75,1H7.083A2.084,2.084,0,0,0,5,3.083V17.25a2.084,2.084,0,0,0,2.083,2.083H13.75a2.084,2.084,0,0,0,2.083-2.083V3.083A2.084,2.084,0,0,0,13.75,1ZM10.417,18.5a1.25,1.25,0,1,1,1.25-1.25A1.248,1.248,0,0,1,10.417,18.5Zm3.75-3.333h-7.5V3.5h7.5Z" transform="translate(-0.833 -0.167)" fill="#14ac63"/>
</svg>
