<svg id="verified" xmlns="http://www.w3.org/2000/svg" width="18" height="18" viewBox="0 0 18 18">
  <g id="Group_24" data-name="Group 24">
    <rect id="Rectangle_935" data-name="Rectangle 935" width="18" height="18" fill="none"/>
  </g>
  <g id="Group_25" data-name="Group 25" transform="translate(0.75 1.125)">
    <path id="Path_1970" data-name="Path 1970" d="M17.5,9.375,15.67,7.283l.255-2.768L13.217,3.9,11.8,1.5,9.25,2.6,6.7,1.5,5.283,3.892,2.575,4.5,2.83,7.275,1,9.375l1.83,2.092-.255,2.775,2.708.615L6.7,17.25l2.55-1.1,2.55,1.095,1.417-2.392,2.708-.615-.255-2.767Zm-9.682,3.54-2.85-2.857,1.11-1.11,1.74,1.747,4.387-4.4,1.11,1.11Z" transform="translate(-1 -1.5)" fill="#31a6ff"/>
  </g>
</svg>
