<svg id="visibility_off" xmlns="http://www.w3.org/2000/svg" width="18" height="18" viewBox="0 0 18 18">
  <path id="Path_1967" data-name="Path 1967" d="M0,0H18V18H0ZM0,0H18V18H0ZM0,0H18V18H0ZM0,0H18V18H0Z" fill="none"/>
  <path id="Path_1968" data-name="Path 1968" d="M9.25,6A3.751,3.751,0,0,1,13,9.75a3.64,3.64,0,0,1-.27,1.373l2.19,2.19A8.863,8.863,0,0,0,17.493,9.75a8.87,8.87,0,0,0-8.25-5.625,8.734,8.734,0,0,0-2.985.525l1.62,1.62A3.64,3.64,0,0,1,9.25,6ZM1.75,3.953l1.71,1.71.345.345A8.853,8.853,0,0,0,1,9.75a8.866,8.866,0,0,0,11.535,4.995l.315.315,2.2,2.19L16,16.3,2.7,3ZM5.9,8.1,7.06,9.263A2.116,2.116,0,0,0,7,9.75,2.247,2.247,0,0,0,9.25,12a2.116,2.116,0,0,0,.488-.06L10.9,13.1a3.725,3.725,0,0,1-5-5ZM9.13,7.515l2.363,2.363.015-.12a2.247,2.247,0,0,0-2.25-2.25Z" transform="translate(-0.25 -0.75)" fill="#727272"/>
</svg>
