<svg xmlns="http://www.w3.org/2000/svg" xmlns:xlink="http://www.w3.org/1999/xlink" width="255.611" height="230.7" viewBox="0 0 255.611 230.7">
  <defs>
    <clipPath id="clip-path">
      <rect id="Rectangle_1698" data-name="Rectangle 1698" width="82.411" height="70.708" fill="#fff"/>
    </clipPath>
    <clipPath id="clip-path-2">
      <path id="Path_13504" data-name="Path 13504" d="M193.577,285.64s1.718,7.677,1.62,9.819-4.142,7.88-4.247,6.566a8.96,8.96,0,0,1,.712-3.234s-1.418,1.921-1.921,1.841.405-2.731.405-2.731-1.516,1.516-2.025,1.227,1.111-2.528,1.111-2.528-1.841,1.921-1.915,1.313,1.614-3.13,1.614-3.13a24.388,24.388,0,0,1-1.841-5.155A4.909,4.909,0,0,1,188.1,286.7Z" transform="translate(-187.09 -285.64)" fill="#fff" stroke="#263238" stroke-linecap="round" stroke-linejoin="round" stroke-width="1"/>
    </clipPath>
    <clipPath id="clip-path-3">
      <path id="Path_13508" data-name="Path 13508" d="M193.747,285.64s1.227,5.357,1.117,6.873-1.62,5.959-2.731,5.149.706-3.835.706-3.835-3.117-2.191-3.835-4.247-.307-2.927-.307-2.927Z" transform="translate(-188.579 -285.64)" fill="#fff" stroke="#263238" stroke-linecap="round" stroke-linejoin="round" stroke-width="1"/>
    </clipPath>
    <clipPath id="clip-path-4">
      <path id="Path_13517" data-name="Path 13517" d="M147.421,164.526a33.329,33.329,0,0,0-3.921,4.032c-.577,1.037-7.6,11.046-7.714,18.2s5.192,28.794,5.192,28.794L133,235.848l2.307.921,2.3-2.535v3.8s2.651,2.418,9.561,4.719,15.784-.344,15.784-.344l2.645-16.839v16.612l3.111-2.074.252-27.665s2.535-14.857,2.535-19.024-7.027-17.183-10.138-20.963-8.3-6.91-9.819-8.064S147.421,164.526,147.421,164.526Z" transform="translate(-133 -163.916)" fill="#263238" stroke="#263238" stroke-linecap="round" stroke-linejoin="round" stroke-width="1"/>
    </clipPath>
    <clipPath id="clip-path-5">
      <path id="Path_13525" data-name="Path 13525" d="M173.987,128.624s2.8,2.148,3.148,4.222-.693,4.382-.577,5.186,2.185,2.651,2.074,3.572-1.841,1.264-1.841,1.264-1.878,6.836-2.338,7.978-2.768.8-4.492.577l-3.111,9.205-10.261-12.071,1.614-4.842s-4.376-5.3-4.725-10.942,4.148-9.561,10.6-10.365,11.869,2.3,12.556,3.572S173.987,128.624,173.987,128.624Z" transform="translate(-153.459 -122.276)" fill="#fff" stroke="#263238" stroke-linecap="round" stroke-linejoin="round" stroke-width="1"/>
    </clipPath>
    <clipPath id="clip-path-6">
      <path id="Path_13535" data-name="Path 13535" d="M216.768,237.489s3.928-2.209,4.541-2.209,4.173,3.191,4.173,3.191l-1.473,2.209s4.664,2.332,4.173,3.191a6.564,6.564,0,0,1-4.3,2.455c-1.964.245-7.487-3.314-7.487-3.314Z" transform="translate(-216.4 -235.28)" fill="#fff" stroke="#263238" stroke-linecap="round" stroke-linejoin="round" stroke-width="1"/>
    </clipPath>
    <clipPath id="clip-path-7">
      <path id="Path_13540" data-name="Path 13540" d="M145.247,181.48s-3.314,6.382-3.682,9.573,13.133,28.6,14.115,29.457,29.7,1.718,29.7,1.718l1.227-6.259-24.547-7-8.346-25.652" transform="translate(-141.558 -181.48)" fill="#263238" stroke="#263238" stroke-linecap="round" stroke-linejoin="round" stroke-width="1"/>
    </clipPath>
    <clipPath id="clip-path-8">
      <path id="Path_13561" data-name="Path 13561" d="M300.28,174.234a22.8,22.8,0,0,0-2.05-3.228,12.272,12.272,0,0,0-3.032-2.252c-3.9-1.54-9.009.693-11.973,3.516a101,101,0,0,0-4.952,13.7,60.509,60.509,0,0,0-1.368,13.894s5.186-6.652,12.224-14.477A93.334,93.334,0,0,1,300.605,174.6Z" transform="translate(-276.897 -168.251)" fill="#263238" stroke="#263238" stroke-linecap="round" stroke-linejoin="round" stroke-width="1"/>
    </clipPath>
    <clipPath id="clip-path-9">
      <path id="Path_13572" data-name="Path 13572" d="M271.881,131.844s-2.35,6.677-2.129,7.634.442,2.418.442,2.418-3.682,4.547-3.228,5.063a8.372,8.372,0,0,0,2.492,1.1s1.688,7.045,2.35,7.7,4.768-.8,4.768-.8l4.4,5.572L290,151.874l-1.1-4.547s4.768-8.364,4.695-12.329-8.211-9.242-14.01-9.168-11.224,2.2-10.126,3.743A8.309,8.309,0,0,0,271.881,131.844Z" transform="translate(-266.927 -125.829)" fill="#fff" stroke="#263238" stroke-linecap="round" stroke-linejoin="round" stroke-width="1"/>
    </clipPath>
  </defs>
  <g id="welcome_illustration" transform="translate(-44.918 -62)">
    <g id="freepik--background-simple--inject-46" transform="translate(73.622 62)">
      <path id="Path_13459" data-name="Path 13459" d="M116.379,98.14s-29.622,28.07-23.97,67.014S132.721,234.174,160,259.2s66,28.462,93.936,9.31,12.844-43.375,28.628-77.907,26.075-41.847,17.606-77.581S241,54.709,190.542,64.154,116.379,98.14,116.379,98.14Z" transform="translate(-91.692 -62)" fill="#14ac63"/>
      <path id="Path_13460" data-name="Path 13460" d="M116.379,98.14s-29.622,28.07-23.97,67.014S132.721,234.174,160,259.2s66,28.462,93.936,9.31,12.844-43.375,28.628-77.907,26.075-41.847,17.606-77.581S241,54.709,190.542,64.154,116.379,98.14,116.379,98.14Z" transform="translate(-91.692 -62)" fill="#fff" opacity="0.7"/>
    </g>
    <g id="freepik--Window--inject-46" transform="translate(181.629 85.676)">
      <path id="Path_13461" data-name="Path 13461" d="M312.01,107.042H267.69l.448-6.462h44.32Z" transform="translate(-267.69 -100.58)" fill="rgba(20,172,99,0.3)"/>
      <path id="Path_13462" data-name="Path 13462" d="M312.01,121.792H267.69l.448-6.462h44.32Z" transform="translate(-267.69 -106.278)" fill="rgba(20,172,99,0.3)"/>
      <path id="Path_13463" data-name="Path 13463" d="M312.01,136.548H267.69l.448-6.468h44.32Z" transform="translate(-267.69 -111.976)" fill="rgba(20,172,99,0.3)"/>
      <path id="Path_13464" data-name="Path 13464" d="M312.01,151.3H267.69l.448-6.468h44.32Z" transform="translate(-267.69 -117.675)" fill="rgba(20,172,99,0.3)"/>
      <path id="Path_13465" data-name="Path 13465" d="M312.01,166.048H267.69l.448-6.468h44.32Z" transform="translate(-267.69 -123.373)" fill="rgba(20,172,99,0.3)"/>
      <path id="Path_13466" data-name="Path 13466" d="M312.01,180.8H267.69l.448-6.462h44.32Z" transform="translate(-267.69 -129.075)" fill="rgba(20,172,99,0.3)"/>
      <path id="Path_13467" data-name="Path 13467" d="M312.01,195.552H267.69l.448-6.462h44.32Z" transform="translate(-267.69 -134.773)" fill="rgba(20,172,99,0.3)"/>
      <path id="Path_13468" data-name="Path 13468" d="M312.01,210.308H267.69l.448-6.468h44.32Z" transform="translate(-267.69 -140.471)" fill="rgba(20,172,99,0.3)"/>
      <path id="Path_13469" data-name="Path 13469" d="M312.01,225.058H267.69l.448-6.468h44.32Z" transform="translate(-267.69 -146.17)" fill="rgba(20,172,99,0.3)"/>
      <path id="Path_13470" data-name="Path 13470" d="M312.01,239.808H267.69l.448-6.468h44.32Z" transform="translate(-267.69 -151.868)" fill="rgba(20,172,99,0.3)"/>
      <path id="Path_13471" data-name="Path 13471" d="M312.01,254.558H267.69l.448-6.468h44.32Z" transform="translate(-267.69 -157.566)" fill="rgba(20,172,99,0.3)"/>
      <path id="Path_13472" data-name="Path 13472" d="M388.376,107.042H344.05l.448-6.462h44.326Z" transform="translate(-297.189 -100.58)" fill="rgba(20,172,99,0.3)"/>
      <path id="Path_13473" data-name="Path 13473" d="M388.376,121.792H344.05l.448-6.462h44.326Z" transform="translate(-297.189 -106.278)" fill="rgba(20,172,99,0.3)"/>
      <path id="Path_13474" data-name="Path 13474" d="M388.376,136.548H344.05l.448-6.468h44.326Z" transform="translate(-297.189 -111.976)" fill="rgba(20,172,99,0.3)"/>
      <path id="Path_13475" data-name="Path 13475" d="M388.376,151.3H344.05l.448-6.468h44.326Z" transform="translate(-297.189 -117.675)" fill="rgba(20,172,99,0.3)"/>
      <path id="Path_13476" data-name="Path 13476" d="M388.376,166.048H344.05l.448-6.468h44.326Z" transform="translate(-297.189 -123.373)" fill="rgba(20,172,99,0.3)"/>
      <path id="Path_13477" data-name="Path 13477" d="M388.376,180.8H344.05l.448-6.462h44.326Z" transform="translate(-297.189 -129.075)" fill="rgba(20,172,99,0.3)"/>
      <path id="Path_13478" data-name="Path 13478" d="M388.376,195.552H344.05l.448-6.462h44.326Z" transform="translate(-297.189 -134.773)" fill="rgba(20,172,99,0.3)"/>
      <path id="Path_13479" data-name="Path 13479" d="M388.376,210.308H344.05l.448-6.468h44.326Z" transform="translate(-297.189 -140.471)" fill="rgba(20,172,99,0.3)"/>
      <path id="Path_13480" data-name="Path 13480" d="M388.376,225.058H344.05l.448-6.468h44.326Z" transform="translate(-297.189 -146.17)" fill="rgba(20,172,99,0.3)"/>
      <path id="Path_13481" data-name="Path 13481" d="M388.376,239.808H344.05l.448-6.468h44.326Z" transform="translate(-297.189 -151.868)" fill="rgba(20,172,99,0.3)"/>
      <path id="Path_13482" data-name="Path 13482" d="M388.376,254.558H344.05l.448-6.468h44.326Z" transform="translate(-297.189 -157.566)" fill="rgba(20,172,99,0.3)"/>
    </g>
    <g id="freepik--Picture--inject-46" transform="translate(83.839 85.32)">
      <rect id="Rectangle_1696" data-name="Rectangle 1696" width="91.573" height="78.563" transform="translate(0)" fill="#14ac63"/>
      <rect id="Rectangle_1697" data-name="Rectangle 1697" width="82.411" height="70.708" transform="translate(4.578 3.928)" fill="#fff"/>
      <g id="Group_2040" data-name="Group 2040" transform="translate(4.578 3.928)" clip-path="url(#clip-path)">
        <path id="Path_13483" data-name="Path 13483" d="M198.211,141.33c-14.82,10.543-36.048,17.539-60.674,28.53a101.442,101.442,0,0,0-21.737,13v7.751h82.411Z" transform="translate(-115.8 -119.894)" fill="#14ac63"/>
        <path id="Path_13484" data-name="Path 13484" d="M214.393,106.4H181.322c-3.682,3.148-8.033,6.665-13.176,10.433-18.822,13.8-10.666,27.616,11.924,17.563,11.592-5.149,24.5-17.073,34.323-27.462Z" transform="translate(-131.982 -106.4)" fill="#14ac63"/>
        <path id="Path_13485" data-name="Path 13485" d="M130.057,117.642c0-5.762-7.174-1.227-14.207,4.566v14.55C122.693,130.044,130.057,122.8,130.057,117.642Z" transform="translate(-115.819 -109.713)" fill="#14ac63"/>
        <path id="Path_13486" data-name="Path 13486" d="M141.9,152.491a6.591,6.591,0,1,1-6.591-6.591A6.591,6.591,0,0,1,141.9,152.491Z" transform="translate(-120.791 -121.66)" fill="#14ac63"/>
        <path id="Path_13487" data-name="Path 13487" d="M198.211,141.33c-14.82,10.543-36.048,17.539-60.674,28.53a101.442,101.442,0,0,0-21.737,13v7.751h82.411Z" transform="translate(-115.8 -119.894)" fill="#fff" opacity="0.75"/>
        <path id="Path_13488" data-name="Path 13488" d="M214.393,106.4H181.322c-3.682,3.148-8.033,6.665-13.176,10.433-18.822,13.8-10.666,27.616,11.924,17.563,11.592-5.149,24.5-17.073,34.323-27.462Z" transform="translate(-131.982 -106.4)" fill="#fff" opacity="0.75"/>
        <g id="Group_2039" data-name="Group 2039" transform="translate(0.031 5.263)" opacity="0.75">
          <path id="Path_13489" data-name="Path 13489" d="M130.057,117.642c0-5.762-7.174-1.227-14.207,4.566v14.55C122.693,130.044,130.057,122.8,130.057,117.642Z" transform="translate(-115.85 -114.976)" fill="#fff"/>
        </g>
        <path id="Path_13490" data-name="Path 13490" d="M141.9,152.491a6.591,6.591,0,1,1-6.591-6.591A6.591,6.591,0,0,1,141.9,152.491Z" transform="translate(-120.791 -121.66)" fill="#fff" opacity="0.75"/>
      </g>
      <path id="Path_13491" data-name="Path 13491" d="M215.816,185.358a8.788,8.788,0,1,1-8.782-8.788A8.788,8.788,0,0,1,215.816,185.358Z" transform="translate(-143.07 -129.581)" fill="#fff"/>
    </g>
    <g id="freepik--Plants--inject-46" transform="translate(242.518 198.476)">
      <path id="Path_13492" data-name="Path 13492" d="M404.854,333.171a13.82,13.82,0,0,0-3.117,6.48l-6.253,3.5V326.587l.123.166,9.96-7.291a17.592,17.592,0,0,0,10.5-1.626c5.118-2.755,8.855-12.194,8.855-12.194s-12.2-1.381-16.33,3.737a14.176,14.176,0,0,0-3.388,9.537l-9.721,7.113V313.785a13.538,13.538,0,0,0,7.407-8.941c1.767-6.885-7.671-20.454-7.671-20.454s-9.819,13.967-7.874,21.049a11.809,11.809,0,0,0,7.481,8.34v26.542l-7-5.848a13.182,13.182,0,0,0-3.608-10.156c-4.725-5.314-17.312-4.909-17.312-4.909s5.308,10.623,9.819,14.164c3.952,3.068,9.408,1.841,10.721,1.467l7.364,6.137v8.07H383.86l4.474,27.959h13.421l4.486-27.953H395.483v-5.339l6.873-3.854a15.559,15.559,0,0,0,10.758-.785c5.523-2.755,10.034-8.659,10.034-8.659S409.972,327.268,404.854,333.171Z" transform="translate(-366.91 -284.39)" fill="#14ac63"/>
      <path id="Path_13493" data-name="Path 13493" d="M404.854,333.171a13.82,13.82,0,0,0-3.117,6.48l-6.253,3.5V326.587l.123.166,9.96-7.291a17.592,17.592,0,0,0,10.5-1.626c5.118-2.755,8.855-12.194,8.855-12.194s-12.2-1.381-16.33,3.737a14.176,14.176,0,0,0-3.388,9.537l-9.721,7.113V313.785a13.538,13.538,0,0,0,7.407-8.941c1.767-6.885-7.671-20.454-7.671-20.454s-9.819,13.967-7.874,21.049a11.809,11.809,0,0,0,7.481,8.34v26.542l-7-5.848a13.182,13.182,0,0,0-3.608-10.156c-4.725-5.314-17.312-4.909-17.312-4.909s5.308,10.623,9.819,14.164c3.952,3.068,9.408,1.841,10.721,1.467l7.364,6.137v8.07H383.86l4.474,27.959h13.421l4.486-27.953H395.483v-5.339l6.873-3.854a15.559,15.559,0,0,0,10.758-.785c5.523-2.755,10.034-8.659,10.034-8.659S409.972,327.268,404.854,333.171Z" transform="translate(-366.91 -284.39)" fill="#fff" opacity="0.5"/>
    </g>
    <g id="freepik--Desk--inject-46" transform="translate(44.918 162.77)">
      <path id="Path_13494" data-name="Path 13494" d="M387.34,226.221l-18.061.153s-1.227-.153-1.491.743c0,0-3.136,7.916-3.283,10.752s.614,2.387-.614,6.137-4.627,12.537-6.566,19.705c-2.608,9.629-3.289,19.853-3.455,29.794,0,1.6-.982,15.342,1.5,15.342,2.062,0,21.068,2.522,21.295-1.141.914-14.606-1.724-28.874,3.345-43.074,1.97-5.523,4.228-11.341,5.9-17.109s1.964-11.77,3.068-17.674C389.727,225.773,387.34,226.221,387.34,226.221Z" transform="translate(-164.199 -226.206)" fill="#263238"/>
      <path id="Path_13495" data-name="Path 13495" d="M395.914,228.013c-.178-2.087-1.774-1.792-1.774-1.792l-18.061.153s-1.227-.153-1.491.743c0,0-3.136,7.916-3.283,10.752a13.007,13.007,0,0,0,.061,2.246l.38.614s.614,5.222,7.763,5.523,11.2-2.989,12.691-6.137,2.093-8.211,3.283-11.2A9.909,9.909,0,0,1,395.914,228.013Z" transform="translate(-171 -226.206)" fill="#14ac63"/>
      <path id="Path_13496" data-name="Path 13496" d="M398.26,233.906c-1.227,4.363-.485,5.572-1.694,13.084s-5.572,15.956-7.272,23.743-.964,35.127-.724,36.342a10.5,10.5,0,0,1,.1,1.945c.816-.307,1.307-.724,1.344-1.295.914-14.606-1.724-28.874,3.345-43.074,1.97-5.523,4.228-11.341,5.9-17.109s1.964-11.77,3.068-17.674c.46-2.455-.264-3.259-.9-3.5h0A32.526,32.526,0,0,0,398.26,233.906Z" transform="translate(-177.537 -226.27)" fill="#14ac63"/>
      <path id="Path_13497" data-name="Path 13497" d="M331.572,400.892l-.123-.1V383.93h2.424V373.27h-8.96v10.66h2.418v17.152l-21.442,6.836v1.694a1.939,1.939,0,0,0,3.878,0v-.239l17.932-2.087v2.571a1.694,1.694,0,1,0,3.388,0V407.2l18.656,2.172v.239a1.939,1.939,0,1,0,3.878,0v-1.694Z" transform="translate(-145.737 -283.02)" fill="#263238"/>
      <rect id="Rectangle_1699" data-name="Rectangle 1699" width="58.158" height="12.366" rx="4" transform="translate(155.698 79.854)" fill="#263238"/>
      <path id="Path_13498" data-name="Path 13498" d="M46.725,226.221l18.061.153s1.227-.153,1.5.743c0,0,3.136,7.916,3.283,10.752s-.614,2.387.614,6.137,4.627,12.537,6.566,19.705c2.614,9.629,3.289,19.853,3.455,29.794,0,1.6.982,15.342-1.5,15.342-2.056,0-21.061,2.522-21.295-1.141-.908-14.606,1.724-28.874-3.345-43.074-1.97-5.523-4.228-11.341-5.9-17.109s-1.964-11.77-3.068-17.674C44.369,225.773,46.725,226.221,46.725,226.221Z" transform="translate(-44.932 -226.206)" fill="#263238"/>
      <path id="Path_13499" data-name="Path 13499" d="M45,228.013c.178-2.087,1.767-1.792,1.767-1.792l18.061.153s1.227-.153,1.5.743c0,0,3.136,7.916,3.283,10.752a13.5,13.5,0,0,1-.068,2.246l-.38.614s-.614,5.222-7.763,5.523-11.218-2.989-12.715-6.143S46.6,231.9,45.4,228.909A8.433,8.433,0,0,0,45,228.013Z" transform="translate(-44.95 -226.206)" fill="#14ac63"/>
      <path id="Path_13500" data-name="Path 13500" d="M49.129,233.906c1.227,4.363.485,5.572,1.694,13.084s5.578,15.956,7.272,23.743.988,35.127.724,36.342a11.047,11.047,0,0,0-.1,1.945c-.81-.307-1.307-.724-1.344-1.295-.908-14.606,1.724-28.874-3.345-43.074-1.97-5.523-4.228-11.341-5.9-17.109s-1.964-11.77-3.068-17.674c-.454-2.455.27-3.259.9-3.5h0a32.218,32.218,0,0,1,3.173,7.536Z" transform="translate(-44.918 -226.27)" fill="#14ac63"/>
      <path id="Path_13501" data-name="Path 13501" d="M94.744,400.892l.123-.1V383.93H92.412V373.27h8.966v10.66H98.953v17.152l21.442,6.836v1.694a1.939,1.939,0,0,1-3.878,0v-.239l-17.864-2.087v2.571a1.7,1.7,0,0,1-3.394,0V407.2l-18.7,2.172v.239a1.939,1.939,0,1,1-3.872,0v-1.694Z" transform="translate(-55.645 -283.02)" fill="#263238"/>
      <rect id="Rectangle_1700" data-name="Rectangle 1700" width="58.158" height="12.366" rx="4" transform="translate(69.236 92.214) rotate(180)" fill="#263238"/>
      <rect id="Rectangle_1701" data-name="Rectangle 1701" width="145.81" height="83.804" transform="translate(54.913 45.126)" fill="#ccc"/>
      <rect id="Rectangle_1702" data-name="Rectangle 1702" width="145.626" height="2.32" transform="translate(54.987 47.139)" fill="#263238"/>
      <rect id="Rectangle_1703" data-name="Rectangle 1703" width="150.137" height="3.664" transform="translate(51.667 43.751)" fill="#ccc"/>
    </g>
    <g id="freepik--Characters--inject-46" transform="translate(98.972 98.989)">
      <path id="Path_13502" data-name="Path 13502" d="M193.577,285.64s1.718,7.677,1.62,9.819-4.142,7.88-4.247,6.566a8.96,8.96,0,0,1,.712-3.234s-1.418,1.921-1.921,1.841.405-2.731.405-2.731-1.516,1.516-2.025,1.227,1.111-2.528,1.111-2.528-1.841,1.921-1.915,1.313,1.614-3.13,1.614-3.13a24.388,24.388,0,0,1-1.841-5.155A4.909,4.909,0,0,1,188.1,286.7Z" transform="translate(-153.896 -185.386)" fill="#fff"/>
      <g id="Group_2041" data-name="Group 2041" transform="translate(33.194 100.254)" clip-path="url(#clip-path-2)">
        <path id="Path_13503" data-name="Path 13503" d="M193.577,285.64s1.718,7.677,1.62,9.819-4.142,7.88-4.247,6.566a8.96,8.96,0,0,1,.712-3.234s-1.418,1.921-1.921,1.841.405-2.731.405-2.731-1.516,1.516-2.025,1.227,1.111-2.528,1.111-2.528-1.841,1.921-1.915,1.313,1.614-3.13,1.614-3.13a24.388,24.388,0,0,1-1.841-5.155A4.909,4.909,0,0,1,188.1,286.7Z" transform="translate(-187.09 -285.64)" fill="#d9d9d9"/>
      </g>
      <path id="Path_13505" data-name="Path 13505" d="M193.577,285.64s1.718,7.677,1.62,9.819-4.142,7.88-4.247,6.566a8.96,8.96,0,0,1,.712-3.234s-1.418,1.921-1.921,1.841.405-2.731.405-2.731-1.516,1.516-2.025,1.227,1.111-2.528,1.111-2.528-1.841,1.921-1.915,1.313,1.614-3.13,1.614-3.13a24.388,24.388,0,0,1-1.841-5.155A4.909,4.909,0,0,1,188.1,286.7Z" transform="translate(-153.896 -185.386)" fill="none" stroke="#263238" stroke-linecap="round" stroke-linejoin="round" stroke-width="1"/>
      <path id="Path_13506" data-name="Path 13506" d="M193.747,285.64s1.227,5.357,1.117,6.873-1.62,5.959-2.731,5.149.706-3.835.706-3.835-3.117-2.191-3.835-4.247-.307-2.927-.307-2.927Z" transform="translate(-154.471 -185.386)" fill="#fff"/>
      <g id="Group_2042" data-name="Group 2042" transform="translate(34.108 100.254)" clip-path="url(#clip-path-3)">
        <path id="Path_13507" data-name="Path 13507" d="M193.747,285.64s1.227,5.357,1.117,6.873-1.62,5.959-2.731,5.149.706-3.835.706-3.835-3.117-2.191-3.835-4.247-.307-2.927-.307-2.927Z" transform="translate(-188.579 -285.64)" fill="#d9d9d9"/>
      </g>
      <path id="Path_13509" data-name="Path 13509" d="M193.747,285.64s1.227,5.357,1.117,6.873-1.62,5.959-2.731,5.149.706-3.835.706-3.835-3.117-2.191-3.835-4.247-.307-2.927-.307-2.927Z" transform="translate(-154.471 -185.386)" fill="none" stroke="#263238" stroke-linecap="round" stroke-linejoin="round" stroke-width="1"/>
      <path id="Path_13510" data-name="Path 13510" d="M186.044,244.73l4.3,25.621-6.063,1.369-6.063-19.754Z" transform="translate(-150.469 -169.581)" fill="#263238" stroke="#263238" stroke-linecap="round" stroke-linejoin="round" stroke-width="1"/>
      <path id="Path_13511" data-name="Path 13511" d="M168.725,260.691s.393,30.512.976,38.729-1.565,19.171-3.516,22.3-10.568,22.706-10.175,23.866,2.154,4.695,2.154,5.67v4.106s9.776,6.456,10.561,6.456,1.761,1.565-.2,2.743-23.866,1.172-24.842.387a4.738,4.738,0,0,1-1.368-2.148s-3.13,1.172-2.933-1.761,3.713-15.452,3.713-15.452-2.148-13.7-1.368-22.5,3.523-19.368,3.523-21.516-2.737-16.434-3.13-18.779-6.063-9-3.523-14.28,4.5-13.7,5.284-14.28,11.347-.982,15.649,0S168.528,255.21,168.725,260.691Z" transform="translate(-134.911 -173.023)" fill="#263238" stroke="#263238" stroke-linecap="round" stroke-linejoin="round" stroke-width="1"/>
      <path id="Path_13512" data-name="Path 13512" d="M147.421,164.526a33.329,33.329,0,0,0-3.921,4.032c-.577,1.037-7.6,11.046-7.714,18.2s5.192,28.794,5.192,28.794L133,235.848l2.307.921,2.3-2.535v3.8s2.651,2.418,9.561,4.719,15.784-.344,15.784-.344l2.645-16.839v16.612l3.111-2.074.252-27.665s2.535-14.857,2.535-19.024-7.027-17.183-10.138-20.963-8.3-6.91-9.819-8.064S147.421,164.526,147.421,164.526Z" transform="translate(-133 -138.361)" fill="#263238"/>
      <g id="Group_2043" data-name="Group 2043" transform="translate(0 25.555)" clip-path="url(#clip-path-4)">
        <path id="Path_13513" data-name="Path 13513" d="M147.421,164.526a33.329,33.329,0,0,0-3.921,4.032c-.577,1.037-7.6,11.046-7.714,18.2s5.192,28.794,5.192,28.794L133,235.848l2.307.921,2.3-2.535v3.8s2.651,2.418,9.561,4.719,15.784-.344,15.784-.344l2.645-16.839v16.612l3.111-2.074.252-27.665s2.535-14.857,2.535-19.024-7.027-17.183-10.138-20.963-8.3-6.91-9.819-8.064S147.421,164.526,147.421,164.526Z" transform="translate(-133 -163.916)" fill="#fff" opacity="0.17"/>
        <path id="Path_13514" data-name="Path 13514" d="M140.46,204.88a41.3,41.3,0,0,0,6.971,4.007" transform="translate(-135.882 -179.741)" fill="none" stroke="#263238" stroke-linecap="round" stroke-linejoin="round" stroke-width="1"/>
        <path id="Path_13515" data-name="Path 13515" d="M142.45,210a39.911,39.911,0,0,0,7.143,1.227" transform="translate(-136.651 -181.719)" fill="none" stroke="#263238" stroke-linecap="round" stroke-linejoin="round" stroke-width="1"/>
        <path id="Path_13516" data-name="Path 13516" d="M153.53,255.42l13.243,1.571-.871,2.786-12.2-1.393" transform="translate(-140.931 -199.266)" fill="none" stroke="#263238" stroke-linecap="round" stroke-linejoin="round" stroke-width="1"/>
      </g>
      <path id="Path_13518" data-name="Path 13518" d="M147.421,164.526a33.329,33.329,0,0,0-3.921,4.032c-.577,1.037-7.6,11.046-7.714,18.2s5.192,28.794,5.192,28.794L133,235.848l2.307.921,2.3-2.535v3.8s2.651,2.418,9.561,4.719,15.784-.344,15.784-.344l2.645-16.839v16.612l3.111-2.074.252-27.665s2.535-14.857,2.535-19.024-7.027-17.183-10.138-20.963-8.3-6.91-9.819-8.064S147.421,164.526,147.421,164.526Z" transform="translate(-133 -138.361)" fill="none" stroke="#263238" stroke-linecap="round" stroke-linejoin="round" stroke-width="1"/>
      <path id="Path_13519" data-name="Path 13519" d="M155.37,166l12.789,13.826,7.487,14.286s-1.614-10.6-2.995-13.5-7.6-10.1-8.3-11.709S155.37,166,155.37,166Z" transform="translate(-141.642 -139.166)" fill="#fff" stroke="#263238" stroke-linecap="round" stroke-linejoin="round" stroke-width="1"/>
      <path id="Path_13520" data-name="Path 13520" d="M179.627,193.25l3.541,6.75s-1.1-7.223-2.264-11.365l-.73-2.117a38.35,38.35,0,0,0-3.326-4.909l-2.007-.4.841,4.517,2.59,2.117Z" transform="translate(-149.164 -145.042)" fill="#263238" stroke="#263238" stroke-linecap="round" stroke-linejoin="round" stroke-width="1"/>
      <path id="Path_13521" data-name="Path 13521" d="M176.222,174.49l.663.767,2.08,2.455,1.227,6.235-5.333-5.321A18.029,18.029,0,0,1,176.222,174.49Z" transform="translate(-149.171 -142.446)" fill="#fff" stroke="#263238" stroke-linecap="round" stroke-linejoin="round" stroke-width="1"/>
      <path id="Path_13522" data-name="Path 13522" d="M173.987,128.624s2.8,2.148,3.148,4.222-.693,4.382-.577,5.186,2.185,2.651,2.074,3.572-1.841,1.264-1.841,1.264-1.878,6.836-2.338,7.978-2.768.8-4.492.577l-3.111,9.205-10.261-12.071,1.614-4.842s-4.376-5.3-4.725-10.942,4.148-9.561,10.6-10.365,11.869,2.3,12.556,3.572S173.987,128.624,173.987,128.624Z" transform="translate(-140.904 -122.275)" fill="#fff"/>
      <g id="Group_2044" data-name="Group 2044" transform="translate(12.555 0.001)" clip-path="url(#clip-path-5)">
        <path id="Path_13523" data-name="Path 13523" d="M173.987,128.624s2.8,2.148,3.148,4.222-.693,4.382-.577,5.186,2.185,2.651,2.074,3.572-1.841,1.264-1.841,1.264-1.878,6.836-2.338,7.978-2.768.8-4.492.577l-3.111,9.205-10.261-12.071,1.614-4.842s-4.376-5.3-4.725-10.942,4.148-9.561,10.6-10.365,11.869,2.3,12.556,3.572S173.987,128.624,173.987,128.624Z" transform="translate(-153.459 -122.276)" fill="#d9d9d9"/>
        <path id="Path_13524" data-name="Path 13524" d="M162.018,157.1c1.731-.35,4.633-.951,7.248-1.54l.675-2c1.436.19,3.277.46,4.112-.123-1.964-.81-6.824-2.228-7.818-4.05-1.227-2.264,3.068-8.855,3.068-12.151s-4.118-7-4.118-7c-1.982-1.884-5.6-2.455-8.806-2.455a8.64,8.64,0,0,0-2.933,7.149c.35,5.646,4.725,10.942,4.725,10.942l-1.614,4.842Z" transform="translate(-153.444 -124.403)" fill="#b8b8b8"/>
      </g>
      <path id="Path_13526" data-name="Path 13526" d="M173.987,128.624s2.8,2.148,3.148,4.222-.693,4.382-.577,5.186,2.185,2.651,2.074,3.572-1.841,1.264-1.841,1.264-1.878,6.836-2.338,7.978-2.768.8-4.492.577l-3.111,9.205-10.261-12.071,1.614-4.842s-4.376-5.3-4.725-10.942,4.148-9.561,10.6-10.365,11.869,2.3,12.556,3.572S173.987,128.624,173.987,128.624Z" transform="translate(-140.904 -122.275)" fill="none" stroke="#263238" stroke-linecap="round" stroke-linejoin="round" stroke-width="1"/>
      <path id="Path_13527" data-name="Path 13527" d="M173.988,128.623s3.338-1.381,2.645-2.645-6.106-4.382-12.556-3.572-10.942,4.719-10.6,10.365,4.725,10.942,4.725,10.942l-.245.736c2.387,1.166,4.854-.736,4.854-.736a2.375,2.375,0,0,1-2.768-.46c-1.381-1.264-1.5-5.3.233-5.646s2.878.35,2.878,1.614.344.46,1.27.344.11-2.878.687-3.338a9.015,9.015,0,0,0,2.418-2.191c1.037-1.381-1.958-2.528-2.3-3.8S173.988,128.623,173.988,128.623Z" transform="translate(-140.904 -122.274)" fill="#263238" stroke="#263238" stroke-linecap="round" stroke-linejoin="round" stroke-width="1"/>
      <path id="Path_13528" data-name="Path 13528" d="M186.906,147.28l-2.136.712H186.7" transform="translate(-153 -131.934)" fill="none" stroke="#263238" stroke-linecap="round" stroke-linejoin="round" stroke-width="1"/>
      <path id="Path_13529" data-name="Path 13529" d="M187.66,143.251s-.914-1.319-1.933-.712-1.117,1.019-1.117,1.019" transform="translate(-152.938 -130.041)" fill="none" stroke="#263238" stroke-linecap="round" stroke-linejoin="round" stroke-width="1"/>
      <path id="Path_13530" data-name="Path 13530" d="M186,158.88a3,3,0,0,0,2.136.491" transform="translate(-153.475 -136.416)" fill="none" stroke="#263238" stroke-linecap="round" stroke-linejoin="round" stroke-width="1"/>
      <path id="Path_13531" data-name="Path 13531" d="M156.578,161.53l12.9,12.672-1.148,5.413-13.71-14.747Z" transform="translate(-141.352 -137.439)" fill="#fff" stroke="#263238" stroke-linecap="round" stroke-linejoin="round" stroke-width="1"/>
      <path id="Path_13532" data-name="Path 13532" d="M230.587,238.925s-4.541-2.7-5.278-2.455-7.855,5.4-7.364,6.628,4.3,2.823,6.505,3.682,6.75-.982,6.75-.982Z" transform="translate(-165.807 -166.384)" fill="#fff" stroke="#263238" stroke-linecap="round" stroke-linejoin="round" stroke-width="1"/>
      <path id="Path_13533" data-name="Path 13533" d="M216.768,237.489s3.928-2.209,4.541-2.209,4.173,3.191,4.173,3.191l-1.473,2.209s4.664,2.332,4.173,3.191a6.564,6.564,0,0,1-4.3,2.455c-1.964.245-7.487-3.314-7.487-3.314Z" transform="translate(-165.219 -165.931)" fill="#fff"/>
      <g id="Group_2045" data-name="Group 2045" transform="translate(51.181 69.349)" clip-path="url(#clip-path-6)">
        <path id="Path_13534" data-name="Path 13534" d="M216.768,237.489s3.928-2.209,4.541-2.209,4.173,3.191,4.173,3.191l-1.473,2.209s4.664,2.332,4.173,3.191a6.564,6.564,0,0,1-4.3,2.455c-1.964.245-7.487-3.314-7.487-3.314Z" transform="translate(-216.4 -235.28)" fill="#d9d9d9"/>
      </g>
      <path id="Path_13536" data-name="Path 13536" d="M216.768,237.489s3.928-2.209,4.541-2.209,4.173,3.191,4.173,3.191l-1.473,2.209s4.664,2.332,4.173,3.191a6.564,6.564,0,0,1-4.3,2.455c-1.964.245-7.487-3.314-7.487-3.314Z" transform="translate(-165.219 -165.931)" fill="none" stroke="#263238" stroke-linecap="round" stroke-linejoin="round" stroke-width="1"/>
      <path id="Path_13537" data-name="Path 13537" d="M212.174,237.28l3.437.614-1.1,5.891-2.946-.982Z" transform="translate(-163.349 -166.703)" fill="#fff" stroke="#263238" stroke-linecap="round" stroke-linejoin="round" stroke-width="1"/>
      <path id="Path_13538" data-name="Path 13538" d="M145.247,181.48s-3.314,6.382-3.682,9.573,13.133,28.6,14.115,29.457,29.7,1.718,29.7,1.718l1.227-6.259-24.547-7-8.346-25.652" transform="translate(-136.306 -145.147)" fill="#263238"/>
      <g id="Group_2046" data-name="Group 2046" transform="translate(5.252 36.333)" clip-path="url(#clip-path-7)">
        <path id="Path_13539" data-name="Path 13539" d="M145.247,181.48s-3.314,6.382-3.682,9.573,13.133,28.6,14.115,29.457,29.7,1.718,29.7,1.718l1.227-6.259-24.547-7-8.346-25.652" transform="translate(-141.558 -181.48)" fill="#fff" opacity="0.17"/>
      </g>
      <path id="Path_13541" data-name="Path 13541" d="M145.247,181.48s-3.314,6.382-3.682,9.573,13.133,28.6,14.115,29.457,29.7,1.718,29.7,1.718l1.227-6.259-24.547-7-8.346-25.652" transform="translate(-136.306 -145.147)" fill="none" stroke="#263238" stroke-linecap="round" stroke-linejoin="round" stroke-width="1"/>
      <path id="Path_13542" data-name="Path 13542" d="M228.114,237.11s-1.718-1.473-2.332.245-4.419,5.891-2.7,6.014,4.909-3.437,4.909-3.437" transform="translate(-167.63 -166.411)" fill="#fff" stroke="#263238" stroke-linecap="round" stroke-linejoin="round" stroke-width="1"/>
      <path id="Path_13543" data-name="Path 13543" d="M219.1,248.326s-.442,2.068.614,2.946c.743.614,1.16-1.1.982-2.332S219.47,247.344,219.1,248.326Z" transform="translate(-166.228 -170.754)" fill="#fff" stroke="#263238" stroke-linecap="round" stroke-linejoin="round" stroke-width="1"/>
      <path id="Path_13544" data-name="Path 13544" d="M221.942,249.126s-.442,2.068.614,2.946c.743.614,1.16-1.1.982-2.332S222.286,248.144,221.942,249.126Z" transform="translate(-167.325 -171.063)" fill="#fff" stroke="#263238" stroke-linecap="round" stroke-linejoin="round" stroke-width="1"/>
      <path id="Path_13545" data-name="Path 13545" d="M224.7,250.326s-.442,2.068.614,2.946c.743.614,1.16-1.1.982-2.332S225.07,249.344,224.7,250.326Z" transform="translate(-168.391 -171.526)" fill="#fff" stroke="#263238" stroke-linecap="round" stroke-linejoin="round" stroke-width="1"/>
      <path id="Path_13546" data-name="Path 13546" d="M227.477,252.071s-.405,1.393.565,1.982c.681.417,1.068-.743.9-1.571S227.815,251.408,227.477,252.071Z" transform="translate(-169.466 -172.27)" fill="#fff" stroke="#263238" stroke-linecap="round" stroke-linejoin="round" stroke-width="1"/>
      <path id="Path_13547" data-name="Path 13547" d="M238.56,240.4l.368,7.855,2.7-.736-.614-7.241Z" transform="translate(-173.78 -167.862)" fill="none" stroke="#263238" stroke-linecap="round" stroke-linejoin="round" stroke-width="1"/>
      <path id="Path_13548" data-name="Path 13548" d="M241.56,236.112l1.227,9.328,20.5-2.209.491-12.151Z" transform="translate(-174.939 -164.308)" fill="#263238" stroke="#263238" stroke-linecap="round" stroke-linejoin="round" stroke-width="1"/>
      <path id="Path_13549" data-name="Path 13549" d="M176.966,299.87s-3.719,24.842-3.719,33.255-5.67,22.5-5.867,30.322" transform="translate(-146.282 -190.883)" fill="none" stroke="#fff" stroke-linecap="round" stroke-linejoin="round" stroke-width="1"/>
      <path id="Path_13550" data-name="Path 13550" d="M146.439,428.966c.976.785,22.884.785,24.842-.387s.976-2.743.2-2.743-10.561-6.456-10.561-6.456-5.284,4.112-8.217,5.087a35.02,35.02,0,0,1-7.628,1.172v1.178A4.738,4.738,0,0,0,146.439,428.966Z" transform="translate(-137.663 -237.052)" fill="#fff" stroke="#263238" stroke-linecap="round" stroke-linejoin="round" stroke-width="1"/>
      <path id="Path_13551" data-name="Path 13551" d="M171.388,433.2c1.031-.614,1.227-1.35,1.1-1.9a48.385,48.385,0,0,1-8.733.914c-5.91.16-15.207-.2-18.41-.338a4.4,4.4,0,0,0,1.227,1.706C147.522,434.368,169.431,434.368,171.388,433.2Z" transform="translate(-137.771 -241.657)" fill="#fff" stroke="#263238" stroke-linecap="round" stroke-linejoin="round" stroke-width="1"/>
      <path id="Path_13552" data-name="Path 13552" d="M142.647,420.837l.571-1.332L144,403.47s-3.523,12.519-3.713,15.452C140.137,421.058,141.757,421.015,142.647,420.837Z" transform="translate(-135.81 -230.906)" fill="#263238" stroke="#263238" stroke-linecap="round" stroke-linejoin="round" stroke-width="1"/>
      <path id="Path_13553" data-name="Path 13553" d="M281.264,291.9s-1.952,29.15,0,40.883,6.867,32.083,7.628,34.624a13.5,13.5,0,0,1,.614,4.695l10.954,1.565s-3.326-38.533-3.326-43.031,3.719-38.146,3.719-38.146Z" transform="translate(-189.942 -187.804)" fill="#263238" stroke="#263238" stroke-linecap="round" stroke-linejoin="round" stroke-width="1"/>
      <path id="Path_13554" data-name="Path 13554" d="M286.662,422.451s-11.93,5.087-13.3,6.063,2.94,2.35,8.217,2.35a105.135,105.135,0,0,0,10.568-.614l2.148-1.172.2,1.368h5.67s.982-4.695.614-5.867a21.643,21.643,0,0,0-.976-2.35Z" transform="translate(-187.123 -238.153)" fill="#263238" stroke="#263238" stroke-linecap="round" stroke-linejoin="round" stroke-width="1"/>
      <path id="Path_13555" data-name="Path 13555" d="M278.94,287.709s.982,27.971,3.326,37.95,6.456,34.231,6.456,36.772a14.969,14.969,0,0,1-.583,4.3l-.786,2.553a7.876,7.876,0,0,0,.614,1.761,47.971,47.971,0,0,0,8.407,1.172,22.092,22.092,0,0,0,6.137-.927s.1-6.137.3-9.052-.779-21.712-.779-26.21-1.178-7.045-1.178-12.519-.976-20.147-.779-22.5,2.933-4.909,3.523-7.824,1.172-6.063,1.172-6.063Z" transform="translate(-189.38 -185.958)" fill="#263238" stroke="#263238" stroke-linecap="round" stroke-linejoin="round" stroke-width="1"/>
      <path id="Path_13556" data-name="Path 13556" d="M282.76,336s5.468,37.931,6.836,40.325a6.971,6.971,0,0,1,.614,4.983" transform="translate(-190.855 -204.841)" fill="none" stroke="#fff" stroke-linecap="round" stroke-linejoin="round" stroke-width="1"/>
      <path id="Path_13557" data-name="Path 13557" d="M270.792,251.442s-.73,7.481-.73,13.2c0,3.191-.031,7.364-.061,10.383a5.351,5.351,0,0,0,4.3,5.284,20.513,20.513,0,0,0,3.909.473l-4.6-28.462S271.528,248.8,270.792,251.442Z" transform="translate(-185.926 -171.795)" fill="#263238" stroke="#263238" stroke-linecap="round" stroke-linejoin="round" stroke-width="1"/>
      <path id="Path_13558" data-name="Path 13558" d="M292.946,168.689a12.272,12.272,0,0,1,3.032,2.252,22.789,22.789,0,0,1,2.074,3.271s8.315,9.586,8.512,10.561-4.695,31.789-4.695,31.789l5.572,29.144s-9,4.989-15.845,5.284c-4.817.209-12.065-1.332-15.956-2.264a3.793,3.793,0,0,1-2.9-3.351c-.38-4.1-1.092-12.274-1.51-20.012-.479-8.99.884-26.8,1.841-33.059s4.013-14.765,6.358-18.288S288.233,166.848,292.946,168.689Z" transform="translate(-186.362 -140.014)" fill="#263238" stroke="#263238" stroke-linecap="round" stroke-linejoin="round" stroke-width="1"/>
      <path id="Path_13559" data-name="Path 13559" d="M300.28,174.234a22.8,22.8,0,0,0-2.05-3.228,12.272,12.272,0,0,0-3.032-2.252c-3.9-1.54-9.009.693-11.973,3.516a101,101,0,0,0-4.952,13.7,60.509,60.509,0,0,0-1.368,13.894s5.186-6.652,12.224-14.477A93.334,93.334,0,0,1,300.605,174.6Z" transform="translate(-188.59 -140.036)" fill="#263238"/>
      <g id="Group_2047" data-name="Group 2047" transform="translate(88.307 28.215)" clip-path="url(#clip-path-8)">
        <path id="Path_13560" data-name="Path 13560" d="M300.28,174.234a22.8,22.8,0,0,0-2.05-3.228,12.272,12.272,0,0,0-3.032-2.252c-3.9-1.54-9.009.693-11.973,3.516a101,101,0,0,0-4.952,13.7,60.509,60.509,0,0,0-1.368,13.894s5.186-6.652,12.224-14.477A93.334,93.334,0,0,1,300.605,174.6Z" transform="translate(-276.897 -168.251)" fill="#fff" opacity="0.17"/>
      </g>
      <path id="Path_13562" data-name="Path 13562" d="M300.28,174.234a22.8,22.8,0,0,0-2.05-3.228,12.272,12.272,0,0,0-3.032-2.252c-3.9-1.54-9.009.693-11.973,3.516a101,101,0,0,0-4.952,13.7,60.509,60.509,0,0,0-1.368,13.894s5.186-6.652,12.224-14.477A93.334,93.334,0,0,1,300.605,174.6Z" transform="translate(-188.59 -140.036)" fill="none" stroke="#263238" stroke-linecap="round" stroke-linejoin="round" stroke-width="1"/>
      <path id="Path_13563" data-name="Path 13563" d="M283.393,177.313s-2.645,8.291-3.449,10.635a24.783,24.783,0,0,0-.884,6.02s9.9-14.82,12.323-17.312,5.578-6.382,5.578-6.382l-2.129-.614Z" transform="translate(-189.426 -140.58)" fill="#fff" stroke="#263238" stroke-linecap="round" stroke-linejoin="round" stroke-width="1"/>
      <path id="Path_13564" data-name="Path 13564" d="M286.387,177.23s-1.172,3.449-1.172,3.682-.295,3.523-.295,3.523l4.179-5.652Z" transform="translate(-191.69 -143.505)" fill="#fff" stroke="#263238" stroke-linecap="round" stroke-linejoin="round" stroke-width="1"/>
      <path id="Path_13565" data-name="Path 13565" d="M297.439,166,286,175.316l1.761,5.13,11.734-11.954Z" transform="translate(-192.107 -139.166)" fill="#fff" stroke="#263238" stroke-linecap="round" stroke-linejoin="round" stroke-width="1"/>
      <path id="Path_13566" data-name="Path 13566" d="M300.716,286.4s-1.626,4.044-2.111,5.37-.239,6.517-.178,7.063,1.025.663,1.025.663.3,4.161.663,4.3a6.443,6.443,0,0,0,1.148.178s.663,2.117,1.51,1.933a1.375,1.375,0,0,0,.963-1.148,1.6,1.6,0,0,0,1.448-.663,7.854,7.854,0,0,0,.847-1.626s1.448-.724,1.565-1.27.485-2.455.485-2.455.423-.123.423-1.387-.963-9.052-.963-9.052Z" transform="translate(-196.863 -185.679)" fill="#fff" stroke="#263238" stroke-linecap="round" stroke-linejoin="round" stroke-width="1"/>
      <line id="Line_78" data-name="Line 78" y1="3.67" x2="0.178" transform="translate(102.589 110.147)" fill="none" stroke="#263238" stroke-linecap="round" stroke-linejoin="round" stroke-width="1"/>
      <line id="Line_79" data-name="Line 79" y1="5.431" x2="0.393" transform="translate(104.399 112.847)" fill="none" stroke="#263238" stroke-linecap="round" stroke-linejoin="round" stroke-width="1"/>
      <line id="Line_80" data-name="Line 80" y1="5.879" x2="0.282" transform="translate(106.872 113.184)" fill="none" stroke="#263238" stroke-linecap="round" stroke-linejoin="round" stroke-width="1"/>
      <line id="Line_81" data-name="Line 81" y1="4.093" x2="0.35" transform="translate(109.167 112.681)" fill="none" stroke="#263238" stroke-linecap="round" stroke-linejoin="round" stroke-width="1"/>
      <path id="Path_13567" data-name="Path 13567" d="M313.9,190.86l4.4,2.639-1.467,30.42-7.824,28.751-7.432-1.951,2.344-22.706-1.172-22.884s1.663-5.333,5.474-8.266" transform="translate(-198.126 -148.77)" fill="#263238" stroke="#263238" stroke-linecap="round" stroke-linejoin="round" stroke-width="1"/>
      <path id="Path_13568" data-name="Path 13568" d="M305.589,199.23a32.61,32.61,0,0,0-2.1,9.144" transform="translate(-198.864 -152.004)" fill="none" stroke="#fff" stroke-linecap="round" stroke-linejoin="round" stroke-width="1"/>
      <path id="Path_13569" data-name="Path 13569" d="M306.566,203.17s-3.424,5.591-3.424,8.119.9,23.627.9,23.627L301.7,253.13" transform="translate(-198.172 -153.526)" fill="none" stroke="#fff" stroke-linecap="round" stroke-linejoin="round" stroke-width="1"/>
      <path id="Path_13570" data-name="Path 13570" d="M271.881,131.844s-2.35,6.677-2.129,7.634.442,2.418.442,2.418-3.682,4.547-3.228,5.063a8.372,8.372,0,0,0,2.492,1.1s1.688,7.045,2.35,7.7,4.768-.8,4.768-.8l4.4,5.572L290,151.874l-1.1-4.547s4.768-8.364,4.695-12.329-8.211-9.242-14.01-9.168-11.224,2.2-10.126,3.743A8.309,8.309,0,0,0,271.881,131.844Z" transform="translate(-184.739 -123.647)" fill="#fff"/>
      <g id="Group_2048" data-name="Group 2048" transform="translate(82.188 2.181)" clip-path="url(#clip-path-9)">
        <path id="Path_13571" data-name="Path 13571" d="M294.251,133.3a12.887,12.887,0,0,0-3.246.921l-8.647,3.5s-4.118,3.5-3.682,6.174,4.118,6.382,3.3,9.058-5.971,5.56-5.971,5.56l1.614.061c1.227-.288,2.492-.736,2.492-.736l.675.853,8.334.3,4.412-4.234-1.1-4.547s4.768-8.364,4.695-12.329C297.074,136.424,295.945,134.785,294.251,133.3Z" transform="translate(-270.432 -128.715)" fill="#b8b8b8"/>
      </g>
      <path id="Path_13573" data-name="Path 13573" d="M271.881,131.844s-2.35,6.677-2.129,7.634.442,2.418.442,2.418-3.682,4.547-3.228,5.063a8.372,8.372,0,0,0,2.492,1.1s1.688,7.045,2.35,7.7,4.768-.8,4.768-.8l4.4,5.572L290,151.874l-1.1-4.547s4.768-8.364,4.695-12.329-8.211-9.242-14.01-9.168-11.224,2.2-10.126,3.743A8.309,8.309,0,0,0,271.881,131.844Z" transform="translate(-184.739 -123.647)" fill="none" stroke="#263238" stroke-linecap="round" stroke-linejoin="round" stroke-width="1"/>
      <path id="Path_13574" data-name="Path 13574" d="M290.4,147.327S295.17,138.962,295.1,135s-8.211-9.242-14.01-9.168-11.224,2.2-10.126,3.743a8.309,8.309,0,0,0,2.424,2.271s3.6,1.688,3.6,2.129-2.129,2.786-1.393,3.817,4.253,2.271,4.253,2.271-.614,1.982.295,2.2,1.319-.663,1.9-1.227,2.645-1.4,2.939,1.1a7.579,7.579,0,0,1-1.326,5.063c-.288.215,3.743,2.933,5.523,2.123.46-.209,1-.485,1.54-.773Z" transform="translate(-186.242 -123.647)" fill="#263238" stroke="#263238" stroke-linecap="round" stroke-linejoin="round" stroke-width="1"/>
      <ellipse id="Ellipse_84" data-name="Ellipse 84" cx="0.515" cy="1.982" rx="0.515" ry="1.982" transform="translate(86.038 16.119)" fill="none" stroke="#263238" stroke-linecap="round" stroke-linejoin="round" stroke-width="1"/>
      <line id="Line_82" data-name="Line 82" x2="8.653" y2="0.074" transform="translate(87.142 17.297)" fill="none" stroke="#263238" stroke-linecap="round" stroke-linejoin="round" stroke-width="1"/>
      <path id="Path_13575" data-name="Path 13575" d="M272.68,146.256s.822-1.313,1.645.325" transform="translate(-186.961 -131.347)" fill="none" stroke="#263238" stroke-linecap="round" stroke-linejoin="round" stroke-width="1"/>
      <path id="Path_13576" data-name="Path 13576" d="M272.41,163.069a9.262,9.262,0,0,0,2.455-1.479" transform="translate(-186.857 -137.463)" fill="none" stroke="#263238" stroke-linecap="round" stroke-linejoin="round" stroke-width="1"/>
    </g>
    <g id="freepik--Floor--inject-46" transform="translate(50.044 291.7)">
      <line id="Line_83" data-name="Line 83" x2="241.526" fill="none" stroke="#263238" stroke-miterlimit="10" stroke-width="2"/>
    </g>
  </g>
</svg>
