<svg id="work" xmlns="http://www.w3.org/2000/svg" width="20" height="20" viewBox="0 0 20 20">
  <path id="Path_1962" data-name="Path 1962" d="M0,0H20V20H0Z" fill="none"/>
  <path id="Path_1963" data-name="Path 1963" d="M17,5.333H13.667V3.667A1.661,1.661,0,0,0,12,2H8.667A1.661,1.661,0,0,0,7,3.667V5.333H3.667A1.654,1.654,0,0,0,2.008,7L2,16.167a1.661,1.661,0,0,0,1.667,1.667H17a1.661,1.661,0,0,0,1.667-1.667V7A1.661,1.661,0,0,0,17,5.333Zm-5,0H8.667V3.667H12Z" transform="translate(-0.333 -0.333)" fill="#14ac63"/>
</svg>
