<svg xmlns="http://www.w3.org/2000/svg" width="338.46" height="211.672" viewBox="0 0 338.46 211.672">
  <g id="illustration_one" transform="translate(-18.43 -229.266)">
    <path id="Path_3460" data-name="Path 3460" d="M388.959,204.569A116.979,116.979,0,1,0,179.729,276.5H364.246A116.478,116.478,0,0,0,388.959,204.569Z" transform="translate(-89.865 163.037)" fill="#ccc6d2" opacity="0.39"/>
    <rect id="Rectangle_1288" data-name="Rectangle 1288" width="44.936" height="14.603" rx="2.55" transform="translate(70.946 239.555)" fill="#ffc200"/>
    <line id="Line_16" data-name="Line 16" x2="28.82" transform="translate(77.616 244.566)" fill="none" stroke="#fdfcff" stroke-linecap="round" stroke-linejoin="round" stroke-width="1.94"/>
    <line id="Line_17" data-name="Line 17" x2="10.659" transform="translate(77.616 248.478)" fill="none" stroke="#fdfcff" stroke-linecap="round" stroke-linejoin="round" stroke-width="1.94"/>
    <path id="Path_3461" data-name="Path 3461" d="M229.354,91.15v5.1a.18.18,0,0,1-.294.141l-6.6-5.245Z" transform="translate(-120.621 161.414)" fill="#dd4c88"/>
    <path id="Path_3462" data-name="Path 3462" d="M50.858,228.43H80.87a3.836,3.836,0,0,1,3.836,3.836v27.988a3.836,3.836,0,0,1-3.836,3.836H52.082A5.066,5.066,0,0,1,47,259.035V232.271a3.836,3.836,0,0,1,3.858-3.841Z" transform="translate(-2.998 125.123)" fill="#ff4b2a"/>
    <path id="Path_3463" data-name="Path 3463" d="M150.513,301.029a3.6,3.6,0,0,0-5.087.054l-.914.936-.941-.93a3.6,3.6,0,0,0-5.049,5.125l3.5,3.45h0a3.6,3.6,0,0,0,5.087-.054l3.444-3.515A3.6,3.6,0,0,0,150.513,301.029Z" transform="translate(-81.863 66.197)" fill="#fff"/>
    <path id="Path_3464" data-name="Path 3464" d="M481.293,179.18h33.581a4.293,4.293,0,0,1,4.293,4.293v31.318a4.293,4.293,0,0,1-4.293,4.293h-32.21A5.664,5.664,0,0,1,477,213.42V183.495a4.293,4.293,0,0,1,4.293-4.315Z" transform="translate(-199.039 147.577)" fill="#14ac63"/>
    <path id="Path_3465" data-name="Path 3465" d="M580.49,262.147c2.976.049,5.985.092,8.705-.1.865-.06,1.632-1.436.544-1.872a1.948,1.948,0,0,0,1.088-.941.93.93,0,0,0-.544-1.23c1.034.256,1.442-1.382.637-1.91a2.41,2.41,0,0,0,.87-1.393,1.4,1.4,0,0,0-.577-1.42,2.259,2.259,0,0,0-1.088-.185l-3.716-.027a8.594,8.594,0,0,0-.544-5.751c-.294-.511-1.088-1.126-1.725-.735s-.43,1.289-.4,1.866a6.529,6.529,0,0,1-3.373,5.985S580.522,259.53,580.49,262.147Z" transform="translate(-283.796 90.606)" fill="#fafafa"/>
    <rect id="Rectangle_1289" data-name="Rectangle 1289" width="4.5" height="7.742" transform="translate(291.117 345.005)" fill="#fafafa"/>
    <circle id="Ellipse_21" data-name="Ellipse 21" cx="3.836" cy="3.836" r="3.836" transform="translate(281.345 237.662)" fill="none" stroke="#fdfcff" stroke-miterlimit="10" stroke-width="1.78"/>
    <circle id="Ellipse_22" data-name="Ellipse 22" cx="3.836" cy="3.836" r="3.836" transform="translate(19.545 402.227)" fill="none" stroke="#fdfcff" stroke-miterlimit="10" stroke-width="1.78"/>
    <circle id="Ellipse_23" data-name="Ellipse 23" cx="2.579" cy="2.579" r="2.579" transform="translate(350.842 331.61)" fill="none" stroke="#fdfcff" stroke-miterlimit="10" stroke-width="1.78"/>
    <path id="Path_3466" data-name="Path 3466" d="M97.348,107.44s-1.295,2.176.479,3.466,3.324-1.126,5.294.37a2.187,2.187,0,0,1,.332,3.319" transform="translate(-63.373 153.988)" fill="none" stroke="#fdfcff" stroke-miterlimit="10" stroke-width="1.78"/>
    <path id="Path_3467" data-name="Path 3467" d="M658.129,326s-.99,2.992,1.523,4.086,3.732-2.263,6.529-.985a2.724,2.724,0,0,1,1.3,3.945" transform="translate(-319.159 54.344)" fill="none" stroke="#fdfcff" stroke-miterlimit="10" stroke-width="1.78"/>
    <circle id="Ellipse_24" data-name="Ellipse 24" cx="3.324" cy="3.324" r="3.324" transform="translate(33.632 326.386)" fill="#14ac63"/>
    <circle id="Ellipse_25" data-name="Ellipse 25" cx="3.324" cy="3.324" r="3.324" transform="translate(317.293 274.42)" fill="#ffc200"/>
    <circle id="Ellipse_26" data-name="Ellipse 26" cx="2.541" cy="2.541" r="2.541" transform="translate(312.903 406.177)" fill="#14ac63"/>
    <circle id="Ellipse_27" data-name="Ellipse 27" cx="2.541" cy="2.541" r="2.541" transform="translate(156.857 229.266)" fill="#14ac63"/>
    <line id="Line_18" data-name="Line 18" x2="22.036" transform="translate(316.194 310.417)" fill="none" stroke="#fdfcff" stroke-linecap="round" stroke-linejoin="round" stroke-width="1.94"/>
    <line id="Line_19" data-name="Line 19" x2="38.897" transform="translate(18.43 304.389)" fill="none" stroke="#fdfcff" stroke-miterlimit="10" stroke-width="1.94"/>
    <line id="Line_20" data-name="Line 20" x2="23.39" transform="translate(181.173 231.807)" fill="none" stroke="#fdfcff" stroke-linecap="round" stroke-linejoin="round" stroke-width="1.94"/>
    <path id="Path_3468" data-name="Path 3468" d="M265.636,126.069s-1.54,11.138-14.69,18.091c-14.032,7.416-4.059,29.718,20.354,30.469,26.514.822,41-23.064,21.154-52.989Z" transform="translate(-130.683 147.514)"/>
    <path id="Path_3469" data-name="Path 3469" d="M229.25,129.113l.141-19.223h11.741l.25,19.446Z" transform="translate(-86.087 179.167)" fill="#d6906e"/>
    <path id="Path_3470" data-name="Path 3470" d="M295.894,167.9c-.62-1.7,4.07,7.884,8.939,7.258,4.179-.544,4.9-8.053,4.9-8.053a7.728,7.728,0,0,1-6.344,2.867C298.451,169.983,295.894,167.9,295.894,167.9Z" transform="translate(-154.075 126.783)"/>
    <path id="Path_3471" data-name="Path 3471" d="M282.911,125.645c1.5,8.569,6.475,15.779,14.467,15.779s13.483-7.128,14.467-15.779c1.115-9.794-6.475-15.615-14.467-15.615S281.376,116.842,282.911,125.645Z" transform="translate(-148.094 152.807)"/>
    <path id="Path_3472" data-name="Path 3472" d="M283.047,146.031a2.574,2.574,0,0,0-3.188-.843c-2.149.816-1.175,6.034,2.046,6.7a2.552,2.552,0,0,0,2.062-.544S283.172,147.494,283.047,146.031Z" transform="translate(-146.266 136.889)" fill="#d6906e"/>
    <path id="Path_3473" data-name="Path 3473" d="M281.6,148.731s1.8-.6,3.074,2.051" transform="translate(-147.583 135.189)" fill="none" stroke="#161311" stroke-linecap="round" stroke-linejoin="round" stroke-width="1.02"/>
    <path id="Path_3474" data-name="Path 3474" d="M331.229,146.031a2.574,2.574,0,0,1,3.188-.843c2.149.816,1.175,6.034-2.046,6.7a2.552,2.552,0,0,1-2.062-.544S331.115,147.494,331.229,146.031Z" transform="translate(-169.791 136.889)" fill="#d6906e"/>
    <path id="Path_3475" data-name="Path 3475" d="M334.524,148.731s-1.8-.6-3.074,2.051" transform="translate(-170.311 135.189)" fill="none" stroke="#161311" stroke-linecap="round" stroke-linejoin="round" stroke-width="1.02"/>
    <path id="Path_3476" data-name="Path 3476" d="M286.309,128.7c0,3.341.343,9.63,2.514,13.782a10.8,10.8,0,0,0,10.071,5.882,11.857,11.857,0,0,0,10.077-6.306c2.633-5.06,2.508-13.3,2.508-13.3s0-11.97-12.449-11.97C285.917,116.817,286.309,128.7,286.309,128.7Z" transform="translate(-149.73 149.725)" fill="#d6906e"/>
    <path id="Path_3477" data-name="Path 3477" d="M298.558,136.758l-6.828,1.763s.31-1.915,3.1-2.612S298.558,136.758,298.558,136.758Z" transform="translate(-152.202 141.091)" fill="#1a1a1a"/>
    <path id="Path_3478" data-name="Path 3478" d="M312.26,136.758l6.828,1.763s-.31-1.915-3.1-2.612S312.26,136.758,312.26,136.758Z" transform="translate(-161.562 141.091)" fill="#1a1a1a"/>
    <path id="Path_3479" data-name="Path 3479" d="M238.13,99.68l-.31,2.438h1.768" transform="translate(-89.994 183.821)" fill="none" stroke="#161311" stroke-linecap="round" stroke-linejoin="round" stroke-width="1.02"/>
    <path id="Path_3480" data-name="Path 3480" d="M309.93,156.29H300s.283,3.656,4.946,3.667A4.793,4.793,0,0,0,309.93,156.29Z" transform="translate(-155.972 131.716)" fill="#fff"/>
    <path id="Path_3481" data-name="Path 3481" d="M298.772,144.461a3.928,3.928,0,0,0-3.482,0" transform="translate(-153.825 137.304)" fill="none" stroke="#161311" stroke-linecap="round" stroke-linejoin="round" stroke-width="1.02"/>
    <path id="Path_3482" data-name="Path 3482" d="M318.732,144.461a3.928,3.928,0,0,0-3.482,0" transform="translate(-162.925 137.304)" fill="none" stroke="#161311" stroke-linecap="round" stroke-linejoin="round" stroke-width="1.02"/>
    <path id="Path_3483" data-name="Path 3483" d="M330.474,136.541s-3.313-6.567-1-12.411c0,0,2.307.033,2.225,9.152Z" transform="translate(-169.035 146.378)"/>
    <path id="Path_3484" data-name="Path 3484" d="M285.652,136.541s3.3-6.981,1-12.411c0,0-2.307.033-2.225,9.152Z" transform="translate(-148.872 146.378)"/>
    <path id="Path_3485" data-name="Path 3485" d="M317.047,123.549s-17.955-1.088-23.156-8.341c0,0,1.7-4.527,9.7-3.265S317.047,123.549,317.047,123.549Z" transform="translate(-153.187 152.036)"/>
    <path id="Path_3486" data-name="Path 3486" d="M297.07,114.7s-5.076,10.55-12.34,10.2C284.73,124.9,288.718,114.8,297.07,114.7Z" transform="translate(-149.01 150.678)"/>
    <path id="Path_3487" data-name="Path 3487" d="M268.379,359.332s5.327-26.426,8.455-33.63a.756.756,0,0,1,1.42.12c.756,2.72,1.747,10.838,1.306,34.653v9.734h20.909l3.265-23.429c.169-1.8,6.883-31.16-9.99-53.8H261.033s-13.232,22.765-15.06,50.6c-.408,6.2-.544,15.659-1.393,26.622h21.475Z" transform="translate(-130.706 69.398)" fill="#191512"/>
    <path id="Path_3532" data-name="Path 3532" d="M0,0,5.853,2.392l.863.353,4.03,1.647" transform="translate(137.091 390.829)" fill="#191512" stroke="#191512" stroke-width="1.99"/>
    <path id="Path_3488" data-name="Path 3488" d="M248.982,199.77s-6.856.974-11.872,18.145l13.51,7.742,7.971-10.963Z" transform="translate(-127.3 111.893)" fill="#14ac63"/>
    <path id="Path_3489" data-name="Path 3489" d="M243.192,241.3s-8.972,14.065-11.1,16.595c-2.176,2.617-5.533,3.912-8.433,2.1h0a6.045,6.045,0,0,1-2.247-7.737l9.3-18.178Z" transform="translate(-119.872 96.251)" fill="#d6906e"/>
    <path id="Path_3490" data-name="Path 3490" d="M146.591,151.48l10.74,34.952-11.453,4.984L138.99,152Z" transform="translate(-44.937 160.205)" fill="#d6906e"/>
    <path id="Path_3491" data-name="Path 3491" d="M216.023,192.261l1.676-1.632a7.111,7.111,0,0,0,2.144-4.472l.43-4.739s.272-2.5-4.7-1.872-5.256.658-5.2,2.133c0,0,.909,2.046,4.108,2.459Z" transform="translate(-115.109 121.16)" fill="#d6906e"/>
    <path id="Path_3492" data-name="Path 3492" d="M204.91,191.092s-4.9-2.72-5.131-11.306a2.873,2.873,0,0,1,1.289-2.47c1.273-.838,4.94-2.944,6.9-1.594l3.444,4.445-.223,10.2Z" transform="translate(-110.28 123.058)" fill="#d6906e"/>
    <path id="Path_3493" data-name="Path 3493" d="M213.636,168.369l2.72-13.836a1.54,1.54,0,0,0-1.186-1.8h0a1.54,1.54,0,0,0-1.817,1.159l-2.416,10.463-1.159.223-4.01-10.588a1.4,1.4,0,0,0-1.855-.789h0a1.4,1.4,0,0,0-.8,1.632l3.939,14.658Z" transform="translate(-111.78 133.354)" fill="#d6906e"/>
    <path id="Path_3494" data-name="Path 3494" d="M217.2,179.429s-6.741-.642-6.8,2.231c0,0-.147,2.176,4.108,2.459a3.994,3.994,0,0,0-2.764,3.711" transform="translate(-115.122 121.195)" fill="none" stroke="#bf704f" stroke-miterlimit="10" stroke-width="1"/>
    <line id="Line_22" data-name="Line 22" x2="2.851" y2="9.282" transform="translate(108.684 334.559)" fill="none" stroke="#bf704f" stroke-miterlimit="10" stroke-width="1"/>
    <path id="Path_3495" data-name="Path 3495" d="M343.56,230.831s10.67,37.542,14.756,68.974l6.877-1.306s-1.05-46.079-7.982-74.589Z" transform="translate(-175.832 100.888)" fill="#d6906e"/>
    <path id="Path_3496" data-name="Path 3496" d="M375.194,358.11s10.338,15.278-2.073,22.144a1.975,1.975,0,0,1-2.454-.446l-.082-.092a1.975,1.975,0,0,1,.131-2.672c1.763-1.79,4.135-5.5.354-10.338,0,0-1.986.506-1.632,4.445a1.632,1.632,0,0,1-1.768,1.774h0a1.632,1.632,0,0,1-1.425-1.235c-.653-2.6-1.73-9.037,2.427-12.514Z" transform="translate(-185.887 39.705)" fill="#d6906e"/>
    <path id="Path_3497" data-name="Path 3497" d="M348.938,205.52s9.794,3.221,11.54,18.69l-15.947,6.056-3.591-9.794Z" transform="translate(-174.637 109.272)" fill="#dd4c88"/>
    <path id="Path_3498" data-name="Path 3498" d="M232.965,148.782l9.581,3.618-11.4,43.114H198.41l-8.64-46.28,11.35-2.633Z" transform="translate(-68.088 162.43)" fill="#14ac63"/>
    <rect id="Rectangle_1290" data-name="Rectangle 1290" width="32.732" height="5.434" transform="translate(130.322 357.944)" fill="#1a1a1a"/>
    <line id="Line_23" data-name="Line 23" x1="2.546" y1="11.524" transform="translate(123.314 322.529)" fill="none" stroke="#14ac63" stroke-miterlimit="10" stroke-width="1.99"/>
    <line id="Line_24" data-name="Line 24" y1="12.841" x2="3.439" transform="translate(168.751 323.579)" fill="none" stroke="#c12d71" stroke-miterlimit="10" stroke-width="1.99"/>
    <path id="Path_3499" data-name="Path 3499" d="M299.04,189.7l12.6,5.022s-1.464,4.962-16.252,4.962c-12.884,0-15.6-7.144-15.6-7.144l12.237-2.84Z" transform="translate(-146.758 116.484)" fill="#d6906e"/>
    <path id="Path_3500" data-name="Path 3500" d="M354.236,258.34l13.7,70.079H341.379l-10.185-46.313-2.345-.141-.033,46.454H302.33l1.355-70.079Z" transform="translate(-119.405 111.487)" fill="#14ac63"/>
    <line id="Line_25" data-name="Line 25" x2="15.12" transform="translate(204.96 393.125)" fill="none" stroke="#14ac63" stroke-miterlimit="10" stroke-width="1.99"/>
    <path id="Path_3501" data-name="Path 3501" d="M484.976,195.286l25-6.393a9.494,9.494,0,0,0,6.622-11.529h0a9.494,9.494,0,0,0-11.785-6.747l-25.028,7.106Z" transform="translate(-237.936 125.349)" fill="#e8aba2"/>
    <path id="Path_3502" data-name="Path 3502" d="M404.768,127.3l-24.408,3.21,6.981,24.914,23.314-4.853Z" transform="translate(-154.98 171.229)" fill="#fff"/>
    <path id="Path_3503" data-name="Path 3503" d="M495.9,98.9c.626-3.917-.892-8.923-.892-8.923l.544-8.793a1.632,1.632,0,0,0-1.241-1.812h0a1.632,1.632,0,0,0-1.991,1.2l-.724,5.68h-.778l-1.056-9.124a1.872,1.872,0,0,0-2.176-1.708h0a1.872,1.872,0,0,0-1.54,1.893l.669,9.837-.8.158-2.8-9.843a2.073,2.073,0,0,0-2.623-1.447h0a2.073,2.073,0,0,0-1.4,2.454l2.889,11.268-1.012.277L477.171,82.1a1.719,1.719,0,0,0-2.443-.724h0A1.719,1.719,0,0,0,474,83.422l3.847,10.528-3.183-.082a2.525,2.525,0,0,0-2.5,2.775h0a2.525,2.525,0,0,0,1.866,2.176l4.19,1.012a17.7,17.7,0,0,0,7.525,5.631S495.425,101.894,495.9,98.9Z" transform="translate(-234.456 168.598)" fill="#e8aba2"/>
    <path id="Path_3504" data-name="Path 3504" d="M482.64,109.531s6.077-.359,9.685,3.069" transform="translate(-239.24 153.039)" fill="none" stroke="#d8857d" stroke-miterlimit="10" stroke-width="1"/>
    <path id="Path_3505" data-name="Path 3505" d="M454.6,104.46,437.718,70.28,427.07,74.758,437.8,112.365Z" transform="translate(-176.275 197.225)" fill="#e8aba2"/>
    <line id="Line_26" data-name="Line 26" x2="1.654" y2="5.795" transform="translate(258.33 298.393)" fill="none" stroke="#d8857d" stroke-miterlimit="10" stroke-width="1"/>
    <path id="Path_3506" data-name="Path 3506" d="M323.514,130.71l-19.984,4.135.113,10.517.589,54.79h50.551l1.583-67.1-19.016-1.643Z" transform="translate(-119.952 169.674)" fill="#fff"/>
    <path id="Path_3533" data-name="Path 3533" d="M0,8.433V0" transform="translate(235.854 317.512)" fill="none" stroke="#fff" stroke-width="1.99"/>
    <path id="Path_3507" data-name="Path 3507" d="M317,166.54h12.378v6.192a6.192,6.192,0,0,1-6.192,6.192h0A6.192,6.192,0,0,1,317,172.732Z" transform="translate(-126.093 153.339)"/>
    <path id="Path_3508" data-name="Path 3508" d="M332.982,217.14l-14.413,26.116a9.576,9.576,0,0,0,3.6,12.922h0a9.576,9.576,0,0,0,12.906-3.2L350.034,229.1Z" transform="translate(-163.893 103.974)" fill="#e8aba2"/>
    <path id="Path_3509" data-name="Path 3509" d="M337.85,206.591l20.675,13.27,3.319-15.849c3.5-5.648,7.949-12.465,2.35-16.056h0a12.166,12.166,0,0,0-16.829,3.7Z" transform="translate(-173.228 118.158)" fill="#fff"/>
    <line id="Line_28" data-name="Line 28" y1="17.754" transform="translate(183.937 319.39)" fill="none" stroke="#fff" stroke-miterlimit="10" stroke-width="1.99"/>
    <path id="Path_3510" data-name="Path 3510" d="M261.489,227.093l37.836-1.039,2.606-12.226L259.16,208.42Z" transform="translate(-99.724 134.246)" fill="#e8aba2"/>
    <line id="Line_29" data-name="Line 29" x1="9.853" y1="1.235" transform="translate(168.751 343.841)" fill="none" stroke="#d8857d" stroke-miterlimit="10" stroke-width="1"/>
    <path id="Path_3511" data-name="Path 3511" d="M402.31,265.178s4.842-6.529,10.539,0l-2.263,4.5Z" transform="translate(-202.616 83.396)" fill="#e8aba2"/>
    <path id="Path_3512" data-name="Path 3512" d="M411.518,253.662,410,262.825l11.562,1.257,1.834-8.8a1.632,1.632,0,0,0-1.42-1.98l-8.629-1.045A1.632,1.632,0,0,0,411.518,253.662Z" transform="translate(-206.122 87.97)" fill="#1a1a1a"/>
    <path id="Path_3513" data-name="Path 3513" d="M402.2,266.17l13.662.337a2.916,2.916,0,0,1,2.846,2.916h0a2.916,2.916,0,0,1-1.632,2.628l-.729.354s1.393,10.338-6.812,11.573-12.808-5.256-12.808-5.256Z" transform="translate(-200.072 81.621)" fill="#e8aba2"/>
    <path id="Path_3514" data-name="Path 3514" d="M354.091,115.023,353.9,94.14H338.927l-.337,20.338Z" transform="translate(-135.936 186.347)" fill="#e8aba2"/>
    <path id="Path_3515" data-name="Path 3515" d="M406.043,152.842c-.778-1.779,5.2,9.864,11.306,9.211,5.234-.544,5.441-10.044,5.441-10.044s-1.855,2.992-7.383,3C409.253,155.019,406.043,152.842,406.043,152.842Z" transform="translate(-204.287 133.668)"/>
    <path id="Path_3516" data-name="Path 3516" d="M424.446,106.871c-1.605,9.2-6.948,16.932-15.517,16.932s-14.462-7.65-15.517-16.932a15.436,15.436,0,0,1,15.5-17.531C417.47,89.34,426.094,97.431,424.446,106.871Z" transform="translate(-198.505 162.24)"/>
    <path id="Path_3517" data-name="Path 3517" d="M445.873,129.394a2.758,2.758,0,0,1,3.422-.9c2.307.876,1.262,6.469-2.176,7.187a2.72,2.72,0,0,1-2.209-.577S445.737,130.967,445.873,129.394Z" transform="translate(-222.038 144.509)" fill="#e8aba2"/>
    <path id="Path_3518" data-name="Path 3518" d="M449.363,132.287s-1.932-.642-3.3,2.176" transform="translate(-222.562 142.688)" fill="none" stroke="#161311" stroke-linecap="round" stroke-linejoin="round" stroke-width="1.1"/>
    <path id="Path_3519" data-name="Path 3519" d="M394.1,129.394a2.758,2.758,0,0,0-3.422-.9c-2.307.876-1.262,6.469,2.176,7.187a2.721,2.721,0,0,0,2.209-.577S394.251,130.967,394.1,129.394Z" transform="translate(-196.75 144.509)" fill="#e8aba2"/>
    <path id="Path_3520" data-name="Path 3520" d="M392.59,132.287s1.932-.642,3.3,2.176" transform="translate(-198.185 142.688)" fill="none" stroke="#161311" stroke-linecap="round" stroke-linejoin="round" stroke-width="1.1"/>
    <path id="Path_3521" data-name="Path 3521" d="M424.43,110.828c0,3.586-.37,11.094-2.72,15.545a11.617,11.617,0,0,1-10.528,6.567c-3.776.109-9.217-3.433-11.089-7.024-2.824-5.441-2.693-15.022-2.693-15.022s0-12.813,13.352-12.813C424.849,98.08,424.43,110.828,424.43,110.828Z" transform="translate(-200.377 158.255)" fill="#e8aba2"/>
    <circle id="Ellipse_28" data-name="Ellipse 28" cx="1.034" cy="1.034" r="1.034" transform="translate(203.818 272.391)" fill="#1a1a1a"/>
    <circle id="Ellipse_29" data-name="Ellipse 29" cx="1.034" cy="1.034" r="1.034" transform="translate(214.482 272.391)" fill="#1a1a1a"/>
    <path id="Path_3522" data-name="Path 3522" d="M410.793,120.847l-7.323,1.893s.332-2.057,3.33-2.8S410.793,120.847,410.793,120.847Z" transform="translate(-203.145 148.377)" fill="#1a1a1a"/>
    <path id="Path_3523" data-name="Path 3523" d="M425.48,120.847l7.323,1.893s-.332-2.057-3.33-2.8S425.48,120.847,425.48,120.847Z" transform="translate(-213.18 148.377)" fill="#1a1a1a"/>
    <path id="Path_3524" data-name="Path 3524" d="M350.66,85.98V88.6h1.9" transform="translate(-141.439 190.067)" fill="none" stroke="#161311" stroke-linecap="round" stroke-linejoin="round" stroke-width="1.1"/>
    <path id="Path_3525" data-name="Path 3525" d="M423.192,143.16H412s.31,2.949,5.316,2.954C421.908,146.125,423.192,143.16,423.192,143.16Z" transform="translate(-207.034 137.702)" fill="#fff"/>
    <path id="Path_3526" data-name="Path 3526" d="M396.908,119.214s5-7.672,1.088-13.314c0,0-2.476.038-2.389,9.794Z" transform="translate(-199.56 154.69)"/>
    <path id="Path_3527" data-name="Path 3527" d="M444.515,119.214s-5-7.672-1.088-13.314c0,0,2.476.038,2.389,9.794Z" transform="translate(-220.68 154.69)"/>
    <path id="Path_3528" data-name="Path 3528" d="M397.56,97.036s6.458,7.3,19.756,5.871c11.878-1.279,12.906-9.609,10.077-12.9-4.043-4.706-12.955-2.954-17.721,2.3Z" transform="translate(-200.451 163.184)"/>
    <path id="Path_3529" data-name="Path 3529" d="M338.59,131.06l7.9,10.153,7.6-9.614Z" transform="translate(-135.936 169.515)" fill="#e8aba2"/>
    <path id="Path_3530" data-name="Path 3530" d="M334.687,128.43l-4.657,2.394,5.267,10.555,5.261-3.972Z" transform="translate(-132.034 170.714)" fill="#191512"/>
    <path id="Path_3531" data-name="Path 3531" d="M362.523,128.43l5.245,2.465-5.544,10.485L357,137.293Z" transform="translate(-144.33 170.714)" fill="#191512"/>
    <line id="Line_30" data-name="Line 30" x2="301.187" transform="translate(32.652 439.944)" fill="none" stroke="#fdfcff" stroke-miterlimit="10" stroke-width="1.99"/>
  </g>
</svg>
