<svg xmlns="http://www.w3.org/2000/svg" width="287.124" height="254.404" viewBox="0 0 287.124 254.404">
  <g id="illustration_two" transform="translate(0.01)">
    <path id="Path_3889" data-name="Path 3889" d="M186.411,418.482l-1.653-9.369c-1.715,4.867-1.061,10.424-5.113,14.359,2.153-4.848.894-9.869.691-14.8-.4,6.119-1.005,12.163-5.255,16.937.068-2.467.29-4.978.173-7.445-.259-5.588-.167-11.1,2.313-16.388-1.061,1.042-2.159,2.048-3.152,3.158-.247.278-.2.882-.179,1.332a43.256,43.256,0,0,1-3.127,18.59,9.944,9.944,0,0,1-2.146,3.084c.814-7.056-.66-14.445,3.781-20.817l-.333-.16c-1.049,1.129-2.128,2.233-3.084,3.411-.216.259-.148.8-.136,1.234a32.69,32.69,0,0,1-3.084,14.92,21.155,21.155,0,0,1-1.733,2.646l-.321-.13,1.03-6.914c-.956,2.621-1.585,5.341-3.941,7.328l2.467-12.873c-.216.376-.537.9-.839,1.431-1.85,3.275-3.6,6.612-5.588,9.8a17.3,17.3,0,0,1-3.14,3.084l-.475-.333,5.866-10.35-11.139,4.046-.333-.617a56.3,56.3,0,0,1,5.878-3.923,24.573,24.573,0,0,1,6.908-2.467c2.35-.389,3.423-1.924,4.681-3.54-5.452,2.177-11.176,2.529-16.931,2.788a28.614,28.614,0,0,1,9.548-3.627,52.434,52.434,0,0,1,7.352-.7,2.844,2.844,0,0,0,2.6-1.19c.524-.759,1.234-1.388,1.85-2.245-6.637,2.356-13.477,2.381-20.354,2.134a32.69,32.69,0,0,1,11.1-3.417,64.023,64.023,0,0,1,8.777-.259c1.369.043,2.412-.037,3.2-1.234.352-.537.87-.956,1.3-1.61-7.124,1.234-13.921-.364-20.724-1.949L153.1,402c2.27-.29,4.54-.648,6.816-.864a34.832,34.832,0,0,1,13.267,1.375c2.251.666,2.6.549,4.139-1.85-7.488,1.3-13.613-2.634-20.237-4.49v-.432c2.621,0,5.243-.074,7.858.08a30.7,30.7,0,0,1,12.213,3.257,1.709,1.709,0,0,0,2.584-.518,18.62,18.62,0,0,1,1.493-1.542c-7.469.549-13.033-3.756-19.306-6l.037-.345c1.394,0,2.788,0,4.182.092a36.38,36.38,0,0,1,4.17.463,33.368,33.368,0,0,1,11.343,4.17,1.184,1.184,0,0,0,1.678-.2c1.628-1.462,3.318-2.868,5-4.274a12.337,12.337,0,0,1,1.184-.789l.29.37-5.644,4.762C189.5,407.676,188.823,414.109,186.411,418.482Zm-4.934-20.354c-.53.444-1.147.919-1.7,1.456-.241.234-.555.617-.518.882.265,1.887.617,3.762.863,5.2Zm-13.755,14.063c-2.64,1.53-2.288,4.04-2.227,6.5Z" transform="translate(-67.33 -176.494)" fill="#ede6f3"/>
    <path id="Path_3890" data-name="Path 3890" d="M413.8,135.75l4.879,8.5c-.043-5.317-2.615-10.486-.068-15.7-.389,5.452,2.578,9.869,4.515,14.606-1.752-6.069-3.281-12.132-.833-18.245.8,2.467,1.462,4.934,2.436,7.278,2.208,5.323,4.04,10.689,3.491,16.654.66-1.382,1.375-2.745,1.949-4.157.142-.358-.111-.925-.29-1.351a44.551,44.551,0,0,1-3.473-19.121,10.239,10.239,0,0,1,1.005-3.7c1.678,7.118,5.693,13.761,3.621,21.489l.382.043c.617-1.462,1.277-2.905,1.85-4.392.117-.327-.136-.826-.29-1.234a33.676,33.676,0,0,1-2.239-15.531,21.788,21.788,0,0,1,.753-3.17h.358l1.369,6.994c0-2.874-.333-5.73,1.234-8.481l2.1,13.335c.08-.438.2-1.061.308-1.684.617-3.818,1.172-7.667,1.986-11.448a19.068,19.068,0,0,1,1.955-4.108l.574.154-2.066,12.077,9.375-7.815.537.475a59.274,59.274,0,0,1-4.318,5.86,25.29,25.29,0,0,1-5.823,4.836c-2.14,1.2-2.64,3.084-3.3,5.064,4.521-4.015,9.943-6.359,15.42-8.635a29.464,29.464,0,0,1-7.969,6.9,53.994,53.994,0,0,1-6.877,3.251,2.917,2.917,0,0,0-2.1,2.06c-.241.919-.709,1.776-.981,2.813,5.6-4.6,12.225-7.025,18.985-9.19a33.682,33.682,0,0,1-9.585,7.2,65.934,65.934,0,0,1-8.413,3.318c-1.338.438-2.325.882-2.665,2.331-.154.617-.506,1.234-.7,2.011,6.464-3.7,13.613-4.515,20.755-5.36l.179.382c-2.1,1.079-4.17,2.22-6.3,3.226A35.879,35.879,0,0,1,432.2,146.6c-2.418.142-2.708.376-3.368,3.226,6.785-3.873,14.106-2.214,21.175-2.732l.13.432c-2.541.9-5.052,1.906-7.636,2.671a31.617,31.617,0,0,1-12.953,1.116c-1.326-.167-1.961.2-2.319,1.406a19.186,19.186,0,0,1-.907,2.017c7.044-3.146,13.94-.919,20.8-.944l.086.352c-1.357.463-2.7.975-4.083,1.369a37.486,37.486,0,0,1-4.2,1.012,34.368,34.368,0,0,1-12.447-.068,1.234,1.234,0,0,0-1.56.777c-1.067,1.986-2.208,3.935-3.343,5.89a12.729,12.729,0,0,1-.87,1.178l-.407-.259,3.8-6.587C414.588,147.284,413,140.851,413.8,135.75Zm11.9,18.017c.358-.617.783-1.3,1.141-2,.154-.308.327-.79.191-1.036-.919-1.733-1.912-3.429-2.658-4.731Zm8.432-18.467c2.023-2.406.8-4.712-.117-7.081Z" transform="translate(-169.132 -70.036)" fill="#f4f0f8"/>
    <path id="Path_3891" data-name="Path 3891" d="M145.15,381.2c-2.856-3.374-6.439-2.973-10.183-1.9a1.961,1.961,0,0,1-.062-.567c.617-2.634,4.459-5.082,7.075-4.373a38.89,38.89,0,0,1,4.682,1.887c.715.3,1.394.709,2.134.944.395.123,1.16.13,1.234-.062a1.918,1.918,0,0,0,.13-1.542,3.8,3.8,0,0,0-1.486-1.363,11.343,11.343,0,0,0-6.168-1.166h-1.591l-.13-.327a5.326,5.326,0,0,1,.808-.678c2.591-1.431,5.286-2.72,8.271-2.85a10.67,10.67,0,0,1,4.632.863c3.4,1.505,4.318,4.04,3.028,7.562-.173.475-.333.956-.617,1.758a50,50,0,0,1,4.355-5.224,57.107,57.107,0,0,1,6.84-5.292c1.53-1.024,1.659-.839,2.634.808.154.259.271.537.438.876a17.592,17.592,0,0,0-7.673,4.188c-2.239,1.931-4.256,3.849-5.471,6.6.432-.37.857-.753,1.3-1.116a37.25,37.25,0,0,1,3.429-2.732,4.5,4.5,0,0,1,5.656.419,10.414,10.414,0,0,1,3.917,9.776,1.233,1.233,0,0,1-.111.37,3.277,3.277,0,0,1-.339.413c-.617-.617-1.234-1.264-1.85-1.85a16.245,16.245,0,0,0-2.64-2.27,7.032,7.032,0,0,0-2.942-.851,5.927,5.927,0,0,0-2.072.666,16.021,16.021,0,0,0,1.567,1.277c2.146,1.357,4.4,2.56,6.458,4.034,1.548,1.11,1.678,2.146.907,3.873-.469,1.049-1.049,2.042-1.733,3.355-.944-3.7-3.355-5.823-5.977-7.772a5.865,5.865,0,0,0-2.245-.882c-.352-.074-.8.29-1.2.456a3.972,3.972,0,0,0,.561,1.067c1.628,1.6,3.3,3.17,4.934,4.755a5.436,5.436,0,0,1,.487.617c2.332,3,1.943,5.459-1.289,7.741-.691-3.935-3.238-6.723-5.749-9.523a6.6,6.6,0,0,0-1.092-.808l-.389.222a7.287,7.287,0,0,0,.672,1.567c1.1,1.493,2.375,2.874,3.411,4.416,2.584,3.849,2.19,5.631-1.554,8.154a46.6,46.6,0,0,0-1.419-5.613,26.4,26.4,0,0,0-2.467-4.361,2.017,2.017,0,0,0-.987-.808,6.477,6.477,0,0,0-1.567-.136,3.849,3.849,0,0,0,.037,1.53c1.129,2.282,2.356,4.521,3.54,6.785a14.449,14.449,0,0,1,.654,1.412c.574,1.462.271,2.245-1.11,2.985l-2.276,1.234c-.228.123-.469.222-.808.382.2-1.332.45-2.591.567-3.855.167-1.894-2.134-5.847-3.818-6.612a1.1,1.1,0,0,0-.944,0,1.036,1.036,0,0,0-.191.925c.253.777.678,1.5.931,2.276a35.006,35.006,0,0,1,1.351,4.706c.284,1.647-.574,2.517-2.245,2.615-.734.043-1.468,0-2.208,0-2.017,0-3.991.136-5.644,1.672a51.4,51.4,0,0,1-2.93-4.318,2.159,2.159,0,0,1,.271-1.974c1.277-1.394,2.745-2.615,4.139-3.9a16.72,16.72,0,0,0,1.77-1.7,1.351,1.351,0,0,0,.056-1.172c-.074-.16-.746-.222-1.042-.093a10.432,10.432,0,0,0-2.369,1.32c-2.072,1.684-4.071,3.46-6.168,5.255a7.167,7.167,0,0,1-1.517-4.034c-.056-1.69,1.369-3.275,3.38-3.984,2.4-.845,4.793-1.708,7.155-2.646.469-.185.8-.752,1.184-1.141a4.5,4.5,0,0,0-1.591-.537,16.585,16.585,0,0,0-8.469,3.3,6.414,6.414,0,0,1-.7.574c-.617.315-1.53.968-1.85.765a3.25,3.25,0,0,1-1.024-1.955,2.819,2.819,0,0,1,1.807-3.257c2.294-.981,4.669-1.776,7.025-2.609,1.024-.364,2.079-.617,3.121-.944l-.08-.469a9.152,9.152,0,0,0-1.468-.056,23.69,23.69,0,0,0-8.8,2.517c-1.086.617-1.369.45-1.6-.789a3.806,3.806,0,0,1,3.7-4.614c2.2-.062,4.416.049,6.618,0a5.916,5.916,0,0,0,1.789-.691c-.561-.308-1.116-.87-1.678-.876-2.584,0-5.175.08-7.753.253-1.406.1-1.85-.339-1.382-1.647a3.368,3.368,0,0,1,3.614-2.313C139.519,380.426,142.258,380.8,145.15,381.2Zm1.184,22.667c-.617.456-1.147,3.608-.734,4.139s1.2.7,1.462,0a10.6,10.6,0,0,0,.654-3.448A.877.877,0,0,0,146.335,403.864Z" transform="translate(-61.122 -168.1)" fill="#f4f0f8"/>
    <path id="Path_3892" data-name="Path 3892" d="M118.881,368.427l-8.1-4.99c2.5,4.515,7.081,7.722,7.334,13.366-2.19-4.836-6.785-7.223-10.621-10.368,4.318,4.367,8.419,8.833,9.159,15.179-1.813-1.709-3.528-3.522-5.446-5.076-4.342-3.54-8.395-7.241-10.732-12.62.074,1.486.093,2.979.265,4.453.043.37.524.74.876,1.018A43.257,43.257,0,0,1,113.453,384.1a9.943,9.943,0,0,1,.857,3.633c-4.731-5.292-11.232-9.1-13.045-16.654l-.345.142c.148,1.53.253,3.084.481,4.6.049.333.5.617.808.9a32.69,32.69,0,0,1,9.1,12.219,21.152,21.152,0,0,1,.826,3.084l-.315.154-4.41-5.335c1.32,2.467,2.936,4.731,2.862,7.815L102.32,384.2c.136.413.315,1,.518,1.579,1.234,3.559,2.554,7.081,3.608,10.689a18.96,18.96,0,0,1,.234,4.41l-.561.136-3.836-11.263-4.385,11-.678-.154a56.065,56.065,0,0,1,.975-7,24.574,24.574,0,0,1,2.726-6.822c1.271-2.017.839-3.836.469-5.847-2,5.551-5.551,10.035-9.166,14.507a28.614,28.614,0,0,1,3.627-9.523,52.432,52.432,0,0,1,4.367-5.964,2.829,2.829,0,0,0,.833-2.726c-.222-.894-.216-1.85-.469-2.856-2.646,6.526-7.173,11.657-11.941,16.654A32.69,32.69,0,0,1,93.487,380.4a64.015,64.015,0,0,1,5.644-6.729c.944-.993,1.573-1.85,1.2-3.226-.167-.617-.136-1.289-.339-2.035-3.8,6.168-9.523,10.159-15.229,14.186l-.327-.222c1.289-1.894,2.529-3.824,3.886-5.668a34.831,34.831,0,0,1,9.869-9c2-1.234,2.134-1.573,1.375-4.318-4.009,6.452-11.01,8.425-16.8,12.145l-.308-.308c1.752-1.943,3.429-3.966,5.28-5.816a30.7,30.7,0,0,1,10.547-6.964c1.234-.475,1.585-1.079,1.332-2.276a18.622,18.622,0,0,1-.16-2.14c-4.552,5.946-11.466,7.247-17.307,10.442l-.234-.259c.944-1.024,1.85-2.085,2.85-3.084a36.385,36.385,0,0,1,3.115-2.806,33.369,33.369,0,0,1,10.652-5.712,1.184,1.184,0,0,0,.968-1.388c0-2.19.062-4.385.123-6.575a12.336,12.336,0,0,1,.2-1.406l.469.031-.191,7.4C112.855,358.947,117.2,363.708,118.881,368.427Zm-18.5-9.869c0,.691-.074,1.468-.043,2.239a1.329,1.329,0,0,0,.315.975c1.585,1.055,3.22,2.035,4.459,2.806Zm1.363,19.663c-.617,2.992,1.5,4.392,3.38,5.983Z" transform="translate(-42.019 -160.054)" fill="#ede6f3"/>
    <path id="Path_3893" data-name="Path 3893" d="M264.95,144.858l9.678,3.331c-3.7-4.151-9.252-6.439-10.837-12.3,3.436,4.558,8.8,5.983,13.57,8.382-5.551-3.571-10.911-7.291-13.181-13.779,2.307,1.363,4.527,2.868,6.914,4.052,5.391,2.671,10.516,5.631,14.186,10.726-.426-1.542-.8-3.084-1.326-4.607-.13-.376-.722-.654-1.16-.864a46.519,46.519,0,0,1-15.852-12.638,10.689,10.689,0,0,1-1.758-3.614c6.211,4.447,13.927,6.914,17.6,14.415l.327-.228c-.518-1.573-.987-3.164-1.585-4.706-.129-.339-.672-.555-1.061-.759a35.158,35.158,0,0,1-12.428-10.677,22.75,22.75,0,0,1-1.585-3.01l.29-.234,5.878,4.558c-1.961-2.264-4.194-4.274-4.836-7.531l10.812,9.042c-.241-.4-.567-.975-.913-1.536-2.116-3.448-4.318-6.834-6.3-10.368a20.1,20.1,0,0,1-1.283-4.57l.555-.271,6.674,10.917L279.376,106h.746a59.425,59.425,0,0,1,.617,7.574,26.431,26.431,0,0,1-1.234,7.8c-.857,2.412,0,4.219.888,6.248.8-6.26,3.448-11.83,6.211-17.375a30.766,30.766,0,0,1-1.567,10.843,56.382,56.382,0,0,1-3.232,7.272,3.09,3.09,0,0,0-.234,3.084c.438.888.66,1.881,1.16,2.887,1.234-7.469,4.793-13.921,8.635-20.262a35.158,35.158,0,0,1-2.591,12.243,68.848,68.848,0,0,1-4.318,8.388c-.753,1.234-1.234,2.288-.493,3.664.321.617.444,1.32.833,2.06,2.541-7.352,7.605-12.9,12.644-18.467l.4.179c-.913,2.288-1.758,4.607-2.745,6.865a37.457,37.457,0,0,1-8.216,11.756c-1.807,1.77-1.85,2.153-.432,4.848,2.689-7.716,9.573-11.429,14.8-16.691l.395.253c-1.382,2.467-2.665,4.971-4.17,7.346a33.017,33.017,0,0,1-9.431,9.789c-1.153.783-1.406,1.505-.864,2.7a20.035,20.035,0,0,1,.672,2.208c3.38-7.309,10.331-10.3,15.71-15.025l.308.216c-.752,1.3-1.462,2.621-2.27,3.88a39.142,39.142,0,0,1-2.609,3.7,35.884,35.884,0,0,1-9.869,8.493,1.277,1.277,0,0,0-.691,1.684c.524,2.294.962,4.614,1.413,6.927a13.286,13.286,0,0,1,.123,1.523l-.5.08-1.536-7.79C273.5,153.382,267.83,149.4,264.95,144.858Zm21.73,6c-.142-.734-.271-1.554-.481-2.362-.092-.352-.284-.845-.555-.944-1.912-.734-3.861-1.382-5.341-1.9Zm-6.051-20.317c-.062-3.281-2.6-4.256-4.934-5.489Z" transform="translate(-111.716 -67.611)" fill="#ede6f3"/>
    <path id="Path_3894" data-name="Path 3894" d="M46.58,354.53c-1.992-5.619-6.7-6.822-11.935-7.26a2.64,2.64,0,0,1,.191-.746c2.072-3.016,8.018-4.287,11-2.134a49.745,49.745,0,0,1,5,4.607c.759.722,1.425,1.56,2.239,2.2.438.345,1.4.716,1.616.518a2.59,2.59,0,0,0,.894-1.887,5.119,5.119,0,0,0-1.234-2.43,15.3,15.3,0,0,0-7.223-4.416c-.685-.216-1.345-.487-2.017-.728v-.469a7.171,7.171,0,0,1,1.345-.475c3.954-.574,7.963-.907,11.787.352a14.384,14.384,0,0,1,5.428,3.3c3.571,3.522,3.5,7.149.21,10.973-.444.518-.876,1.042-1.61,1.924,2.942-1.7,5.323-3.448,7.981-4.509a77,77,0,0,1,11.152-3.411c2.418-.561,2.467-.265,2.936,2.276.068.395.086.8.136,1.314a23.35,23.35,0,0,0-11.676,1.622c-3.645,1.332-7.2,2.825-10.048,5.712.728-.265,1.443-.543,2.177-.783a50.254,50.254,0,0,1,5.631-1.807A6.1,6.1,0,0,1,77.5,361.5c2.751,4.681,2.646,9.412.271,14.186a1.7,1.7,0,0,1-.321.413,4.417,4.417,0,0,1-.617.364c-.493-1.1-.944-2.184-1.468-3.232a21.734,21.734,0,0,0-2.245-4.12,9.481,9.481,0,0,0-3.306-2.467c-.82-.382-1.943-.123-2.93-.148a21.584,21.584,0,0,0,1.363,2.362c2.06,2.732,4.318,5.323,6.217,8.166,1.425,2.14,1.092,3.51-.7,5.317-1.086,1.1-2.3,2.072-3.787,3.4.567-5.082-1.456-8.944-3.824-12.644a7.908,7.908,0,0,0-2.412-2.184c-.407-.265-1.141,0-1.733,0a5.36,5.36,0,0,0,.2,1.61c1.289,2.8,2.646,5.551,3.972,8.358a7.321,7.321,0,0,1,.321,1c1.5,4.9-.154,7.815-5.323,9.141.993-5.274-.857-10-2.708-14.735a8.9,8.9,0,0,0-.987-1.542l-.617.1a9.82,9.82,0,0,0,.1,2.295c.678,2.412,1.622,4.755,2.2,7.192,1.425,6.088.074,8.142-5.847,9.536A63.555,63.555,0,0,0,54.2,386.1a34.758,34.758,0,0,0-1.061-6.686,2.72,2.72,0,0,0-.845-1.487,8.735,8.735,0,0,0-1.912-.919c-.241.648-.74,1.326-.678,1.949.339,3.423.814,6.828,1.234,10.239a19.487,19.487,0,0,1,.148,2.1c0,2.116-.728,2.961-2.825,3.238-1.153.154-2.307.327-3.46.481-.345.043-.7.056-1.2.1.888-1.585,1.807-3.047,2.554-4.6,1.116-2.307.1-8.388-1.659-10.159a1.486,1.486,0,0,0-1.184-.456,1.4,1.4,0,0,0-.678,1.073c-.049,1.1.142,2.214.093,3.312a47.191,47.191,0,0,1-.537,6.575c-.426,2.208-1.924,2.9-4.077,2.22-.944-.3-1.85-.691-2.782-1.042-2.535-.981-5.095-1.733-7.914-.617a69.288,69.288,0,0,1-1.641-6.846,2.905,2.905,0,0,1,1.283-2.362c2.276-1.153,4.712-1.986,7.081-2.948a22.536,22.536,0,0,0,3.047-1.3,1.85,1.85,0,0,0,.617-1.456c0-.241-.833-.617-1.264-.617a14.06,14.06,0,0,0-3.614.537c-3.417,1.141-6.785,2.418-10.282,3.7a9.665,9.665,0,0,1,0-5.81c.734-2.159,3.288-3.479,6.168-3.411,3.429.08,6.853.136,10.282.08.685,0,1.357-.567,2.035-.87-.58-.493-1.086-1.234-1.752-1.437a22.118,22.118,0,0,0-12.25.123,8.631,8.631,0,0,1-1.16.389c-.925.1-2.393.493-2.665.092a4.382,4.382,0,0,1-.358-2.948,3.793,3.793,0,0,1,3.836-3.244c3.362-.142,6.735,0,10.1.068,1.462.031,2.924.2,4.385.3l.123-.617a12.338,12.338,0,0,0-1.85-.765,31.96,31.96,0,0,0-12.3-1.03c-1.653.234-1.937-.086-1.641-1.764a5.126,5.126,0,0,1,6.846-4.059c2.806.975,5.551,2.165,8.358,3.121a8.634,8.634,0,0,0,2.584,0c-.555-.654-.993-1.628-1.7-1.9-3.257-1.234-6.563-2.368-9.869-3.38-1.82-.549-2.19-1.32-.956-2.739a4.54,4.54,0,0,1,5.656-1.19C39.857,350.836,43.12,352.643,46.58,354.53Zm-9.332,29.162c-.962.3-3.17,4-2.9,4.867s1.184,1.449,1.85.678a14.291,14.291,0,0,0,2.467-4.04C39.006,384.316,38.272,383.563,37.248,383.693Z" transform="translate(-19.137 -157.587)" fill="#f4f0f8"/>
    <path id="Path_3895" data-name="Path 3895" d="M345.738,136.29c4.879,4.706,10.276,3.54,15.821,1.332a3,3,0,0,1,.185.857c-.58,4.12-6.014,8.438-10.109,7.753a60.187,60.187,0,0,1-7.4-2.153c-1.141-.352-2.239-.864-3.392-1.11-.617-.13-1.789,0-1.906.29a2.942,2.942,0,0,0,.043,2.375,5.816,5.816,0,0,0,2.467,1.85,17.441,17.441,0,0,0,9.585.833c.8-.13,1.616-.191,2.424-.284l.247.475a8.153,8.153,0,0,1-1.129,1.16c-3.7,2.584-7.636,4.934-12.169,5.619a16.352,16.352,0,0,1-7.192-.617c-5.422-1.77-7.186-5.5-5.779-11.059.191-.752.358-1.5.66-2.776-2.134,3.22-3.67,6.211-5.835,8.635a87.518,87.518,0,0,1-9.616,9.122c-2.177,1.795-2.4,1.53-4.139-.82-.271-.37-.493-.771-.808-1.271a26.915,26.915,0,0,0,11.053-7.568c3.115-3.294,5.9-6.526,7.328-10.911-.617.617-1.2,1.283-1.813,1.9a60.484,60.484,0,0,1-4.811,4.694c-2.751,2.159-5.73,2.159-8.684.234-5.175-3.368-7.469-8.234-7.476-14.3a1.932,1.932,0,0,1,.111-.586,5.022,5.022,0,0,1,.45-.685c1.061.864,2.066,1.746,3.133,2.547a24.79,24.79,0,0,0,4.373,3.053,10.776,10.776,0,0,0,4.62.839c1.03,0,2.035-.863,3.053-1.332a24.538,24.538,0,0,0-2.584-1.709c-3.479-1.739-7.1-3.226-10.486-5.156-2.535-1.456-2.887-3.016-1.98-5.767.549-1.665,1.283-3.275,2.128-5.378,2,5.459,6.014,8.358,10.307,10.923a8.987,8.987,0,0,0,3.559,1c.549.062,1.172-.567,1.758-.882a6.088,6.088,0,0,0-1.018-1.542c-2.732-2.2-5.52-4.318-8.277-6.489a8.323,8.323,0,0,1-.833-.851c-4.015-4.219-3.806-8.018.777-12,1.653,5.9,5.977,9.745,10.233,13.637a10.117,10.117,0,0,0,1.789,1.067l.555-.4a11.159,11.159,0,0,0-1.264-2.282c-1.912-2.109-4.065-4.015-5.878-6.2-4.54-5.471-4.2-8.247,1.11-12.669a71.481,71.481,0,0,0,3.028,8.345,40.516,40.516,0,0,0,4.466,6.26,3.084,3.084,0,0,0,1.628,1.086,9.924,9.924,0,0,0,2.412,0c-.086-.783.08-1.727-.3-2.325-2.079-3.306-4.318-6.532-6.446-9.789a22.153,22.153,0,0,1-1.234-2.054c-1.1-2.134-.759-3.38,1.234-4.725,1.1-.74,2.177-1.5,3.275-2.239.327-.222.678-.413,1.172-.709-.1,2.066-.29,4.015-.265,5.964.031,2.917,4.151,8.586,6.84,9.493a1.69,1.69,0,0,0,1.437-.142,1.591,1.591,0,0,0,.148-1.437c-.506-1.147-1.271-2.177-1.77-3.325a53.664,53.664,0,0,1-2.788-6.957c-.691-2.467.487-3.923,3.022-4.318,1.11-.179,2.239-.241,3.362-.352,3.084-.29,6.063-.82,8.351-3.417a78.754,78.754,0,0,1,5.138,6.168,3.306,3.306,0,0,1-.1,3.084c-1.733,2.325-3.781,4.41-5.712,6.594a25.609,25.609,0,0,0-2.467,2.862,2.072,2.072,0,0,0,.1,1.8c.136.241,1.172.228,1.6,0a15.981,15.981,0,0,0,3.4-2.381c2.9-2.893,5.675-5.9,8.592-8.968a10.986,10.986,0,0,1,2.936,5.915c.345,2.572-1.579,5.206-4.546,6.594-3.528,1.659-7.044,3.343-10.486,5.138-.691.358-1.092,1.264-1.628,1.918a6.893,6.893,0,0,0,2.51.574,25.389,25.389,0,0,0,12.4-6.341,9.833,9.833,0,0,1,.981-.981c.888-.574,2.183-1.715,2.665-1.449a4.954,4.954,0,0,1,1.85,2.819,4.322,4.322,0,0,1-2.251,5.249c-3.349,1.85-6.853,3.423-10.313,5.058-1.5.709-3.084,1.283-4.614,1.918l.191.7a14.015,14.015,0,0,0,2.245-.148,36.514,36.514,0,0,0,13.033-5.187c1.561-1.079,2.017-.894,2.56.962a5.829,5.829,0,0,1-4.934,7.6c-3.349.432-6.735.617-10.085,1.067a9.1,9.1,0,0,0-2.615,1.326c.9.382,1.85,1.16,2.689,1.073q5.915-.58,11.781-1.585c2.128-.364,2.893.234,2.362,2.3a5.163,5.163,0,0,1-5.15,4.083C354.453,136.636,350.21,136.451,345.738,136.29Zm-5.3-34.393c.833-.789,1.19-5.681.481-6.421s-1.937-.876-2.22.247a16.246,16.246,0,0,0-.463,5.36C338.336,102.157,339.465,102.546,340.44,101.9Z" transform="translate(-126.853 -61.115)" fill="#f4f0f8"/>
    <path id="Path_3896" data-name="Path 3896" d="M369.839,138.3l4.879,8.5c-.043-5.317-2.615-10.486-.068-15.7-.389,5.452,2.578,9.869,4.515,14.606-1.752-6.069-3.281-12.132-.833-18.245.8,2.467,1.462,4.934,2.436,7.278,2.208,5.323,4.04,10.689,3.491,16.654.66-1.382,1.375-2.745,1.949-4.157.142-.358-.111-.925-.29-1.351a44.552,44.552,0,0,1-3.473-19.121,10.24,10.24,0,0,1,1.005-3.7c1.678,7.118,5.693,13.761,3.621,21.489l.382.043c.617-1.462,1.277-2.905,1.85-4.392.117-.327-.136-.827-.29-1.234a33.677,33.677,0,0,1-2.239-15.531,21.792,21.792,0,0,1,.753-3.17h.358l1.338,7.031c0-2.874-.333-5.73,1.234-8.481l2.1,13.335c.08-.438.2-1.061.308-1.684.617-3.818,1.172-7.667,1.986-11.448a19.067,19.067,0,0,1,1.955-4.108l.574.154-2.066,12.077,9.375-7.815.537.475a59.28,59.28,0,0,1-4.318,5.86,25.289,25.289,0,0,1-5.823,4.836c-2.14,1.2-2.64,3.084-3.3,5.064,4.521-4.015,9.943-6.359,15.42-8.635a29.465,29.465,0,0,1-7.963,6.834,54,54,0,0,1-6.877,3.251,2.917,2.917,0,0,0-2.1,2.06c-.241.919-.709,1.776-.981,2.813,5.6-4.6,12.225-7.025,18.985-9.19a33.684,33.684,0,0,1-9.585,7.2,65.936,65.936,0,0,1-8.413,3.318c-1.338.438-2.325.882-2.665,2.331-.154.617-.506,1.234-.7,2.011,6.464-3.7,13.613-4.515,20.755-5.36l.179.382c-2.1,1.079-4.17,2.22-6.3,3.226a35.879,35.879,0,0,1-13.335,3.306c-2.418.142-2.708.376-3.368,3.226,6.785-3.873,14.106-2.214,21.175-2.732l.129.432c-2.541.9-5.052,1.906-7.636,2.671a31.617,31.617,0,0,1-12.953,1.116c-1.326-.167-1.961.2-2.319,1.406a19.175,19.175,0,0,1-.907,2.017c7.044-3.146,13.94-.919,20.8-.944l.086.352c-1.357.463-2.7.975-4.083,1.369a37.476,37.476,0,0,1-4.2,1.012,34.368,34.368,0,0,1-12.447-.068,1.234,1.234,0,0,0-1.56.777c-1.067,1.986-2.208,3.935-3.343,5.89a12.72,12.72,0,0,1-.87,1.178l-.407-.259L380.115,160C370.628,149.849,369.043,143.4,369.839,138.3Zm11.9,17.992c.358-.617.783-1.3,1.141-2,.154-.308.327-.79.191-1.036-.919-1.733-1.912-3.429-2.658-4.731Zm8.432-18.467c2.023-2.406.8-4.712-.117-7.081Z" transform="translate(-152.286 -71.029)" fill="#ede6f3"/>
    <path id="Path_3897" data-name="Path 3897" d="M311.465,234.428a54.964,54.964,0,0,1-8.284,22.359q-1.184,1.85-2.5,3.664a78.457,78.457,0,0,1-10.066,11.226q-1.357,1.277-2.782,2.467c-1.974,1.7-4.052,3.343-6.211,4.934l-1.678,1.234q-3.54,2.5-7.4,4.8a150.007,150.007,0,0,1-20.971,10.362c-26.911,10.917-58.849,15.7-86.74,12.947-4.533-.45-9.178-1.116-13.884-2a182.8,182.8,0,0,1-17.788-4.318q-5.588-1.641-11.146-3.651a186.97,186.97,0,0,1-21.588-9.338C67.38,272.244,40.111,245.333,37.6,211.261c-3.01-40.887,29.97-86.715,57.405-86.1,28.619.617,33.079,51.422,69,60.847.95.253,1.931.475,2.93.666,35.774,6.785,55.228-34.787,88.621-31.537.364.037.728.074,1.092.13s.617.074.894.117h.216c.241.037.475.074.716.123h0c.475.08.962.173,1.443.271l.888.2.672.16c.3.074.617.148.888.234a48.11,48.11,0,0,1,9.005,3.479l.555.284c.617.315,1.234.617,1.85.987h0l.567.327q1.924,1.123,3.781,2.405c.308.2.617.419.913.617l.321.234.469.339q.888.66,1.758,1.351c.888.7,1.752,1.412,2.609,2.171h0c.845.734,1.672,1.493,2.467,2.282.3.284.586.567.876.87.981.962,1.943,1.968,2.874,3q.925,1.018,1.813,2.072c.561.66,1.11,1.338,1.653,2.023a85.328,85.328,0,0,1,6.723,9.832q1.289,2.171,2.467,4.429a82.4,82.4,0,0,1,7.852,22.914A60.809,60.809,0,0,1,311.465,234.428Z" transform="translate(-24.966 -74.949)" fill="#faf9fb"/>
    <path id="Path_3898" data-name="Path 3898" d="M184.52,230.38" transform="translate(-81.34 -115.273)" fill="#dee5fd"/>
    <path id="Path_3899" data-name="Path 3899" d="M263.323,354.632l23.185-78.278c.574-1.943,1.715-2.412,2.535-1.042h0a8.8,8.8,0,0,1,.438,6.032L266.29,359.622c-.574,1.943-1.715,2.412-2.535,1.042h0A8.745,8.745,0,0,1,263.323,354.632Z" transform="translate(-111.41 -132.191)" fill="#ede6f3"/>
    <path id="Path_3900" data-name="Path 3900" d="M285.831,356.739l-20.1-82.972c-.5-2.06-.2-4.725.666-5.915h0c.863-1.19,1.98-.475,2.467,1.585l20.12,82.972c.5,2.06.2,4.725-.666,5.915h0C287.447,359.514,286.331,358.8,285.831,356.739Z" transform="translate(-112.367 -129.412)" fill="#ede6f3"/>
    <rect id="Rectangle_1320" data-name="Rectangle 1320" width="87.166" height="79.067" transform="translate(119.309 78.463)" fill="#f4f0f8"/>
    <path id="Path_3901" data-name="Path 3901" d="M281.007,244.561h33.609c.882,0,.913.382.938,1.061.031.777-.271.925-.981.925H279.952c-.709,0-.968-.16-.962-.925q.037-17.708,0-35.416c.049,0,.1-.08.154-.086,1.7-.16,1.7-.16,1.7,1.536,0,3.7-.043,7.352,0,11.022.049,2.924.4,5.853.16,8.771-.327,4.052-.068,8.1-.173,12.157A1.486,1.486,0,0,0,281.007,244.561Z" transform="translate(-117.541 -107.484)" fill="#ede6f3"/>
    <path id="Path_3902" data-name="Path 3902" d="M268.155,201h-21.28c-.487,0-1,.148-1.005-.7s.395-.894,1.049-.894H289.3c.426,0,1.024-.2,1.116.53s0,1.067-.888,1.061C282.341,200.952,275.248,201,268.155,201Z" transform="translate(-104.849 -103.393)" fill="#ede6f3"/>
    <path id="Path_3903" data-name="Path 3903" d="M294.99,223.186c-.062-.185-.339-.216-.321-.456a2.048,2.048,0,0,1,1.579-.037,24.636,24.636,0,0,0,.715,4.891c.426,2.732,1.018,5.44,1.462,8.179.419,2.56.962,5.095,1.462,7.642,0,.074.111.123.271.3.691-2.122,1.166-4.231,1.955-6.236a.814.814,0,0,1,1.092-.074,43.444,43.444,0,0,1,1.616,5.755c0,.16.068.308.253.3s.222-.16.241-.315c.352-2.961,1.16-5.835,1.678-8.765.321-1.85.74-3.639,1.1-5.459.056-.29.068-.586.1-.876a1.431,1.431,0,0,1,1.234,0c.938,5.508,2.177,10.96,3.251,16.6a5.909,5.909,0,0,0,1.1-2.1q1.554-3.7,3.139-7.334c1.172-2.683,2.258-5.409,3.392-8.111.475-1.135.987-2.257,1.486-3.38.093-.21.13-.395-.074-.555.617-.487.981-.358,1.16.389-.271,0-.382.111-.506.37-.783,1.678-1.431,3.411-2.134,5.119-.746,1.813-1.579,3.6-2.356,5.4-.617,1.5-1.234,3.028-1.9,4.533q-.851,2.023-1.727,4.034c-.475,1.1-.968,2.2-1.456,3.294-.056.123,0,.327-.216.321s-.284-.191-.3-.37c-.364-2.961-1.2-5.835-1.653-8.777-.179-1.135-.475-2.251-.7-3.374-.3-1.474-.617-2.948-.882-4.422-.037-.185.086-.481-.216-.493s-.278.253-.3.463c-.241,2.14-.8,4.225-1.234,6.328-.456,2.22-.87,4.447-1.357,6.661-.253,1.129-.567,2.257-.771,3.436-.944-2.677-1.6-5.422-2.338-8.148l-.278-.043-2.689,8.87a12.62,12.62,0,0,1-.4-1.56c-.216-1.85-.715-3.645-.981-5.483-.241-1.635-.586-3.251-.851-4.879-.382-2.325-.981-4.62-1.3-6.945-.173-1.234-.567-2.418-.617-3.658-.037-.722-.327-.154-.512-.093C294.873,223.871,295.07,223.495,294.99,223.186Z" transform="translate(-123.549 -112.274)" fill="#ede6f3"/>
    <path id="Path_3904" data-name="Path 3904" d="M268.1,195.873H246.82c-.506,0-1.012.111-.981-.715s.456-.759,1-.759h42.645c.506,0,.9-.037.913.709s-.376.771-.931.771Q278.782,195.861,268.1,195.873Z" transform="translate(-104.837 -101.485)" fill="#ede6f3"/>
    <path id="Path_3905" data-name="Path 3905" d="M268.14,190.68H246.78c-.475,0-.95.1-.95-.666s.352-.814.944-.814h42.744c.537,0,.894,0,.876.74,0,.617-.21.753-.777.746h-6.859Z" transform="translate(-104.834 -99.493)" fill="#ede6f3"/>
    <path id="Path_3906" data-name="Path 3906" d="M238.256,231.382H225.624c-.691,0-.919-.167-.913-.888V215.456c0-.352-.148-.851.487-.827s.4.5.4.808v13.255c0,1.616,0,1.616,1.573,1.616h23.759c.395,0,.876-.123.851.561s-.481.487-.833.487h-9.789Z" transform="translate(-96.735 -109.237)" fill="#ede6f3"/>
    <path id="Path_3907" data-name="Path 3907" d="M239.3,252.623H228c-.617,0-1,0-.987-.82s.352-.783.931-.783h22.686c.53,0,.993-.037,1,.746,0,.666-.191.857-.857.857C246.951,252.611,243.121,252.623,239.3,252.623Z" transform="translate(-97.622 -123.182)" fill="#ede6f3"/>
    <path id="Path_3908" data-name="Path 3908" d="M239.2,263H227.994c-.617,0-.993,0-.975-.82s.358-.783.931-.783h22.68c.555,0,1.042-.074,1.012.79s-.5.808-1.055.808Z" transform="translate(-97.626 -127.159)" fill="#ede6f3"/>
    <path id="Path_3909" data-name="Path 3909" d="M239.214,257.8h-11.3c-.617,0-.888-.1-.894-.814s.352-.79.925-.79h22.692c.537,0,.987-.031.993.753s-.444.839-1.024.839Z" transform="translate(-97.626 -125.168)" fill="#ede6f3"/>
    <path id="Path_3910" data-name="Path 3910" d="M239.338,266.59h11.38c.58,0,.925.049.919.8s-.419.715-.968.715c-1.955,0-3.91.08-5.86.049-2.665-.043-5.329,0-8.018-.056q-4.533-.043-9.073,0c-.524,0-.74-.062-.709-.617s.037-.876.746-.87c3.7.031,7.352,0,11.028,0Z" transform="translate(-97.62 -129.149)" fill="#ede6f3"/>
    <path id="Path_3911" data-name="Path 3911" d="M251.487,218.79c.4,2.319.771,4.54,1.172,6.785.278,1.542.555,3.084.913,4.6.13.549,0,.685-.506.678h-3.38c-.506,0-.58-.167-.487-.617.617-3.158,1.073-6.341,1.783-9.474C251.123,220.1,250.913,219.413,251.487,218.79Z" transform="translate(-106.112 -110.832)" fill="#ffe592"/>
    <path id="Path_3912" data-name="Path 3912" d="M230.7,218.9c.518,2.813,1.024,5.551,1.53,8.271.191,1.042.37,2.091.617,3.133.093.407,0,.543-.413.543h-3.553c-.518,0-.469-.3-.4-.654q.549-2.917,1.073-5.841c.259-1.456.512-2.905.765-4.361A1.912,1.912,0,0,1,230.7,218.9Z" transform="translate(-98.171 -110.874)" fill="#ffe592"/>
    <path id="Path_3913" data-name="Path 3913" d="M262.191,224.14a6.183,6.183,0,0,1,.66,2.214c.537,1.961.987,3.947,1.5,5.915.117.438.043.617-.419.617h-3.38c-.432,0-.617-.142-.493-.58C260.76,229.6,261.463,226.934,262.191,224.14Z" transform="translate(-110.271 -112.882)" fill="#ffd993"/>
    <path id="Path_3914" data-name="Path 3914" d="M240.621,224.616l1.961,7.525c.154.617.068.95-.7.907-1.005-.062-2.017,0-3.022,0-.364,0-.617-.1-.512-.5q1.018-3.969,2.06-7.938Z" transform="translate(-101.957 -113.062)" fill="#ffd993"/>
    <path id="Path_3915" data-name="Path 3915" d="M307.21,244.738l-1.092.074c-.512-.407-1.03-.845-1-1.567a1.5,1.5,0,0,1,1.178-1.468,1.48,1.48,0,0,1,1.85.956,1.338,1.338,0,0,1-.617,1.739C307.432,244.553,307.327,244.646,307.21,244.738Z" transform="translate(-127.553 -119.615)" fill="#ffe592"/>
    <path id="Path_3916" data-name="Path 3916" d="M317.329,229.631a1.727,1.727,0,0,1-1.234,0,1.554,1.554,0,0,1-.74-2.035,1.523,1.523,0,0,1,2.856.228,1.449,1.449,0,0,1-.882,1.807Z" transform="translate(-131.424 -113.864)" fill="#ffe592"/>
    <path id="Path_3917" data-name="Path 3917" d="M295.707,222.2a2.572,2.572,0,0,1-2.227.049,2.2,2.2,0,0,1-.654-3.294,2.313,2.313,0,0,1,3.084-.2C296.947,219.684,296.855,221.066,295.707,222.2Z" transform="translate(-122.656 -110.629)" fill="#ffe592"/>
    <path id="Path_3918" data-name="Path 3918" d="M339.515,222.308a.845.845,0,0,0-1.16-.389c-.493,0-.4-.222-.2-.463.617-.691,1.19-1.369,1.85-2.146a11.248,11.248,0,0,1-.154,3.01C339.848,222.591,339.632,222.468,339.515,222.308Z" transform="translate(-140.151 -111.031)" fill="#ede6f3"/>
    <rect id="Rectangle_1321" data-name="Rectangle 1321" width="104.467" height="4.33" rx="2.165" transform="translate(109.694 76.255)" fill="#ede6f3"/>
    <rect id="Rectangle_1322" data-name="Rectangle 1322" width="104.467" height="4.33" rx="2.165" transform="translate(109.694 153.2)" fill="#ede6f3"/>
    <path id="Path_3919" data-name="Path 3919" d="M312.714,200.678c-1.517-.08-3.035-.167-4.552-.228-.456,0-1.03-.031-1.16.487a.938.938,0,0,0,.691,1.061c4.237.617,3.473,3.084,2.288,5.841a14.486,14.486,0,0,0-.617,2.665c.056.981.666,1.5,1.523,1.2,1.783-.617,2.739.284,3.59,1.61.765,1.19,1.536,1.289,2.418.068a16.117,16.117,0,0,1,3.127-3.343c.154-.413.5-.851,0-1.234-2.227-1.579-3.244-4.015-4.54-6.267a3.429,3.429,0,0,0-2.769-1.857Z" transform="translate(-128.27 -103.804)" fill="#ffaa7d"/>
    <path id="Path_3920" data-name="Path 3920" d="M346.349,245.186c-.617-.987-.1-1.69.617-2.338a1.909,1.909,0,0,1,2.325.241,1.77,1.77,0,0,1,.2,2.288l-.271.29C347.878,246.469,347.471,246.4,346.349,245.186Z" transform="translate(-143.247 -119.946)" fill="#b1bfcf"/>
    <path id="Path_3921" data-name="Path 3921" d="M337.558,233.345l.29-.3c1.474-.66,2.689-.062,2.566,1.3a1.412,1.412,0,0,1-1.554,1.468c-1.018,0-1.437-.617-1.511-1.5A1.912,1.912,0,0,1,337.558,233.345Z" transform="translate(-139.903 -116.19)" fill="#b1bfcf"/>
    <path id="Path_3922" data-name="Path 3922" d="M394.57,90.287a34.419,34.419,0,0,1,.839,6.3,21.538,21.538,0,0,1-1.85,8.086c-.136.3-1.135,2.109-1.3,2.35a22.434,22.434,0,0,1-4.176,4.577c-.321.259-.574.438-.894,0q-3.664-5.021-7.34-10.035a25.159,25.159,0,0,1-3.337-4.114c-1.092-1.388-2.1-2.887-3.2-4.318a7.266,7.266,0,0,1-1.234-2.029l-6.594-8.82a.124.124,0,0,0-.043-.093c-1.11-1.573-1.129-1.6.537-2.547a19.534,19.534,0,0,1,14.927-2.048,17.973,17.973,0,0,1,8.709,5c.678.7,1.3.376,1.974.407,1.234.308,1.85.87,1.678,2.054a6.255,6.255,0,0,0,.925,3.7,2.152,2.152,0,0,1,.376,1.53Z" transform="translate(-150.371 -56.474)" fill="#ccc6d2"/>
    <path id="Path_3923" data-name="Path 3923" d="M376.325,99.94c1.067,1.425,2.14,2.85,3.2,4.281q2.282,3.084,4.546,6.168a27.142,27.142,0,0,1-3.812-.438,7.112,7.112,0,0,1-4.54-5.736,6.226,6.226,0,0,1,.506-3.485,2.153,2.153,0,0,0,.1-.79Z" transform="translate(-154.596 -65.288)" fill="#ffc200"/>
    <path id="Path_3924" data-name="Path 3924" d="M448.856,145.58c0-1.283-.617-1.789-1.85-1.807h-3.2a1,1,0,0,1-1.042-.617c-1.813-3.38-3.7-6.723-5.588-10.072-2.079-3.7-4.182-7.4-6.254-11.1-2.51-4.521-5-9.067-7.494-13.57q-2.745-4.934-5.514-9.869c-.13-.241-.444-.617,0-.728.962-.308.487-.87.228-1.271-1.733-2.56-3.411-5.169-5.341-7.587-1.1-1.363-2.35-2.554-4.318-2.091h0c1.437.956,1.807,1.61,1.357,2.862a1.431,1.431,0,0,0,.1,1.19c.475,1.067.987,2.128,1.474,3.189h0c.894,1.425,1.758,2.88,2.7,4.281.345.518.413,1.5,1.487,1.16.173-.049.222.179.3.333.79,1.425,1.591,2.843,2.381,4.268,2.054,3.7,4.083,7.476,6.168,11.2,1.894,3.392,3.892,6.742,5.755,10.165q4.41,8.1,8.95,16.117c.734,1.289,1.85,2.554,1.036,4.256v4.385a2.315,2.315,0,0,0,.888,2.011.506.506,0,0,0,.543.358c1.067-.179,1.055.469,1.055,1.234V171.5c0,.389-.117.8.148,1.16v33.893q0,19.62.049,39.247,1.314-1.807,2.5-3.664v-6.464q0-15.728-.062-31.457c0-.333-.031-.66-.049-.987.062-.617.117-1.234.136-1.85a8.607,8.607,0,0,0-.13-3.127.686.686,0,0,0-.043-.16v-1.412a.432.432,0,0,0,.2-.4V184.722c0-.234.037-.469-.16-.654V154.412c0-1.746,0-1.746,1.776-1.8a1.7,1.7,0,0,0,1.85-1.739Q448.923,148.17,448.856,145.58Zm-6.711,6.914a.543.543,0,0,1,.475.284A1.006,1.006,0,0,0,442.145,152.494Z" transform="translate(-167.162 -60.24)" fill="#ccc6d2"/>
    <circle id="Ellipse_65" data-name="Ellipse 65" cx="23.358" cy="23.358" r="23.358" transform="translate(103.396 0)" fill="#ede6f3"/>
    <circle id="Ellipse_66" data-name="Ellipse 66" cx="20.077" cy="20.077" r="20.077" transform="translate(106.677 3.281)" fill="#f4f0f8"/>
    <path id="Path_3925" data-name="Path 3925" d="M215.007,79.52a1.659,1.659,0,0,1-1.042-1.271,1.184,1.184,0,0,1-.031-.456c0-.1-.056-.136-.117-.173l-1.456-.864L209.715,75.2l-2.393-1.419c-.851-.506-1.709-1-2.56-1.511a.709.709,0,1,1,.74-1.209c.808.469,1.61.95,2.412,1.425l2.362,1.4,2.671,1.579,1.585.938a.222.222,0,0,0,.259,0,1.708,1.708,0,0,1,1.406-.16.2.2,0,0,0,.228-.08l2.541-2.56c.555-.555,1.11-1.1,1.659-1.665a.746.746,0,0,1,1.036-.1.685.685,0,0,1,.117,1.042c-.117.136-.234.265-.364.395-.944.944-1.881,1.887-2.831,2.831-.352.352-.691.709-1.049,1.049a.29.29,0,0,0-.092.3,1.85,1.85,0,0,1-.376,1.628,1.6,1.6,0,0,1-1.314.617c-.13,0-.284.093-.382-.068a.216.216,0,0,1,0-.179c.068-.345.185-.617.617-.678s.561-.438.66-.808a.438.438,0,0,0-.08-.327.925.925,0,0,0-1.733-.13.9.9,0,0,0,.284,1.135.3.3,0,0,1,.148.358c-.037.1-.049.21-.086.308S215.112,79.508,215.007,79.52Z" transform="translate(-88.969 -54.182)" fill="#ede6f3"/>
    <path id="Path_3926" data-name="Path 3926" d="M243.973,81.72a.567.567,0,0,1,.58-.45H247.6a.82.82,0,0,1,.5.228.45.45,0,0,1,.111.567.58.58,0,0,1-.555.395h-2.967a.691.691,0,0,1-.376-.056A.47.47,0,0,1,243.973,81.72Z" transform="translate(-104.106 -58.134)" fill="#ede6f3"/>
    <path id="Path_3927" data-name="Path 3927" d="M222.212,107.754a.617.617,0,0,1-.456-.617v-2.911a.617.617,0,0,1,.352-.654.574.574,0,0,1,.666.167.426.426,0,0,1,.2.389q0,1.511,0,3.028a.709.709,0,0,1-.191.463.506.506,0,0,1-.567.136Z" transform="translate(-95.606 -66.663)" fill="#ede6f3"/>
    <path id="Path_3928" data-name="Path 3928" d="M195.069,82.451a.586.586,0,0,1-.456-.845.518.518,0,0,1,.487-.3h3.084a.74.74,0,0,1,.432.185.475.475,0,0,1,.16.617.555.555,0,0,1-.53.4H195.26A.364.364,0,0,1,195.069,82.451Z" transform="translate(-85.184 -58.149)" fill="#ede6f3"/>
    <path id="Path_3929" data-name="Path 3929" d="M222.209,58.267a.574.574,0,0,1-.45-.617V54.7a.617.617,0,0,1,.308-.58.555.555,0,0,1,.678.1h.037a.574.574,0,0,1,.2.487v2.856a.8.8,0,0,1-.074.37.5.5,0,0,1-.7.333Z" transform="translate(-95.609 -47.701)" fill="#ede6f3"/>
    <path id="Path_3930" data-name="Path 3930" d="M200.384,69.481c-.481-.271-.968-.543-1.449-.82a.157.157,0,0,1,.167-.265l1.462.857C200.649,69.425,200.6,69.493,200.384,69.481Z" transform="translate(-86.835 -53.191)" fill="#ede6f3"/>
    <path id="Path_3931" data-name="Path 3931" d="M245.254,95.392l-1.4-.808c-.093-.056-.167-.136-.093-.247s.173-.068.265,0l1.375.8a.167.167,0,0,1,.056.216C245.414,95.429,245.334,95.423,245.254,95.392Z" transform="translate(-104.03 -63.115)" fill="#ede6f3"/>
    <path id="Path_3932" data-name="Path 3932" d="M208.9,104.935a.179.179,0,0,1-.037-.265c.253-.432.5-.87.753-1.308.074-.136.179-.2.315-.068a.2.2,0,0,1,0,.265c-.241.426-.475.857-.728,1.277a.228.228,0,0,1-.3.1Z" transform="translate(-90.652 -66.545)" fill="#ede6f3"/>
    <path id="Path_3933" data-name="Path 3933" d="M243.952,69.474c-.092,0-.185,0-.216-.111s.049-.167.123-.21l1.314-.759a.191.191,0,1,1,.2.321c-.432.253-.857.524-1.3.752a.142.142,0,0,1-.123.006Z" transform="translate(-104.029 -53.184)" fill="#ede6f3"/>
    <path id="Path_3934" data-name="Path 3934" d="M198.946,95.394c-.13-.16-.117-.21.055-.308l1.289-.759a.191.191,0,0,1,.278.056c.13.167,0,.228-.117.29-.308.2-.617.376-.95.561a.95.95,0,0,1-.469.185C199,95.419,198.946,95.425,198.946,95.394Z" transform="translate(-86.835 -63.123)" fill="#ede6f3"/>
    <path id="Path_3935" data-name="Path 3935" d="M235.582,104.954l-.8-1.375c-.074-.13-.092-.234.068-.308a.37.37,0,0,1,.3.21c.253.395.481.808.7,1.234.049.093.074.185,0,.265a.191.191,0,0,1-.271-.025Z" transform="translate(-100.581 -66.564)" fill="#ede6f3"/>
    <path id="Path_3936" data-name="Path 3936" d="M209.631,60.008c-.247-.438-.493-.882-.746-1.314-.049-.086-.1-.16,0-.247s.179,0,.259.043a2.369,2.369,0,0,1,.456.691c.123.2.247.413.358.617.056.1.08.222,0,.29a.191.191,0,0,1-.327-.08Z" transform="translate(-90.655 -49.374)" fill="#ede6f3"/>
    <path id="Path_3937" data-name="Path 3937" d="M234.747,60.037c-.037-.241.148-.389.247-.574.167-.333.37-.648.555-.968.08-.136.167-.142.3,0a.16.16,0,0,1,0,.222c-.234.438-.481.876-.753,1.3C235.012,60.142,234.9,60.148,234.747,60.037Z" transform="translate(-100.585 -49.367)" fill="#ede6f3"/>
    <path id="Path_3938" data-name="Path 3938" d="M221.511,81.3h0a1.234,1.234,0,0,0-.068-.191,1.012,1.012,0,0,0-1.579-.234.993.993,0,0,0,.117,1.554c.049.037.148.062.1.154a5.7,5.7,0,0,1-.2.617,1.23,1.23,0,0,1,0,.191q-.407,1.48-.82,2.961c-.216.765-.438,1.536-.617,2.3-.247.888-.481,1.783-.722,2.671q-.284,1.036-.567,2.066a.216.216,0,0,0,.16.308c.154.037.234-.049.29-.179a4.687,4.687,0,0,0,.16-.567c.253-.907.5-1.813.752-2.714.222-.79.426-1.579.654-2.368.123-.432.241-.87.358-1.3s.284-1.03.426-1.542.284-.987.407-1.486a.29.29,0,0,0,0-.222.191.191,0,0,1,0-.16,3.487,3.487,0,0,1,.142-.469c.08-.16.321-.056.456-.167h.055A.987.987,0,0,0,221.511,81.3Z" transform="translate(-93.838 -57.876)" fill="#ffd993"/>
    <rect id="Rectangle_1323" data-name="Rectangle 1323" width="40.715" height="4.49" transform="translate(58.697 62.963)" fill="#ede6f3"/>
    <path id="Path_3939" data-name="Path 3939" d="M132.7,152.673H113.1c-.29,0-.759.185-.827-.253s.432-.512.783-.555a16.2,16.2,0,0,1,1.98-.167H152.3c.444,0,.938-.08.857.586,0,.241-.123.382-.4.389Z" transform="translate(-53.653 -85.121)" fill="#f4f0f8"/>
    <rect id="Rectangle_1324" data-name="Rectangle 1324" width="11.213" height="34.639" transform="translate(85.688 28.299)" fill="#ede6f3"/>
    <path id="Path_3940" data-name="Path 3940" d="M166.423,102.565v5.983c0,.419-.086.567-.53.561h-5.126c-.58,0-.617-.284-.617-.709V96.563c0-.481.167-.58.617-.574h5.187c.419,0,.506.148.5.53C166.417,98.537,166.423,100.554,166.423,102.565Z" transform="translate(-72.001 -63.775)" fill="#fdfdfd"/>
    <path id="Path_3941" data-name="Path 3941" d="M165.988,134.388a1.949,1.949,0,1,1-1.937-1.949,1.85,1.85,0,0,1,1.937,1.949Z" transform="translate(-72.745 -77.741)" fill="#f4f0f8"/>
    <path id="Path_3942" data-name="Path 3942" d="M164.4,136.141a1.437,1.437,0,0,1-1.523-1.456,1.468,1.468,0,0,1,1.468-1.456,1.431,1.431,0,0,1,1.443,1.462,1.406,1.406,0,0,1-1.388,1.449Z" transform="translate(-73.047 -78.045)" fill="#ffe592"/>
    <rect id="Rectangle_1325" data-name="Rectangle 1325" width="11.213" height="34.639" transform="translate(61.392 28.299)" fill="#ede6f3"/>
    <path id="Path_3943" data-name="Path 3943" d="M124.667,133.078a1.85,1.85,0,0,1,1.918,1.986A1.943,1.943,0,0,1,122.7,135a1.85,1.85,0,0,1,1.968-1.924Z" transform="translate(-57.649 -77.985)" fill="#f4f0f8"/>
    <path id="Path_3944" data-name="Path 3944" d="M120.78,96.683c1.949,0,3.9,0,5.847-.043.518,0,.407.345.407.617v12c0,.265-.049.469-.4.463-1.949,0-3.9,0-5.847-.037Z" transform="translate(-56.914 -64.024)" fill="#fdfdfd"/>
    <path id="Path_3945" data-name="Path 3945" d="M126.411,135.35a1.456,1.456,0,1,1-1.443-1.48,1.431,1.431,0,0,1,1.443,1.48Z" transform="translate(-57.957 -78.29)" fill="#ffe592"/>
    <rect id="Rectangle_1326" data-name="Rectangle 1326" width="11.213" height="34.639" transform="translate(73.537 28.299)" fill="#f4f0f8"/>
    <path id="Path_3946" data-name="Path 3946" d="M146.717,103.131v5.921c0,.53-.117.746-.715.734-1.647-.043-3.294,0-4.934,0-.444,0-.617-.13-.617-.586V97.117c0-.376.123-.487.493-.487h5.249c.407,0,.518.136.518.524v5.977Z" transform="translate(-64.452 -64.02)" fill="#fdfdfd"/>
    <path id="Path_3947" data-name="Path 3947" d="M144.353,133.056a1.85,1.85,0,0,1,1.937,1.887,1.887,1.887,0,0,1-1.924,2.042,1.937,1.937,0,0,1-2.011-1.9,1.85,1.85,0,0,1,2-2.029Z" transform="translate(-65.178 -77.976)" fill="#ede6f3"/>
    <path id="Path_3948" data-name="Path 3948" d="M144.66,136.791a1.449,1.449,0,0,1-1.48-1.456,1.419,1.419,0,0,1,1.468-1.456,1.443,1.443,0,0,1,1.462,1.406A1.5,1.5,0,0,1,144.66,136.791Z" transform="translate(-65.498 -78.294)" fill="#ffe592"/>
    <path id="Path_3949" data-name="Path 3949" d="M161.958,369.129c-.962-2.708-5.163-17.622-6.045-20.595a.851.851,0,0,1,.21-.8c2.042,0,4.077-.062,6.119,0,.833,0,1.672-.537,2.467,0l.043,3.374c.216,1.69.265,3.4.333,5.095.154,3.923,1.406,13.187,1.073,13.933C165.566,370.165,162.124,369.665,161.958,369.129Z" transform="translate(-70.367 -160.152)" fill="#ccc6d2"/>
    <path id="Path_3950" data-name="Path 3950" d="M56.486,367.858c.962-2.708,5.163-17.622,6.045-20.595a.851.851,0,0,0-.21-.8c-2.042,0-4.077-.062-6.119,0-.833,0-1.672-.537-2.467,0l-.043,3.374c-.216,1.69-.265,3.4-.333,5.095-.154,3.923-1.406,13.187-1.073,13.933C52.877,368.907,56.294,368.4,56.486,367.858Z" transform="translate(-30.646 -159.665)" fill="#ccc6d2"/>
    <path id="Path_3951" data-name="Path 3951" d="M133.77,255.062v-.888a29.089,29.089,0,0,0-1.234-9.32q-.117-.339-.253-.666a8.808,8.808,0,0,0-2.948-4.028,6.921,6.921,0,0,0-5.076-1.462h-1.542a1.479,1.479,0,0,0-.469.049l.247-.111-.2-.333c-4.33-7.815-9.98-14.458-17.628-19.195a30.55,30.55,0,0,0-11.01-4.281,25.2,25.2,0,0,0-4.718-.37h-.265q-6.581.086-13.169.1t-13.169-.1h-.265a25.2,25.2,0,0,0-4.718.37,30.55,30.55,0,0,0-11.016,4.281c-7.667,4.737-13.3,11.38-17.647,19.176l-.2.333.247.111c-.154,0-.308-.037-.469-.049H26.731a6.921,6.921,0,0,0-5.076,1.462,8.808,8.808,0,0,0-2.948,4.028q-.136.327-.253.672a30.064,30.064,0,0,0-1.234,9.32v2.634a100.538,100.538,0,0,0,1.271,15.771q.29,1.758.617,3.5a2.466,2.466,0,0,0,.08.413,51.683,51.683,0,0,0,5.44,15.42,16.4,16.4,0,0,0,5.594,6.168h90.533a15.947,15.947,0,0,0,5.594-6.168,52.007,52.007,0,0,0,5.44-15.42,2.469,2.469,0,0,0,.08-.413q.345-1.739.617-3.5a100.537,100.537,0,0,0,1.271-15.771v-.678Q133.782,255.6,133.77,255.062Zm-85.507,5.212-1.449.438a19.125,19.125,0,0,0-3.442,1.234l-.241.1a15.2,15.2,0,0,0-3.454,2.066c-.987.691-1.363.956-1.554.617l-.247-1.3V263.3a1.949,1.949,0,0,0-.1-.561v-.056c-.5-2.7-.962-5.317-1.456-7.926-.789-4.145-1.437-8.358-3.288-12.243a10.844,10.844,0,0,0-.919-1.6,4.62,4.62,0,0,0-2.344-1.906,7.093,7.093,0,0,0,.771.049h.648a10.608,10.608,0,0,1,1.16.093,8.4,8.4,0,0,1,5.705,3.516,10.679,10.679,0,0,1,.8,1.375,47.9,47.9,0,0,1,2.628,8.265,11.516,11.516,0,0,0,2.88,5.514l.086.08a8.993,8.993,0,0,0,3.836,2.214l.086.031a.95.95,0,0,1-.111.13Zm70.679-19.4a10.842,10.842,0,0,0-.919,1.6c-1.85,3.886-2.5,8.1-3.288,12.243-.5,2.609-.956,5.23-1.456,7.926v.056a1.95,1.95,0,0,0-.1.561v.123l-.247,1.3c-.2.364-.574.1-1.554-.617a15.2,15.2,0,0,0-3.454-2.066l-.241-.1a19.12,19.12,0,0,0-3.442-1.234l-1.449-.438a.957.957,0,0,1-.117-.13l.086-.031a8.993,8.993,0,0,0,3.836-2.214l.086-.08a11.569,11.569,0,0,0,2.88-5.514A46.193,46.193,0,0,1,112.194,244a10.674,10.674,0,0,1,.8-1.375,8.4,8.4,0,0,1,5.761-3.534,10.592,10.592,0,0,1,1.16-.092h.648a7.1,7.1,0,0,0,.771-.049,4.62,4.62,0,0,0-2.393,1.924Z" transform="translate(-17.23 -109.171)" fill="#ede6f3"/>
    <path id="Path_3952" data-name="Path 3952" d="M35.239,253.59c.765,0,1.53.056,2.294.056a8.683,8.683,0,0,1,8.543,5.607c.709,1.591,1.1,3.275,1.653,4.9,1.042,3.084,1.234,6.513,4.077,8.808a16.482,16.482,0,0,0,4.441,2.159,3.485,3.485,0,0,1-1.881.82,20.243,20.243,0,0,0-8.691,4.194c-.308.247-.58.789-1.049.617s-.327-.82-.407-1.277q-.672-3.984-1.363-7.95c-.395-2.233-.777-4.466-1.234-6.686a28.372,28.372,0,0,0-.938-3.547,21.427,21.427,0,0,0-2.56-5.644c-.82-1.153-2.116-1.505-3.355-1.949Z" transform="translate(-23.955 -124.167)" fill="#ccc6d2"/>
    <path id="Path_3953" data-name="Path 3953" d="M175,253.7c-3.176.913-4.219,3.473-5.267,6.279a54.555,54.555,0,0,0-2.251,9.344,37.889,37.889,0,0,0-1.123,6.7c0,1.684-1.234,3.176-.938,5.089-3.238-3.5-7.568-4.54-11.805-5.927,2.634-.678,4.842-1.85,6.168-4.176a9.351,9.351,0,0,0,1.351-3.2,24.671,24.671,0,0,1,1.049-3.984,24.119,24.119,0,0,1,1.974-5.274,8.977,8.977,0,0,1,8.592-4.885h2A.241.241,0,0,1,175,253.7Z" transform="translate(-69.499 -124.187)" fill="#ccc6d2"/>
    <path id="Path_3954" data-name="Path 3954" d="M124.817,323.174c-1,1.733-2.344,3.152-4.484,2.819a28.141,28.141,0,0,0-5.348.055h-2.208q-1.036-.049-2.079-.167a9.248,9.248,0,0,0-1.924.142c-6.631,0-13.261.185-19.9-.2-1.153-.068-2.313-.08-3.473-.062s-2.313,0-3.473.062c-6.631.382-13.267.2-19.9.2a9.248,9.248,0,0,0-1.924-.142q-1.042.117-2.079.167H55.822a29.188,29.188,0,0,0-5.348-.055c-2.146.333-3.491-1.086-4.484-2.819-.259-.444-.358-1-.981-1.234a6.211,6.211,0,0,0,1.073,3.3,4.4,4.4,0,0,0,4.176,2.6q17.573-.068,35.157-.062t35.157.062a4.42,4.42,0,0,0,4.176-2.6,6.211,6.211,0,0,0,1.073-3.3C125.187,322.174,125.07,322.73,124.817,323.174Z" transform="translate(-27.879 -150.359)" fill="#ccc6d2"/>
    <path id="Path_3955" data-name="Path 3955" d="M133.13,300.608l-.7,1.16a4.053,4.053,0,0,1-.827,2.591c-1.2,2.06-2.2,4.225-3.374,6.3-.216.382-.413.783-.882.919-1.517,2.621-3.022,5.249-4.546,7.864q-3.843,6.606-7.71,13.206a7.82,7.82,0,0,1-.561.74,1.172,1.172,0,0,1-.814.561,11.664,11.664,0,0,1-6.489-1.141,2.129,2.129,0,0,1-.746-.685c-.728-.672-.506-1.474-.308-2.276.956-3.96,2.017-7.889,3.022-11.836.771-3.035,1.431-6.1,2.35-9.1a4.089,4.089,0,0,1,.278-1.036c.993-4.429,2.319-8.765,3.331-13.187a3.849,3.849,0,0,1,.407-1.234q.506-2.06,1.135-4.083a15.827,15.827,0,0,1,4.453-7.124,8.48,8.48,0,0,1,4.237-2.171c.37-.062.74-.142,1.042.173l1.345.049c.376-.364.82-.222,1.234-.123a9.6,9.6,0,0,1,3.429,1.616c.487.66,1.289.938,1.82,1.591,2.967,3.7,3.614,7.648,1.715,12-.617,1.431-1.234,2.856-1.98,4.244a2.313,2.313,0,0,1-.857.981Z" transform="translate(-51.242 -134.295)" fill="#14ac63"/>
    <path id="Path_3956" data-name="Path 3956" d="M149.615,317.766A21.9,21.9,0,0,0,146.309,316c-.3-.154-.66-.265-.617-.722-.339.728-.654,1.474-1.03,2.19-1.338,2.547-2.7,5.082-4.052,7.617l4.139,1.079a2.671,2.671,0,0,0,2.233-.3,10.029,10.029,0,0,0,3.639-5.853,1.234,1.234,0,0,1,.16-.432,3.121,3.121,0,0,1,.228-.944A8.015,8.015,0,0,1,149.615,317.766Z" transform="translate(-64.513 -147.807)" fill="#657c8c"/>
    <path id="Path_3957" data-name="Path 3957" d="M112.96,277.817a16.431,16.431,0,0,0-4.046,6.353,1.79,1.79,0,0,1-.253.382,1.734,1.734,0,0,1-1.234.247,64.992,64.992,0,0,1-8.506-.481,1.955,1.955,0,0,1-1.153-.3c-2.591-1.308-5.169-2.646-7.71-4.04-1.092-.617-2.239-1.1-3.337-1.7-.543-.3-1.123-.58-1.308-1.234-.382-1.03-.432-2.14-.759-3.177-.167-.518-.167-2.782-.284-3.46-.278-1.585.389-2.381,1.98-2.387h5.175c1.813-.678,3.7-.3,5.551-.382.968-.043,1.937,0,2.905,0a3.047,3.047,0,0,1,1.523.358h12.12c.617,0,1.135,0,1.443.617.056.08.062.179.111.253.919,1.443.7,2.146-.913,2.813a7.821,7.821,0,0,0-1.813.95,2.751,2.751,0,0,0-.043,4.533C112.658,277.354,112.9,277.508,112.96,277.817Z" transform="translate(-42.939 -129.539)" fill="#ccc6d2"/>
    <path id="Path_3958" data-name="Path 3958" d="M129.428,278.45a3,3,0,0,1-1.363-4.9,5.551,5.551,0,0,1,2.06-1.412c1.98-.864,1.98-.857,1.443-2.88.518.734,1.271.617,1.955.438a1.024,1.024,0,0,1,1.2.438,4.533,4.533,0,0,1-.136,5.983,9.677,9.677,0,0,0-5.156,2.332Z" transform="translate(-59.407 -130.172)" fill="#ffb077"/>
    <path id="Path_3959" data-name="Path 3959" d="M100.045,259.717c-.074.16.093.389-.123.506a2.221,2.221,0,0,1-2.535-.376,2.147,2.147,0,0,0-.389-.228,24.863,24.863,0,0,1-2.683-2.837c-.29-.327-.617-.617-.913-.931l-.173-.271a.783.783,0,0,1,.339-1.116,1.042,1.042,0,0,1,1.283.185,15.491,15.491,0,0,0,1.554,1.48Z" transform="translate(-46.314 -124.447)" fill="#ccc6d2"/>
    <path id="Path_3960" data-name="Path 3960" d="M122.633,245.313a.962.962,0,0,0-.092.259,10.251,10.251,0,0,1-4.262,4.318,13.44,13.44,0,0,1-5.329,1.684c-1.394.16-2.615.3-3.2,1.77a1.166,1.166,0,0,1-1.234,0c-.389-.426-.062-.752.16-1.079a4.435,4.435,0,0,0-.4-4.817.931.931,0,0,0-.913-.333,2.547,2.547,0,0,1-2.4-.771,2.35,2.35,0,0,0-1.536-.3H93.65a7.793,7.793,0,0,1-1.591-.086,2.467,2.467,0,0,1-1.073-1.116,3.318,3.318,0,0,0-2.843-1.647,1.992,1.992,0,0,1-1.264-.493q-1.912-1.764-3.7-3.639a7.8,7.8,0,0,0-1.419-1.462c-.617-.512-1.147-.3-1.234.469.049.111.093.228.142.333a1.931,1.931,0,0,0,.888.993c.907.913,1.85,1.795,2.683,2.776.938,1.517.95,1.53-.672,2.288a1.166,1.166,0,0,0-.617.543,1.937,1.937,0,0,1-1.2.956c-1.678.136-3.368,0-5.045.074-1.2,0-1.684.574-1.542,1.776.086.715.74,5.446.845,6.964a4.04,4.04,0,0,1-3.362-1.277,18.979,18.979,0,0,0-.765-3.349h-.093a2.3,2.3,0,0,1-1.234-.21,29.932,29.932,0,0,1-3.337-1.11,12.046,12.046,0,0,1-4.237-3.139,16.222,16.222,0,0,1-3.146-5.551,19.621,19.621,0,0,1-.728-3.8,14.76,14.76,0,0,1,.117-3.6,5.07,5.07,0,0,1,.752-2.159,31.1,31.1,0,0,1,3.651-8.284c2.406-3.7,5.052-7.18,8.888-9.554a29.423,29.423,0,0,1,8.863-3.232l14.291,11.719,6.285-12a36.089,36.089,0,0,1,9.307,3.263,5.761,5.761,0,0,1,2.307,1.85,1.721,1.721,0,0,0,.728.574,5.727,5.727,0,0,1,2.054,2.331c.728,1.079,1.394,2.19,2.091,3.3a32.494,32.494,0,0,1,2.35,4.718,57.7,57.7,0,0,1,1.98,5.607,14.063,14.063,0,0,1,1.055,4.867c.179,1.493.086,2.985.136,4.478A8.284,8.284,0,0,1,122.633,245.313Z" transform="translate(-33.257 -107.169)"/>
    <path id="Path_3961" data-name="Path 3961" d="M72.725,280.815l3.368,1.314a56.358,56.358,0,0,0,5.113,2.757c2.615,1.406,5.267,2.751,7.9,4.12a13.089,13.089,0,0,1,3.522,1.425c1.493.777,2.985,1.554,4.459,2.35a1.437,1.437,0,0,1,.87.913l-3.7,14.495c-.117-.555-.617-.444-.987-.537-7.241-1.974-14.513-3.849-21.705-6.026-.808-.247-1.6-.524-2.406-.783a12.033,12.033,0,0,1-5.551-3.195,13.921,13.921,0,0,1-3.516-4.355,9.024,9.024,0,0,1,1.419-9.745,4.318,4.318,0,0,1,2-1.314,12.336,12.336,0,0,1,7.075-1.69A19.034,19.034,0,0,1,72.725,280.815Z" transform="translate(-33.341 -134.486)" fill="#14ac63"/>
    <path id="Path_3962" data-name="Path 3962" d="M116.5,298.928l-8.857-4.688,9.252.389a5.879,5.879,0,0,1,.734.123,23.005,23.005,0,0,1-1.129,4.176Z" transform="translate(-51.879 -139.745)" fill="#27c0d2"/>
    <path id="Path_3963" data-name="Path 3963" d="M168.876,324.732a5.5,5.5,0,0,0-1.727-.759c-1.653-.456-3.337-.833-4.971-1.363-2.35-.759-4.934-.814-7.18-1.9a3.085,3.085,0,0,0-.185.617c-.333.1-.5.45-.715,1.16a10.43,10.43,0,0,1-2.634,4.484,1.2,1.2,0,0,0-.493.968c.049.111.062.259.148.327a62.049,62.049,0,0,0,8.222,6.353,6.271,6.271,0,0,0,3.38,1.234c.352.253.722.111,1.079.031a7.272,7.272,0,0,0,3.584-1.937C170.035,331.344,170.658,327.427,168.876,324.732Z" transform="translate(-68.483 -149.888)" fill="#004f63"/>
    <path id="Path_3964" data-name="Path 3964" d="M102.94,364.041c-.561-.191-.82.247-1.042.617-1.813,2.788-3.941,5.4-4.873,8.672-.21,0-1.234,6,.413,6.957a10.985,10.985,0,0,0,7.4,1.456,3.392,3.392,0,0,0,2.591-1.523A14.981,14.981,0,0,0,109.4,375c0-.111,1.264-6.674,1.5-9.4A9.869,9.869,0,0,1,102.94,364.041Z" transform="translate(-47.617 -166.475)" fill="#004f63"/>
    <path id="Path_3965" data-name="Path 3965" d="M95.85,266.081l11.892.068S100.538,256.156,95.85,266.081Z" transform="translate(-47.361 -127.27)" fill="#ffb077"/>
    <path id="Path_3966" data-name="Path 3966" d="M115.856,208.314l-6.285,12L95.28,208.591c.728-.167,1.468-.3,2.2-.493.555-.16,1.166-.241,1.443-.9.093-.234.419-.241.66-.278a18.165,18.165,0,0,0,4.793,1.141,11.04,11.04,0,0,0,3.744-.21,9.2,9.2,0,0,0,2.905-.7,1.554,1.554,0,0,1,.833-.049c.913,1.005,2.239.864,3.374,1.067C115.462,208.2,115.647,208.265,115.856,208.314Z" transform="translate(-47.143 -106.283)" fill="#ede6f3"/>
    <path id="Path_3967" data-name="Path 3967" d="M95.45,170.129a12.188,12.188,0,0,1,3.769-5.638c6.785-5.428,19.287-1.184,19.836,2.776.117.864-.284,2.06-2.214,3.67-8.845,9.184-17.054,13.465-20.416,11.1C93.519,180,94.7,173.342,95.45,170.129Z" transform="translate(-46.869 -89.038)" fill="#020202"/>
    <path id="Path_3968" data-name="Path 3968" d="M100.862,192.766c.833-9.036,1.234-12.836,1.326-13.039a.419.419,0,0,0,.037-.278.537.537,0,0,0-.21-.265,2.794,2.794,0,0,1,.284-4.318,1.591,1.591,0,0,1,2.332.617,2.7,2.7,0,0,1,.21,2.183c-.037.1-.13.247,0,.315a.278.278,0,0,0,.327-.1,1.444,1.444,0,0,0,.2-.3c1.005-2.22,1.77-4.472.993-6.945-.037-.111-.111-.247,0-.339s.3.037.432.111a33.763,33.763,0,0,0,5.631,2.751,7.458,7.458,0,0,0,3.972.691,2.369,2.369,0,0,0,1.85-1.264c-.123,1.53-.265,2.794-.382,3.7-.395,3.084-.493,2.35-1.53,7.747a10.954,10.954,0,0,1-1.166,3.084,3.244,3.244,0,0,1-3.01,1.85,11.849,11.849,0,0,1-8.049-3.849,12.91,12.91,0,0,0,7.58,6.957,3.646,3.646,0,0,0,1.554.493c.228.123.222.345.259.555a6.834,6.834,0,0,1-.444,2.2,2.208,2.208,0,0,1-1.1,1.4,1.234,1.234,0,0,0-.814,1.289c0,.364.1.722.1,1.079,0,.173,0,.407-.2.45s-.234-.191-.3-.327c-.13-.3-.21-.617-.352-.9a1.758,1.758,0,0,0-1.5-1.079c-3.084-.438-5.551-2.091-7.877-4.022C100.942,193.062,100.806,192.97,100.862,192.766Z" transform="translate(-49.277 -92.234)" fill="#ffb077"/>
    <path id="Path_3969" data-name="Path 3969" d="M114.093,197.766l1.018,3.417c.037.117.062.234.093.352-.062.321-.284.16-.419.111a15.811,15.811,0,0,1-6.877-4.361,10.572,10.572,0,0,1-1.986-3.485,12.219,12.219,0,0,0,8.173,3.966Z" transform="translate(-51.22 -101.256)" fill="#ff802a"/>
    <path id="Path_3970" data-name="Path 3970" d="M103.943,179a1.128,1.128,0,0,1,.308.08c.2.1.617.123.5.4s-.37,0-.555-.062c-.617-.191-.851.173-1.11.617-.1.167-.08.567-.389.407s0-.413.086-.617A1.234,1.234,0,0,1,103.943,179Z" transform="translate(-49.934 -95.584)" fill="#3d242a"/>
    <path id="Path_3971" data-name="Path 3971" d="M97.741,183.98c0,1.912-.845,2.578-2.356,1.931-2.368-1.018-3.084-3.244-3.127-5.749-.086-3.7,1.073-6.785,3.873-8.95a8.271,8.271,0,0,1,1.406-.8c.247-.123.555-.37.722.062s-.234.555-.456.648a8.393,8.393,0,0,0-3.627,3.51,10.387,10.387,0,0,0-.555,8.8,3.738,3.738,0,0,0,2.584,1.906C97.136,185.565,97.087,184.368,97.741,183.98Z" transform="translate(-45.983 -92.225)" fill="#020203"/>
    <path id="Path_3972" data-name="Path 3972" d="M81.41,237.9a13.266,13.266,0,0,1,5.052-10.59c.191-.167.4-.321.617-.167s.148.426.074.654a2.93,2.93,0,0,1-.845,1.135c-3.584,3.5-4.558,7.679-3.257,12.459a7.068,7.068,0,0,0,2.19,3.442c.376.339.993.7.512,1.264s-.839-.117-1.153-.382C82.039,243.547,81.6,240.55,81.41,237.9Z" transform="translate(-41.828 -114.008)" fill="#1d2121"/>
    <path id="Path_3973" data-name="Path 3973" d="M147.725,244.433c.037.333,0,.561-.278.66a.617.617,0,0,1-.66-.142,3.553,3.553,0,0,1-.944-1.412,8.323,8.323,0,0,0-3.176-4.786,2.468,2.468,0,0,1-.567-.617c-.179-.241-.3-.543-.068-.783.315-.339.567-.056.845.148a9.208,9.208,0,0,1,3.867,5.15A12.108,12.108,0,0,0,147.725,244.433Z" transform="translate(-65.01 -117.885)" fill="#1d2121"/>
    <path id="Path_3974" data-name="Path 3974" d="M105.54,158.628c0-.512-.173-1.184.444-1.635a.617.617,0,0,1,.752-.13.512.512,0,0,1,.179.722,6.557,6.557,0,0,0-.672,2.584c-.062,1.1-1.3.543-1.807,1.135-.179.21-.419-.339-.617-.567-.3-.364-.617-.709-.888-1.1s-.617-.685-.167-1.018.617.16.851.407a2.906,2.906,0,0,1,.444.543c.247.456.58.8,1.123.617s.271-.734.339-1.123a3.145,3.145,0,0,0,.019-.438Z" transform="translate(-49.928 -87.073)" fill="#030305"/>
    <path id="Path_3975" data-name="Path 3975" d="M119.333,250.319c0,.487-.037.888-.543.9s-.666-.432-.66-.894,0-.845.518-.845S119.283,249.967,119.333,250.319Z" transform="translate(-55.899 -122.593)" fill="#1d2121"/>
    <path id="Path_3976" data-name="Path 3976" d="M117.323,238.92c.617,0,.74.345.752.752s.062.82-.456.888-.722-.352-.783-.8A.808.808,0,0,1,117.323,238.92Z" transform="translate(-55.401 -118.546)" fill="#1d2121"/>
    <path id="Path_3977" data-name="Path 3977" d="M117.58,233.787c.049-.426-.068-.9.487-.907s.617.426.58.8,0,.925-.617.9S117.666,234.046,117.58,233.787Z" transform="translate(-55.688 -116.231)" fill="#1d2121"/>
    <path id="Path_3978" data-name="Path 3978" d="M119.439,260.035c-.389-.1-.463-.407-.45-.746s.154-.765.654-.685.37.475.364.783A.586.586,0,0,1,119.439,260.035Z" transform="translate(-56.228 -126.085)" fill="#1d2121"/>
    <path id="Path_3979" data-name="Path 3979" d="M109.9,166.936c.3-.049.438.179.537.37,1.1,2.183,3.251,3.294,5,4.8a4.814,4.814,0,0,0,5.372.53c1.234-.53,1.486-1.789,1.622-3.01.056-.475,0-.956.049-1.431,0-.253.1-.487.382-.518s.4.111.518.37c.9,2.048-.82,5.206-2.961,5.86a6.1,6.1,0,0,1-6.415-1.628c-1.419-1.357-3.442-2.165-4.04-4.318-.074-.271-.16-.537-.216-.814C109.726,167.1,109.831,167.016,109.9,166.936Z" transform="translate(-52.688 -90.959)" fill="#020203"/>
    <path id="Path_3980" data-name="Path 3980" d="M119.473,182.19c-.709.876-.407,1.894-.518,2.85s.4,2.393-1.715,2.153c1.752.8,1.887.7,2.159-.715A18.559,18.559,0,0,0,119.473,182.19Z" transform="translate(-55.558 -96.807)" fill="#ff802a"/>
    <path id="Path_3981" data-name="Path 3981" d="M113.871,179.389a4.188,4.188,0,0,0-2.418.345c-.247.123-.512.259-.376.574s.364.173.567.08a3.915,3.915,0,0,1,2.066,0c.432.043,1.079.444,1.2-.271C115.006,179.525,114.328,179.506,113.871,179.389Z" transform="translate(-53.182 -95.715)" fill="#ff802a"/>
    <path id="Path_3982" data-name="Path 3982" d="M127.668,182.874a4.142,4.142,0,0,0-3.035-1.9.514.514,0,0,0-.7.382c-.086.382.179.555.506.617A28.889,28.889,0,0,1,127.668,182.874Z" transform="translate(-58.115 -96.331)" fill="#ff802a"/>
    <path id="Path_3983" data-name="Path 3983" d="M126.094,184.8c-.37-.062-.45.241-.5.463s-.068.617.339.715.456-.16.5-.432A.617.617,0,0,0,126.094,184.8Z" transform="translate(-58.75 -97.806)" fill="#ff802a"/>
    <path id="Path_3984" data-name="Path 3984" d="M113.883,183.407c.056-.278.037-.537-.29-.617a.37.37,0,0,0-.475.321.467.467,0,0,0,.308.617C113.735,183.82,113.821,183.641,113.883,183.407Z" transform="translate(-53.971 -97.031)" fill="#ff802a"/>
    <path id="Path_3985" data-name="Path 3985" d="M112.3,192.334a9.982,9.982,0,0,1-3.115-2.874c-.333-.358-.53-.82-.068-1.234a.617.617,0,0,1,1.055.407C110.515,189.941,111.989,190.533,112.3,192.334Z" transform="translate(-52.342 -99.05)" fill="#ff802a"/>
    <path id="Path_3986" data-name="Path 3986" d="M161.855,213.411a2.7,2.7,0,0,0,0,.814c.308.925.382,1.789-.74,2.146a1.986,1.986,0,0,1-2.467-.864c-.574-1.042-.074-1.968.814-2.7s1.486-.191,2.085.426a1.431,1.431,0,0,0,.271.179Z" transform="translate(-71.332 -108.407)" fill="#fafafc"/>
    <path id="Path_3987" data-name="Path 3987" d="M190.932,367.531c-.148,2.5-.247,5.008-.518,7.5-.1.95-.2,1.906-.29,2.856a182.8,182.8,0,0,1-17.788-4.318,36.394,36.394,0,0,1,1.086-6.594,10.358,10.358,0,0,0,.5-4.873,5.508,5.508,0,0,0-1.53-3.022,59.787,59.787,0,0,1-7.506-9.394,1.45,1.45,0,0,0-.617-.58h-.086a13.462,13.462,0,0,0-1.746-4.015,80.087,80.087,0,0,0-5.8-9.789,2.628,2.628,0,0,0-1.53-1.234,24.808,24.808,0,0,1,3.516,7.784,69.079,69.079,0,0,1,2.029,11.1,113.2,113.2,0,0,1,.678,13.718c0,.765-.234,1.523-.228,2.288a3.083,3.083,0,0,0,.117.808v.21a186.981,186.981,0,0,1-21.588-9.338c.037-.74-.037-1.486-.037-2.227V347.6c0-1.6.37-3.189.241-4.8,0-3.429.278-6.846.493-10.263a82.119,82.119,0,0,1,1.1-9.869c.222-.709,1.086-5.249,1.486-6.464a2.1,2.1,0,0,1,1.332.253,17.331,17.331,0,0,0,11.176,1.5,29.058,29.058,0,0,0,6.069-1.795,76.532,76.532,0,0,1,10.825-3.843,15.05,15.05,0,0,1,4.447-.66,4.7,4.7,0,0,1,2.27.537.278.278,0,0,0,.321,0,.58.58,0,0,1,.142-.062c.376.228.426.617.549,1.012q4.774,14.4,8.487,29.1a75,75,0,0,1,2.467,13.742,94.567,94.567,0,0,1-.062,11.553Z" transform="translate(-64.123 -146.416)" fill="#050606"/>
    <path id="Path_3988" data-name="Path 3988" d="M167.616,312.19a54.809,54.809,0,0,1,6.452-1.616,46.262,46.262,0,0,1,6.433-.376,2.244,2.244,0,0,1,.617.185.734.734,0,0,1,.321,1.123c-.056.216-.093.413-.413.278-2.19-.925-4.361-.339-6.507.179-4.139.993-8.018,2.769-11.972,4.268a25.29,25.29,0,0,1-6.84,1.6,15.959,15.959,0,0,1-9.949-2.035c-.29-.179-.722.456-.777-.216a18.766,18.766,0,0,1,.765-3.257l.154-.117a.487.487,0,0,1,.506,0c1.234.833,2.7,1.012,3.978,1.678a16.739,16.739,0,0,0,5.551.438,41.139,41.139,0,0,0,8.45-1.234,5.97,5.97,0,0,1,3.232-.894Z" transform="translate(-66.188 -145.859)" fill="#111416"/>
    <path id="Path_3989" data-name="Path 3989" d="M141.819,290.184l-.617,2.782-1.277.444a1.758,1.758,0,0,1-1.7-.321,29.4,29.4,0,0,1-6.168-5.551,1.443,1.443,0,0,1-.333-1.474,1.233,1.233,0,0,1,.031-.2l2.782,1.308a.617.617,0,0,1,.617,0c2.079.857,4.133,1.783,6.23,2.6A.79.79,0,0,1,141.819,290.184Z" transform="translate(-61.078 -136.533)" fill="#d7856c"/>
    <path id="Path_3990" data-name="Path 3990" d="M131.457,286.18a1.684,1.684,0,0,0,.321,1.092,32.134,32.134,0,0,0,6.5,5.835,2.091,2.091,0,0,0,1.4.432,8.586,8.586,0,0,1-4.392.617c-2.146-.247-4.089-2.658-4.225-5.138A6.125,6.125,0,0,1,131.457,286.18Z" transform="translate(-60.843 -136.656)" fill="#e58e73"/>
    <path id="Path_3991" data-name="Path 3991" d="M173.6,362.712c-.45,2.93-.882,5.872-1.357,8.8-.617,3.867-1.3,7.735-1.943,11.6a1.289,1.289,0,0,1-.16-1.135c.518-3.608.142-7.217-.056-10.819a78.8,78.8,0,0,0-1.931-13.73,25.726,25.726,0,0,0-3.861-9.455c-.185-.253-.654-.555-.271-.907s.617.148.919.315a5.779,5.779,0,0,1,1.752,2,117.544,117.544,0,0,1,6.834,12.009C173.82,361.892,173.413,362.28,173.6,362.712Z" transform="translate(-73.428 -159.94)" fill="#111416"/>
    <path id="Path_3992" data-name="Path 3992" d="M227.065,262.645c.222-.617.469-1.234.734-1.85.734-1.69,1.6-3.325,2.325-5.015a6.364,6.364,0,0,1,.247-.74,82.516,82.516,0,0,0,3.614-18.424l.031-1.721c.154-.617.715-.968,1.036-1.474a4.363,4.363,0,0,0,1.5-3.263c0-.284,0-.839.487-.432.987.82,1.1.1,1.264-.617a14.769,14.769,0,0,1,.839-1.3,4.244,4.244,0,0,0-.419-1.733c-.617-1.733-.882-1.918-2.72-1.949-.493,0-.7-.173-.3-.617a3.448,3.448,0,0,0,1.1-1.234,9.042,9.042,0,0,0,1.536-3.035c.1-.376.29-.833-.093-1.086s-.617.173-.9.389c-1.357,1.1-2.615,2.313-3.91,3.479-.469.493-.95.975-1.456,1.437-1.431,1.123-1.69,2.714-1.758,4.385a5.219,5.219,0,0,1-.148,1.338,39.96,39.96,0,0,1-.617,4.268,3.7,3.7,0,0,1-.395,1.2,13.175,13.175,0,0,1-.975,2.072c-1.665,2.677-3.3,5.372-5.126,7.944a1.807,1.807,0,0,0-.481,1.055l.031,1.03c0,1.1-.142,2.208-.1,3.318a42.922,42.922,0,0,1-2.467,15.6,2.547,2.547,0,0,0-.241,1.357,5.378,5.378,0,0,0,5.767-2.079,25.235,25.235,0,0,0,1.591-2.288Z" transform="translate(-94.821 -110.561)" fill="#e58e73"/>
    <path id="Path_3993" data-name="Path 3993" d="M208.2,280.47a22,22,0,0,0,8.425-10.948c.685-1.6.944-3.325,1.48-4.971a1.721,1.721,0,0,1,.216.925,68.385,68.385,0,0,1-.382,9.394,54.7,54.7,0,0,1-2.424,9.6,1.763,1.763,0,0,1-.228.352c-2.054-.376-3.571-1.69-5.15-2.911C209.508,281.419,209.027,280.716,208.2,280.47Z" transform="translate(-90.414 -128.367)" fill="#d7856c"/>
    <path id="Path_3994" data-name="Path 3994" d="M187.986,251.493c-7.432-5.582-13.218-14.069-22.328-17.486-26.615-5.835-28.866,14.3-35.774,28.04-3.343,3.978,6.23,5.471,8.413,6.9.722.617,2.51.284,2.288,1.345-2.2,13.249-1.924,11.806,1.382,13.434,4.811,2.294,14.186,1.308,16.376-.241a12.338,12.338,0,0,0,3.232-.913c19.824-3.7,14.68,2.467,13.076-16.752C178.969,275.258,188.794,255.589,187.986,251.493Z" transform="translate(-60.134 -116.267)" fill="#14ac63"/>
    <path id="Path_3995" data-name="Path 3995" d="M143.912,189.158c-3.824,3.806-4.429,8.062-1.591,11.368a9.752,9.752,0,0,0,6.008,3.59,4.269,4.269,0,0,1,4.1,3.553,5.866,5.866,0,0,0,3.176,3.855,4.072,4.072,0,0,0,3.17.74,7.463,7.463,0,0,0,4.1-1.949,2.264,2.264,0,0,0,.907-1.85c-.278-.722-1.012-.808-1.573-1.141-2.146-1.277-2.634-3.121-1.234-5.175a8.455,8.455,0,0,0,1.789-4.934,6.057,6.057,0,0,0-2.393-4.731c-.376-.321-.8-.7-1.332-.364s-.364.777-.308,1.234a6.057,6.057,0,0,1-.339,3.436c-.432.938-1,1.85-2.165,1.807s-1.6-1.042-1.937-2.011a8.929,8.929,0,0,1-.284-1.641c-.438-3-1.9-4.145-4.934-3.873a8.45,8.45,0,0,0-1.635.321,1.668,1.668,0,0,1-2.412-1.277C144.874,189.645,144.861,188.806,143.912,189.158Z" transform="translate(-64.49 -99.445)" fill="#ffc200"/>
    <path id="Path_3996" data-name="Path 3996" d="M146,187.077c.74.086.549.685.666,1.147.382,1.567,1.042,1.955,2.621,1.579.487-.117.968-.253,1.456-.339,3.084-.549,4.682.685,4.934,3.8.179,2.362,1.234,3.836,2.671,3.836s2.88-1.9,3.022-4.028a13.286,13.286,0,0,0-.308-2.819c3.022,1.055,4.318,5.021,2.7,7.92-.247.432-.555.833-.833,1.234-2.035,3.016-1.326,5.255,2.1,6.661a6.789,6.789,0,0,1,.7.389c.617.037.678-.469.857-.851s.154-.87.469-1.049c2.584-1.474,1.6-4.49,2.862-6.526,1.591-4.533-1.585-8.635-6.785-8.573A3.518,3.518,0,0,1,159.7,187.8a9.869,9.869,0,0,0-2.628-2.541,7.2,7.2,0,0,0-9.252.142C147.178,185.911,146.617,186.522,146,187.077Z" transform="translate(-66.579 -97.364)" fill="#ffa200"/>
    <path id="Path_3997" data-name="Path 3997" d="M174.73,207a5.335,5.335,0,0,0-1.493,4.231c.031.376.093.981-.308,1.024-2,.2-1.585,2.134-2.393,3.17-.907,2.042-2.757,2.751-4.7,3.337a2.905,2.905,0,0,0-2.85,2.245c-.419,1.289-1.264,1.147-3.084,2.905-.617.58-1.03,1.073-1.3,1.369a2.9,2.9,0,0,0,3.016,3.17,14.187,14.187,0,0,0,5.594-.506c4.015-1.234,4.589-8.173,4.737-8.826.123-.537.709-.617,1.234-.685.66-.049,1.332,0,1.986-.08a1.369,1.369,0,0,0,1.234-1.166C176.734,213.643,176.518,210.183,174.73,207Z" transform="translate(-71.408 -106.314)" fill="#e58e73"/>
    <path id="Path_3998" data-name="Path 3998" d="M158.66,232.361c2.591-.851,3.621-2,4.071-2.954a9.306,9.306,0,0,0,.864-1.709c.364-1.172,1.332-1.468,2.27-1.85l-3.325-.358a6.076,6.076,0,0,1-.148,1.474,8.432,8.432,0,0,1-1.968,3.466A19.913,19.913,0,0,1,158.66,232.361Z" transform="translate(-71.43 -113.399)" fill="#d7856c"/>
    <path id="Path_4000" data-name="Path 4000" d="M139.918,192.545c.241-1.752.407-3.516.74-5.255a7.439,7.439,0,0,1,3.534-5.206c4.934-2.93,9.462-3.176,14,.345,1.85,1.431,2.467,4.244,1.567,6.834a23.46,23.46,0,0,1-6.612,10.288c-2.954,2.523-8.759,2.467-11.361-1.659A9.442,9.442,0,0,1,139.918,192.545Z" transform="translate(-64.247 -95.905)" fill="#ffc200"/>
    <path id="Path_4003" data-name="Path 4003" d="M199.055,274.371c.123.4.111.617-.117.66-.444.136-.672-.21-.74-.506-.456-1.887-1.573-3.491-2.227-5.292-1.523-4.194-2.467-8.561-3.972-12.762-.093-.253-.352-.555,0-.752s.654.08.783.4a28.247,28.247,0,0,1,1.234,3.362,66.256,66.256,0,0,0,4.521,13,4.626,4.626,0,0,1,.518,1.887Z" transform="translate(-84.137 -124.958)" fill="#159b5b"/>
    <path id="Path_4005" data-name="Path 4005" d="M180.722,215.279c-2.788,2.048-3.855,7.044-2.054,9.628,1.628,2.338,3.9,2.282,5.348-.13a5.749,5.749,0,0,0-.487-6.217,4.669,4.669,0,0,0-1.739-1.11,1.363,1.363,0,0,1,1.85.352,6.384,6.384,0,0,1-.395,8.919c-.8.691-3.244.518-4.17-.389a4.457,4.457,0,0,1-1.678-3.084c-.092-2.732-.419-5.551,1.974-7.617.382-.333.7-.833,1.332-.7A.308.308,0,0,1,180.722,215.279Z" transform="translate(-78.584 -109.344)" fill="#ffc200"/>
    <path id="Path_4006" data-name="Path 4006" d="M182.83,210.356v-.315c.938-2.325.278-4.842.845-7.21.08-.321.037-.685.487-.771a57.789,57.789,0,0,1-.9,9.752C182.8,211.392,183,210.819,182.83,210.356Z" transform="translate(-80.692 -104.421)" fill="#ffc600"/>
    <path id="Path_4010" data-name="Path 4010" d="M148.612,182.28a23.815,23.815,0,0,0-5.452,4.318C144.135,184.167,146.145,182.928,148.612,182.28Z" transform="translate(-65.491 -96.841)" fill="#fff5dd"/>
    <path id="Path_4011" data-name="Path 4011" d="M169.84,186.09a5.187,5.187,0,0,1,.549,5.736A9.98,9.98,0,0,0,169.84,186.09Z" transform="translate(-75.714 -98.301)" fill="#fff6df"/>
    <path id="Path_4021" data-name="Path 4021" d="M147.162,278.2a65.062,65.062,0,0,1,2.683-15.216,1.153,1.153,0,0,1,.117-.265c.2-.352.265-1,.808-.82s.222.752.1,1.116a69.3,69.3,0,0,0-2.035,8.53,47.493,47.493,0,0,0-.789,7.291c0,.493.2,1.326-.463,1.32s-.352-.845-.419-1.326a3.306,3.306,0,0,1-.006-.629Z" transform="translate(-67.02 -127.341)" fill="#159b5b"/>
    <path id="Path_4022" data-name="Path 4022" d="M391.178,205.827c-1.345-.247-.968-1.6-1.505-2.356a12.879,12.879,0,0,1,1.8-7.124c1.567-2.954.814-6.008.549-9.042-.056-.617-.136-1.277-.2-1.918a.7.7,0,0,1,.3-.617,3.978,3.978,0,0,1,1.5,1.554,23.955,23.955,0,0,0,2.609,7.562,7.716,7.716,0,0,0,3.991,3.7c1,.728.746,1.758.685,2.751-1.073,2.991-2.2,3.6-6.051,3.294v.056A13.767,13.767,0,0,1,391.178,205.827Z" transform="translate(-159.944 -97.795)" fill="#ff4c2b"/>
    <path id="Path_4023" data-name="Path 4023" d="M396.461,208.506c.253-.241.561-.167.851-.142a4.338,4.338,0,0,0,4.891-3.084,4.57,4.57,0,0,1,1.61-.808c2.338-1.061,3.4-3.139,4.379-5.3q.339-1.6.863-1.665,1.437-.173,4.25,11.1a8.841,8.841,0,0,0,8.166,5.132c-.95.555-21.736,12.533-26.609,7C394.117,219.917,392.39,217.153,396.461,208.506Z" transform="translate(-161.558 -102.676)" fill="#ffaa7d"/>
    <path id="Path_4024" data-name="Path 4024" d="M416.884,185.816a2.252,2.252,0,0,0-.284-.136l.327-.16v.241A.069.069,0,0,0,416.884,185.816Z" transform="translate(-170.274 -98.083)" fill="#ffaa7d"/>
    <path id="Path_4025" data-name="Path 4025" d="M417.227,189.658a1.234,1.234,0,0,1-.617.191,2.5,2.5,0,0,0,.37-.419l.031.062a.741.741,0,0,0,.216.167Z" transform="translate(-170.277 -99.581)" fill="#ffaa7d"/>
    <path id="Path_4026" data-name="Path 4026" d="M411.3,180.12c-1.332-1.234-2.578-1-3.232.617a4.318,4.318,0,0,0-.352,1.3c-.062.814-.426.87-1.092.617a7.136,7.136,0,0,1-3.8-3.442c-.419-.765-.753-1.561-1.264-2.634a6.421,6.421,0,0,0,.241,3.8,1.628,1.628,0,0,1-1.073,2.418,36.546,36.546,0,0,1-3.448,1.579c-.617.259-1.141.617-.814,1.437a15.3,15.3,0,0,0,3.22,6.785,4.312,4.312,0,0,0,2.862,1.974,2.979,2.979,0,0,0,2.72-.234,12,12,0,0,0,3.664-3.263,4.842,4.842,0,0,0,1.493-2.406,4.762,4.762,0,0,0-.043-2.541,2.227,2.227,0,0,0,.925-1.166C412.14,183.371,412.517,181.743,411.3,180.12Zm-2.134,1.949v.29a2.263,2.263,0,0,0-.284-.136Zm.062,2.467.031.062a.74.74,0,0,0,.21.167,1.234,1.234,0,0,1-.617.191,2.5,2.5,0,0,0,.376-.444Z" transform="translate(-162.52 -94.657)" fill="#ffaa7d"/>
    <path id="Path_4027" data-name="Path 4027" d="M416.884,185.816a2.252,2.252,0,0,0-.284-.136l.327-.16v.241A.069.069,0,0,0,416.884,185.816Z" transform="translate(-170.274 -98.083)" fill="#ffaa7d"/>
    <path id="Path_4028" data-name="Path 4028" d="M417.227,189.658a1.234,1.234,0,0,1-.617.191,2.5,2.5,0,0,0,.37-.419l.031.062a.741.741,0,0,0,.216.167Z" transform="translate(-170.277 -99.581)" fill="#ffaa7d"/>
    <path id="Path_4029" data-name="Path 4029" d="M420.936,185.35h0a6.581,6.581,0,0,1-4.108-2.146,6.452,6.452,0,0,1-1.264-2.43c-.167-.722-.185-1.48-.358-2.2-.931-3.806-2-7.55-5.144-10.233-6.624-5.656-14.994-3.429-17.141,5.021a7.827,7.827,0,0,0,0,4.533.993.993,0,0,0,.358-.3c.2.561.814.783,1.178,1.2a1,1,0,0,0,1.351.043c.062.049.117.1.185.154a5.113,5.113,0,0,0,3.084-.136c1.8-.752,1.949-1,1.6-2.782-.148-.771-.216-1.554-.345-2.331a9.807,9.807,0,0,0,3.016,4.059c1.783,1.412,2.665,1.19,3.473-.851a3.945,3.945,0,0,1,.241-.549c.617-1.086,1.277-1.2,2.406-.432,1.116,1.449.709,2.942.1,4.435a8.347,8.347,0,0,1-.882,1.326c-.179.58-.259,2.6-.419,2.88s1.678,9.3,4.373,11.812l.154.074c5.428,6.785,11.688,9.375,14.538,7.531,2.109-1.363,2.467-5.224,2.535-6.008C430.25,194.528,428.807,191.956,420.936,185.35Z" transform="translate(-161.071 -90.301)" fill="#ff4c2b"/>
    <path id="Path_4030" data-name="Path 4030" d="M395.654,186.958l1.468-.062a12.583,12.583,0,0,0,4.207-.376,34.485,34.485,0,0,1-4.318,2.1,1.2,1.2,0,0,0-.722.487.943.943,0,0,0-.111.543A5.508,5.508,0,0,1,395.654,186.958Z" transform="translate(-162.243 -98.466)" fill="#ee8550"/>
    <path id="Path_4031" data-name="Path 4031" d="M413.566,198.78s.389,3.392-1.517,5.317a6.376,6.376,0,0,1-5,1.684c-.253-.876.7-2.042-.617-2.665a13.137,13.137,0,0,0,4.934-2.393A29.288,29.288,0,0,0,413.566,198.78Z" transform="translate(-166.376 -103.164)" fill="#f78449"/>
    <path id="Path_4032" data-name="Path 4032" d="M416.884,185.816a2.252,2.252,0,0,0-.284-.136l.327-.16v.241A.069.069,0,0,0,416.884,185.816Z" transform="translate(-170.274 -98.083)" fill="#ffaa7d"/>
    <path id="Path_4033" data-name="Path 4033" d="M417.227,189.658a1.234,1.234,0,0,1-.617.191,2.5,2.5,0,0,0,.37-.419l.031.062a.741.741,0,0,0,.216.167Z" transform="translate(-170.277 -99.581)" fill="#ffaa7d"/>
    <path id="Path_4034" data-name="Path 4034" d="M409.32,306.893q0-1.129-.055-2.258-.086-1.85-.111-3.738c-.049-2.412-.056-4.823-.13-7.235a3.823,3.823,0,0,0-.919,0,22.285,22.285,0,0,0-2.467.506l-1.363.278-.185.037-1.3.259-.463.086a62.2,62.2,0,0,1-7.852,1.055c-1.172.074-2.338.222-3.51.241h-1.351c-2.782-.234-5.588-.191-8.376-.438-.481-.037-.956-.086-1.431-.148s-1.005-.142-1.5-.234a15.776,15.776,0,0,0-2.535-.068,2.893,2.893,0,0,0-.666,1.7c-.062.315-.13.617-.2.938-2.991,14.6-6.353,23.364-8.018,40.924-.253,2.621-.691,7.938,2.171,12.157.031.049.247.308.617.8.617.82,1.1,1.425,1.141,1.474a88.352,88.352,0,0,0,6.951,6.84,150.009,150.009,0,0,0,20.971-10.362q3.83-2.3,7.4-4.8.222-2.035.438-4.071c.247-2.381.45-4.768.7-7.155.259-2.535.555-5.07.808-7.611s.5-5.181.715-7.784c.228-2.782.438-5.551.512-8.376C409.327,308.873,409.339,307.88,409.32,306.893Zm-18.868,32.875q-.364,4.9-.715,9.813v.352c-.475-.58-.789-.968-1.11-1.351-1.32-1.554-2.591-3.152-3.972-4.651-2.134-2.319-2.331-4.281-1.03-7.068a63.168,63.168,0,0,0,2.93-6.828l3.787-8.635.185-.419c.444.333.278.839.29,1.277v4.318c-.037,4.028-.376,8.018-.376,12.071C390.446,339.041,390.446,339.4,390.453,339.768Z" transform="translate(-151.151 -139.513)" fill="#050606"/>
    <path id="Path_4035" data-name="Path 4035" d="M317.76,218.684a7.4,7.4,0,0,1,.9,1.024c4.54,6.125,8.777,12.5,13.711,18.319a21.668,21.668,0,0,0,16.53,8.018c5.193.136,8.635-3.251,12.422-5.94.315-.222,1.005-.407.833-.2a1.431,1.431,0,0,0-.3.648c-.13.617-2.109,10.085-4.823,23.062a46.556,46.556,0,0,0,13.187,2.338,47.11,47.11,0,0,0,20.046-3.855c-1.733-12.206-1.634-17.2-1.1-19.361.456-1.85.617-3.8.993-5.687.395-2.066.53-2.757-.216-3.51,4.126,2.9,8.395,5.551,12.675,8.247,1.961,1.234,2.042,1.635.222,3.158-3.423,2.868-6.637,5.971-10.048,8.851a12.033,12.033,0,0,0-3.664,4.089v.561c1.172,1.986,1.789,4.4,4.188,5.44,6.464-3.232,12.953-6.439,19.392-9.715,3.121-1.585,5.551-3.855,6.483-7.4,1.19-4.453-1.092-7.87-3.528-11.152-4.318-5.823-10.412-9.7-15.858-14.285-3.7-3.127-7.525-6.075-12.188-7.7a9.967,9.967,0,0,0-4.065-.617c-1.659.37-2.307,1.85-3.257,2.991a34.157,34.157,0,0,1-3.423,4.009,8.635,8.635,0,0,1-3.6,1.949c-2.8.691-4.355-.826-3.75-3.639a22.825,22.825,0,0,1,1.092-3.022c.315-.864.734-1.709.216-2.64-.278-.315-.617-.228-.931-.1-5.786,1.129-9.727,4.934-13.465,9.129-2.788,3.127-6.082,5.317-10.6,5.132a9.967,9.967,0,0,1-6.785-2.979c-2.27-2.19-4.435-4.484-6.717-6.655a4.876,4.876,0,0,0-.53-.413c-1.918-1.264-3.318-3.084-4.971-4.651a8.877,8.877,0,0,0-1.012-.851,62.338,62.338,0,0,1-8.049,7.414Z" transform="translate(-132.398 -107.95)" fill="#14ac63"/>
    <path id="Path_4036" data-name="Path 4036" d="M437.7,293.186c-1.622-1.641-2.467-3.892-4.188-5.446a78.508,78.508,0,0,0,1.511,12.527c1.678.765,2.467.364,2.776-1.6C438.074,296.8,437.581,295.012,437.7,293.186Z" transform="translate(-176.754 -137.254)" fill="#ffaa7d"/>
    <path id="Path_4038" data-name="Path 4038" d="M429.547,297.834a5.92,5.92,0,0,0-.216,2.258,13.657,13.657,0,0,1-.105,1.692c0,.109,0,.214,0,.325v2.967c0,5.551.037,11.1-.284,16.616-.339,5.724-.666,11.46-1.234,17.178l-1.678,1.234q-3.54,2.5-7.4,4.8a4.546,4.546,0,0,1,.056-.882c.08-1.141.1-2.307,1.369-3.084a.808.808,0,0,0,.278-.5c1.184-4.651,2.689-9.252,2.227-14.118-.265-2.806-.271-5.631-.364-8.444a17.449,17.449,0,0,1,.765-4.934,14.483,14.483,0,0,0,0-5.983,14.7,14.7,0,0,1,.617-7.778,4.632,4.632,0,0,0,.247-2.122v-.1c-.438-1.7-.08-3.392,0-5.089a2.4,2.4,0,0,0,.247-.271l.074-.111a1.233,1.233,0,0,0,.185-.882,3.268,3.268,0,0,0-.315-.9l-.1-.21a.153.153,0,0,0,0-.043c-.037-.086-.08-.167-.117-.253a16.3,16.3,0,0,1,1.153-7.611l.167-.339v-.1h4.052a1.987,1.987,0,0,0,.167.253,1.554,1.554,0,0,1,.327.672,6.171,6.171,0,0,1,.074,1.234v5.311a39.551,39.551,0,0,0,.327,5.847A9.551,9.551,0,0,1,429.547,297.834Z" transform="translate(-171.051 -134.729)" fill="#050606"/>
    <path id="Path_4039" data-name="Path 4039" d="M410.091,281.28c.247,1.641-.685,3.084-.648,4.762,0,1.11-.123,2.27-.173,3.411-.87.506-1.116-.278-1.474-.746-.617-.789-.715-1.813-1.32-2.615a4.934,4.934,0,0,0,1.622,4.1c.438.413,1.073.654,1.166,1.363a27.037,27.037,0,0,1-.284,5.551c-4.318-1.147-8.746-.617-13.132-.382-.574-.5-.345-1.135-.3-1.739a68.456,68.456,0,0,0-.037-8.567,52.239,52.239,0,0,0-.438,8.179,2.633,2.633,0,0,1-.728,2.362,50.591,50.591,0,0,1-12.2-.82,3.161,3.161,0,0,1-2.134-3.183,10.837,10.837,0,0,1,.814-4.108,48.089,48.089,0,0,0,1.234-5.267c.179-.765.506-1.456,1.431-1.567,2.726-.086,5.446-.2,8.173-.08a4.515,4.515,0,0,0,1.554-.074c4.607-.037,9.252-.055,13.829-.123A5.36,5.36,0,0,0,410.091,281.28Z" transform="translate(-156.252 -134.778)" fill="#050606"/>
    <path id="Path_4040" data-name="Path 4040" d="M395.516,166.923c-3.374-.191-6.372,2.165-7.975,6.168a18.567,18.567,0,0,0-.8,9.665,10.754,10.754,0,0,1,.21,3.867,30.057,30.057,0,0,1-1.659,5.607c-1.2,2.757-1.092,5.724-.617,8.7.056.358.2.8.561.7s.179-.617.222-.944a2.809,2.809,0,0,0-.062-.549,15.977,15.977,0,0,1,.882-8.129,16.962,16.962,0,0,0,1.16-10.239,13.329,13.329,0,0,1,.493-7.247c1.289-3.473,3.3-5.81,6.378-6.476-.574.395-1.135.808-1.715,1.19a7.241,7.241,0,0,0-2.911,3.836,18.541,18.541,0,0,0-.567,9.7c.543,2.7.5,5.126-.962,7.494-1.6,2.584-1.622,5.786-1.548,8.931,0,.345.068.7.4.691s.265-.382.284-.617,0-.654,0-.981a14.886,14.886,0,0,1,1.961-8.222,7.4,7.4,0,0,0,.944-4.194,37.864,37.864,0,0,0-.617-4.934c-.907-5.773,1.351-10.7,5.742-12.441.382-.154.944-.358,1.147-.031s.469.444.678.345A12,12,0,0,0,395.516,166.923Z" transform="translate(-157.911 -90.952)" fill="#ff4c2b"/>
    <path id="Path_4041" data-name="Path 4041" d="M434.36,191.04a9.752,9.752,0,0,0-3.016-4.231c.518-.216,1-.056,1.055-.66a1.042,1.042,0,0,0-.518-.944,21.2,21.2,0,0,0-2.745-2,11.219,11.219,0,0,1-4.583-4.823c-1.172-2.146-1.61-4.626-2.615-6.846-1.758-3.861-4.934-5.909-8.5-5.311-.4.068-.8.136-1.2.167a5.311,5.311,0,0,0-3.7,2.109,1.11,1.11,0,0,1-1.123.45,7.332,7.332,0,0,0-.808,0,11.521,11.521,0,0,1,1.807,1.561,5.251,5.251,0,0,0,.456-.358c1.653-1.19,3.454-2.035,5.378-1.036a10.418,10.418,0,0,1,5.378,6.347c.444,1.443.845,2.911,1.332,4.318.728,2.159,1.641,4.163,3.5,5.28a12.953,12.953,0,0,0,3.984,1.567c2.227.475,3.7,2.085,4.719,4.373a18.134,18.134,0,0,1,1.406,5.126c.056.463.068,1.073.617.987.481-.074.432-.617.395-1.055a19.208,19.208,0,0,0-1.221-5.021Zm-10.072-7.494c-1.234-.925-1.7-2.128-2.467-4.163-.568-1.523-.987-3.127-1.511-4.675a11.672,11.672,0,0,0-5.718-6.52c-1.234-.7-2.517-.179-3.849-.13a1.153,1.153,0,0,1,1.018-.574c.549-.049,1.092-.086,1.635-.167,3.312-.53,6.088,1.271,7.685,4.9.981,2.227,1.437,4.688,2.584,6.853,1.974,3.7,5.348,4.675,5.008,5.378C428.4,185.032,425.971,184.835,424.287,183.546Z" transform="translate(-166.445 -90.65)" fill="#ff4c2b"/>
    <path id="Path_4042" data-name="Path 4042" d="M397.8,338.971a23.6,23.6,0,0,1-2.43,5.452c-1.986,3.806-3.115,7.926-4.373,12a3.2,3.2,0,0,0,.358,2.609,34.74,34.74,0,0,0,5.348,7.031c.617.617,1.709,1.4.993,2.251-.814.975-1.678-.1-2.424-.617a3.866,3.866,0,0,0-1.067-.734c-1.937-.493-3.331-1.85-4.848-2.979a8.18,8.18,0,0,0-1.437-.864,2.258,2.258,0,0,1-1.48-2.245,15.642,15.642,0,0,0-.148-1.949,10.733,10.733,0,0,1,1.345-6.6c2.714-4.719,5.7-9.252,8.826-13.681.265-.37.506-.777,1.024-.617C397.871,338.194,397.8,338.614,397.8,338.971Z" transform="translate(-158.631 -156.51)" fill="#faf9fb"/>
    <path id="Path_4044" data-name="Path 4044" d="M399.747,221.471c.056-2.566,1.141-5.693,2.06-8.3.154-.438.469-1.086,1.1-.839s.2.777.08,1.184a41.6,41.6,0,0,0-2.011,8.018,7.864,7.864,0,0,0,1.005,4.768,1.359,1.359,0,0,0,2.307.475,9.647,9.647,0,0,0,2.554-3.2,80.3,80.3,0,0,1,6.711-10.319c.3-.426.709-1.055,1.32-.617s.2,1.005-.13,1.443a102.482,102.482,0,0,0-7.4,11.361,6.643,6.643,0,0,1-2.517,2.535c-1.517.857-2.677.888-3.738-.8A9.652,9.652,0,0,1,399.747,221.471Z" transform="translate(-163.814 -108.338)" fill="#fff"/>
    <path id="Path_4045" data-name="Path 4045" d="M402.917,299.307c.666-3.4.167-6.859.543-10.27.043-.376,0-.765.043-1.141,0-.179.031-.395.278-.444a.426.426,0,0,1,.524.364,13.333,13.333,0,0,1,.3,2.116,77.042,77.042,0,0,1-.179,9.147,73.05,73.05,0,0,0-.74,9.252c-.074,1.055.524,1.289,1.406,1.338.487,0,1.19,0,1.018.814-.142.678-.709.617-1.271.567-1.968-.234-2.56-.827-2.467-2.887C402.479,305.21,402.726,302.255,402.917,299.307Z" transform="translate(-164.819 -137.139)" fill="#1f2020"/>
    <path id="Path_4048" data-name="Path 4048" d="M426.126,197.09a2.77,2.77,0,0,1,1.012,1.974,6.384,6.384,0,0,0,6.871,5.471,3.769,3.769,0,0,1,3.275,1.419.7.7,0,0,1,.062,1.03c-.284.247-.617.062-.876-.2a3.127,3.127,0,0,0-3.38-.888,2.967,2.967,0,0,1-2.467-.487c-2.22-1.659-4.49-3.374-4.367-6.6C426.28,198.268,425.713,197.775,426.126,197.09Z" transform="translate(-173.866 -102.517)" fill="#eb4527"/>
    <path id="Path_4050" data-name="Path 4050" d="M426,183.3c1.9,1.079,1.733,2.769,2.029,4.176.407,1.931.7,3.861,2.282,5.261a5.434,5.434,0,0,0,2.467,1.4c.358.08.777.352.617.808s-.617.3-.975.228c-2.356-.456-4.564-3.127-4.965-5.872C427.184,187.389,427.153,185.409,426,183.3Z" transform="translate(-173.876 -97.232)" fill="#eb4527"/>
    <path id="Path_4054" data-name="Path 4054" d="M419.525,192.587a1.3,1.3,0,0,1-1.234-1.48,1.8,1.8,0,0,1,1.943-1.85c.8.1,1.511.426,1.437,1.431A2.519,2.519,0,0,1,419.525,192.587Z" transform="translate(-170.917 -99.513)" fill="#00c0d4"/>
    <path id="Path_4058" data-name="Path 4058" d="M409.355,167.2a5.7,5.7,0,0,1,4.194,2.782c.191.284.3.654,0,.9s-.691.043-.962-.271c-1.042-1.234-2.171-2.27-3.929-2.288a.481.481,0,0,1-.512-.561C408.275,167.157,408.836,167.268,409.355,167.2Z" transform="translate(-167.031 -91.063)" fill="#eb4527"/>
    <path id="Path_4062" data-name="Path 4062" d="M445.421,208.182c-.08.617.08,1.153-.555,1.2-.512,0-.58-.432-.617-.8a7.771,7.771,0,0,0-1.943-3.769c-.185-.228-.617-.45-.247-.814.234-.228.555-.043.783.111A6.4,6.4,0,0,1,445.421,208.182Z" transform="translate(-179.974 -105.121)" fill="#eb4527"/>
    <path id="Path_4065" data-name="Path 4065" d="M401.038,175.121c-.938-2.017-.1-3.947,2.43-5.551A19.453,19.453,0,0,0,401.038,175.121Z" transform="translate(-164.168 -91.971)" fill="#eb4527"/>
    <path id="Path_4066" data-name="Path 4066" d="M396.13,199.45c2,.956,3.423,3.6,3.084,5.119-.055.228-.074.487-.382.512a.438.438,0,0,1-.512-.382C398.283,202.818,397.166,201.356,396.13,199.45Z" transform="translate(-162.429 -103.421)" fill="#eb4527"/>
    <path id="Path_4071" data-name="Path 4071" d="M400.75,169.39c-.617,1.449-1.53,2.467-1.746,3.775a.37.37,0,0,1-.53.3c-.339-.117-.308-.432-.315-.709A4.138,4.138,0,0,1,400.75,169.39Z" transform="translate(-163.207 -91.902)" fill="#eb4527"/>
    <path id="Path_4073" data-name="Path 4073" d="M408.89,171.08l2.924,3.263c.167.185.321.419.074.617a.709.709,0,0,1-1.018-.16A7.848,7.848,0,0,1,408.89,171.08Z" transform="translate(-167.319 -92.549)" fill="#eb4527"/>
    <path id="Path_4074" data-name="Path 4074" d="M396.677,205.457a4.743,4.743,0,0,1-.728,1.924c-.259.475-.722.8-1.16.506-.691-.475.308-.543.352-.925a10.593,10.593,0,0,1,.506-1.61c.1-.358.08-.87.617-.752C396.677,204.673,396.677,205.155,396.677,205.457Z" transform="translate(-161.823 -105.388)" fill="#eb4527"/>
    <path id="Path_4079" data-name="Path 4079" d="M425.394,294a6.125,6.125,0,0,1-3.244-4.552,3.411,3.411,0,0,1-.049-.981c.056-.352.093-.82.617-.8s.456.438.512.746a7.061,7.061,0,0,0,1.172,2.862c.228.321.444.771.993.617C425.61,292.6,427.331,293.295,425.394,294Z" transform="translate(-172.376 -137.226)" fill="#1b1d1d"/>
    <path id="Path_4080" data-name="Path 4080" d="M389.9,288.83c-.4,2.467-1.116,4.774-3.14,6.427-.364.3-.839.728-1.234.3s.148-.765.426-1.042a10.519,10.519,0,0,0,2.64-5.761c.086-.469,0-1.234.814-1.073C390.045,287.781,389.81,288.417,389.9,288.83Z" transform="translate(-158.312 -137.221)" fill="#1b1d1d"/>
    <path id="Path_4088" data-name="Path 4088" d="M404.462,189.67c.574.82.241,1.715.278,2.566s-.512,2.1,1.388,2.029c-1.61.617-1.721.506-1.85-.777A16.555,16.555,0,0,1,404.462,189.67Z" transform="translate(-165.537 -99.673)" fill="#f78449"/>
    <path id="Path_4089" data-name="Path 4089" d="M408.825,187.533a3.738,3.738,0,0,1,2.128.469c.21.123.438.265.3.53s-.339.13-.512.031a3.389,3.389,0,0,0-1.85-.117c-.389,0-.993.327-1.049-.321S408.411,187.607,408.825,187.533Z" transform="translate(-166.915 -98.85)" fill="#f78449"/>
    <path id="Path_4090" data-name="Path 4090" d="M396.39,189.814a3.587,3.587,0,0,1,2.825-1.493c.284-.043.549,0,.617.382s-.2.481-.487.5a25.774,25.774,0,0,0-2.954.611Z" transform="translate(-162.529 -99.151)" fill="#f78449"/>
    <path id="Path_4091" data-name="Path 4091" d="M399.263,191.629c.333-.031.389.241.413.444s0,.561-.345.617-.395-.173-.419-.413A.555.555,0,0,1,399.263,191.629Z" transform="translate(-163.49 -100.423)" fill="#f78449"/>
    <path id="Path_4092" data-name="Path 4092" d="M410.264,191.18c-.031-.253,0-.481.3-.524a.333.333,0,0,1,.4.315c.031.247,0,.469-.315.518S410.3,191.4,410.264,191.18Z" transform="translate(-167.842 -100.048)" fill="#f78449"/>
    <path id="Path_4093" data-name="Path 4093" d="M410.78,196.223a3.738,3.738,0,0,1-1.85,1.123c-.241.049-.5.111-.58-.185s.154-.327.352-.376c.66-.167.981-.74,1.419-1.178.278-.271.5-.919.981-.493S411.033,195.877,410.78,196.223Z" transform="translate(-167.106 -101.705)" fill="#f78449"/>
  </g>
</svg>
